{
.appVersion = "1342";
DisplayStrings = (
"",
NOPQRSTUVWXYZ,
abcdefghijklmnopqrstuvwxyz,
"/Z.wide",
"Nori/space Rolls",
"/six.wide/nine.wide",
"1",
"/six.wide",
"6",
"0028",
"9",
g,
"agyei/space &/space friends\012archerH&H&H",
"waxkv/space dabs",
"nnxooes/space ThroesErsatz\012Fitzpatrick\012HHHFHHHHHEHHEHHEHH",
"?",
"/backslash",
"//",
"¦",
"x:",
";",
"{",
"}",
"[",
"]",
2N,
"Zygotes\012EarnestlyJumping\01217/space Miles\012Away",
"/E.wide GOIST",
"Hanover/space Bounty/space/space t",
X,
Papplemousse,
"Warsaw/space Confidential/space Versus/space/space/space",
"EHHFHHHHHEHH/space HHFHH",
"7",
W,
pqgjy,
"¨",
"/dotaccent",
"´`",
"`",
"´/hungarumlaut",
"/hungarumlaut",
"/circumflex",
"/caron",
"/breve",
"/ring",
"/tilde",
"¯",
"¸",
"/ogonek HNOP",
"¨/dotaccent `´/hungarumlaut/circumflex/caron/breve/ring/tilde ¯¸/ogonek",
Papplemousse,
"á"
);
customParameters = (
{
name = Axes;
value = (
{
Name = Width;
Tag = wdth;
}
);
},
{
name = openTypeHeadLowestRecPPEM;
value = 0;
},
{
name = openTypeHheaCaretOffset;
value = 0;
},
{
name = openTypeHheaCaretSlopeRise;
value = 0;
},
{
name = openTypeHheaCaretSlopeRun;
value = 0;
},
{
name = licenseURL;
value = "http://scripts.sil.org/OFL";
},
{
name = strikeoutPosition;
value = 0;
},
{
name = strikeoutSize;
value = 0;
},
{
name = openTypeOS2SubscriptXOffset;
value = 0;
},
{
name = openTypeOS2SubscriptXSize;
value = 0;
},
{
name = openTypeOS2SubscriptYOffset;
value = 0;
},
{
name = openTypeOS2SubscriptYSize;
value = 0;
},
{
name = openTypeOS2SuperscriptXOffset;
value = 0;
},
{
name = openTypeOS2SuperscriptXSize;
value = 0;
},
{
name = openTypeOS2SuperscriptYOffset;
value = 0;
},
{
name = openTypeOS2SuperscriptYSize;
value = 0;
},
{
name = fsType;
value = (
);
},
{
name = vendorID;
value = "!666";
}
);
date = "2018-06-13 01:37:59 +0000";
familyName = Crispy;
fontMaster = (
{
ascender = 1600;
capHeight = 1600;
custom = "Crispy Medium";
customParameters = (
{
name = typoAscender;
value = 1600;
},
{
name = typoDescender;
value = -400;

glyphs = (
{
glyphname = A;
lastChange = "2020-09-22 13:08:51 +0000";
layers = (
{
layerId = "1577B97C-DCC5-4AA4-842F-E9BB22E99E3C";
paths = (
{
closed = 1;
nodes = (
"183 0 LINE",
"183 1317 LINE",
"218 1451 LINE",
"265 1451 LINE",
"265 0 LINE",
"417 0 LINE",
"417 1600 LINE",
"106 1600 LINE",
"31 1322 LINE",
"31 0 LINE"
);
},
{
closed = 1;
nodes = (
"350 633 LINE",
"350 782 LINE",
"104 782 LINE",
"104 633 LINE"
);
}
);
userData = {
com.schriftgestaltung.Glyphs.lastChange = "2019-04-28 05:35:59 +0000";
com.typemytype.robofont.pointLabels = {
};
};
width = 448;
},
{
layerId = "5E27AD2D-EA42-4F80-9479-E0FC49C091FF";
paths = (
{
closed = 1;
nodes = (
"611 0 LINE",
"611 1065 LINE",
"767 1268 LINE",
"1964 1268 LINE",
"1964 0 LINE",
"2397 0 LINE",
"2397 1600 LINE",
"484 1600 LINE",
"168 1152 LINE",
"168 0 LINE"
);
},
{
closed = 1;
nodes = (
"2050 492 LINE",
"2050 799 LINE",
"448 799 LINE",
"448 492 LINE"
);
}
);
userData = {
com.schriftgestaltung.Glyphs.lastChange = "2019-04-28 05:35:59 +0000";
com.typemytype.robofont.pointLabels = {
};
};
width = 2609;
}
);
unicode = 0041;
},
{
glyphname = B;
lastChange = "2020-09-22 13:03:52 +0000";
layers = (
{
layerId = "1577B97C-DCC5-4AA4-842F-E9BB22E99E3C";
paths = (
{
closed = 1;
nodes = (
"357 0 LINE",
"431 265 LINE",
"431 867 LINE",
"345 867 LINE",
"412 1045 LINE",
"412 1600 LINE",
"43 1600 LINE",
"43 0 LINE"
);
},
{
closed = 1;
nodes = (
"195 726 LINE",
"279 726 LINE",
"279 289 LINE",
"238 149 LINE",
"195 149 LINE"
);
},
{
closed = 1;
nodes = (
"195 1451 LINE",
"263 1451 LINE",
"263 1069 LINE",
"199 874 LINE",
"195 874 LINE"
);
}
);
userData = {
com.schriftgestaltung.Glyphs.lastChange = "2019-04-28 05:35:59 +0000";
com.typemytype.robofont.pointLabels = {
};
};
width = 463;
},
{
layerId = "5E27AD2D-EA42-4F80-9479-E0FC49C091FF";
paths = (
{
closed = 1;
nodes = (
"2418 0 LINE",
"2720 421 LINE",
"2720 948 LINE",
"2215 948 LINE",
"2397 1155 LINE",
"2397 1600 LINE",
"264 1600 LINE",
"264 0 LINE"
);
},
{
closed = 1;
nodes = (
"707 643 LINE",
"2276 643 LINE",
"2276 508 LINE",
"2137 326 LINE",
"707 326 LINE"
);
},
{
closed = 1;
nodes = (
"707 1274 LINE",
"1956 1274 LINE",
"1956 1175 LINE",
"1771 956 LINE",
"707 956 LINE"
);
}
);
userData = {
com.schriftgestaltung.Glyphs.lastChange = "2019-04-28 05:35:59 +0000";
com.typemytype.robofont.pointLabels = {
};
};
width = 2855;
}
);
unicode = 0042;
},
{
glyphname = C;
lastChange = "2020-09-22 13:03:52 +0000";
layers = (
{
layerId = "1577B97C-DCC5-4AA4-842F-E9BB22E99E3C";
paths = (
{
closed = 1;
nodes = (
"418 0 LINE",
"418 619 LINE",
"266 619 LINE",
"266 149 LINE",
"183 149 LINE",
"183 1295 LINE",
"215 1451 LINE",
"264 1451 LINE",
"264 981 LINE",
"416 981 LINE",
"416 1600 LINE",
"105 1600 LINE",
"31 1321 LINE",
"31 0 LINE"
);
}
);
userData = {
com.schriftgestaltung.Glyphs.lastChange = "2019-04-28 11:49:41 +0000";
com.typemytype.robofont.pointLabels = {
QjTd5GXXER = (
rightside
);
o9Cec4GtsE = (
rightside
);
};
};
width = 455;
},
{
layerId = "5E27AD2D-EA42-4F80-9479-E0FC49C091FF";
paths = (
{
closed = 1;
nodes = (
"2515 0 LINE",
"2515 637 LINE",
"2071 637 LINE",
"2071 332 LINE",
"612 332 LINE",
"612 1034 LINE",
"766 1270 LINE",
"2069 1270 LINE",
"2069 963 LINE",
"2512 963 LINE",
"2512 1600 LINE",
"474 1600 LINE",
"168 1152 LINE",
"168 0 LINE"
);
}
);
userData = {
com.schriftgestaltung.Glyphs.lastChange = "2019-04-28 11:49:41 +0000";
com.typemytype.robofont.pointLabels = {
QjTd5GXXER = (
rightside
);
o9Cec4GtsE = (
rightside
);
};
};
width = 2715;
}
);
unicode = 0043;
},
{
glyphname = D;
lastChange = "2020-09-22 13:03:52 +0000";
layers = (
{
layerId = "1577B97C-DCC5-4AA4-842F-E9BB22E99E3C";
paths = (
{
closed = 1;
nodes = (
"347 0 LINE",
"422 275 LINE",
"422 1600 LINE",
"36 1600 LINE",
"36 0 LINE"
);
},
{
closed = 1;
nodes = (
"188 1451 LINE",
"270 1451 LINE",
"270 280 LINE",
"233 149 LINE",
"188 149 LINE"
);
}
);
userData = {
com.schriftgestaltung.Glyphs.lastChange = "2019-04-28 05:35:59 +0000";
com.typemytype.robofont.pointLabels = {
DhFNkdKcfj = (
leftside
);
yunTqSzRcA = (
rightside
);
};
};
width = 448;
},
{
layerId = "5E27AD2D-EA42-4F80-9479-E0FC49C091FF";
paths = (
{
closed = 1;
nodes = (
"2333 0 LINE",
"2641 453 LINE",
"2641 1600 LINE",
"265 1600 LINE",
"265 0 LINE"
);
},
{
closed = 1;
nodes = (
"708 1268 LINE",
"2198 1268 LINE",
"2198 548 LINE",
"2021 332 LINE",
"708 332 LINE"
);
}
);
userData = {
com.schriftgestaltung.Glyphs.lastChange = "2019-04-28 05:35:59 +0000";
com.typemytype.robofont.pointLabels = {
DhFNkdKcfj = (
leftside
);
yunTqSzRcA = (
rightside
);
};
};
width = 2807;
}
);
unicode = 0044;
},
{
glyphname = E;
lastChange = "2020-09-23 01:43:24 +0000";
layers = (
{
layerId = "1577B97C-DCC5-4AA4-842F-E9BB22E99E3C";
paths = (
{
closed = 1;
nodes = (
"303 0 LINE",
"303 149 LINE",
"188 149 LINE",
"188 725 LINE",
"269 725 LINE",
"269 873 LINE",
"188 873 LINE",
"188 1451 LINE",
"302 1451 LINE",
"302 1600 LINE",
"36 1600 LINE",
"36 0 LINE"
);
}
);
userData = {
com.schriftgestaltung.Glyphs.lastChange = "2019-04-28 05:35:59 +0000";
com.typemytype.robofont.pointLabels = {
32aoCNw8Jt = (
rightside
);
NnvFkLKjyD = (
rightside
);
S91n4lNRRk = (
rightside
);
XMbDdjq7aS = (
rightside
);
};
};
width = 308;
},
{
layerId = "5E27AD2D-EA42-4F80-9479-E0FC49C091FF";
paths = (
{
closed = 1;
nodes = (
"2097 0 LINE",
"2097 330 LINE",
"655 330 LINE",
"655 656 LINE",
"1560 656 LINE",
"1560 969 LINE",
"655 969 LINE",
"655 1270 LINE",
"2096 1270 LINE",
"2096 1600 LINE",
"212 1600 LINE",
"212 0 LINE"
);
}
);
userData = {
com.schriftgestaltung.Glyphs.lastChange = "2019-04-28 05:35:59 +0000";
com.typemytype.robofont.pointLabels = {
32aoCNw8Jt = (
rightside
);
NnvFkLKjyD = (
rightside
);
S91n4lNRRk = (
rightside
);
XMbDdjq7aS = (
rightside
);
};
};
width = 2167;
}
);
unicode = 0045;
},
{
glyphname = F;
lastChange = "2020-09-23 01:43:14 +0000";
layers = (
{
layerId = "1577B97C-DCC5-4AA4-842F-E9BB22E99E3C";
paths = (
{
closed = 1;
nodes = (
"195 0 LINE",
"195 703 LINE",
"291 704 LINE",
"291 853 LINE",
"195 852 LINE",
"195 1451 LINE",
"318 1452 LINE",
"318 1601 LINE",
"43 1600 LINE",
"43 0 LINE"
);
}
);
userData = {
com.schriftgestaltung.Glyphs.lastChange = "2019-04-28 05:35:59 +0000";
com.typemytype.robofont.pointLabels = {
F6QQD702pX = (
rightside
);
bL0wwzlx16 = (
rightside
);
};
};
width = 323;
},
{
layerId = "5E27AD2D-EA42-4F80-9479-E0FC49C091FF";
paths = (
{
closed = 1;
nodes = (
"655 0 LINE",
"655 603 LINE",
"1941 603 LINE",
"1941 935 LINE",
"655 935 LINE",
"655 1268 LINE",
"2253 1268 LINE",
"2253 1600 LINE",
"212 1600 LINE",
"212 0 LINE"
);
}
);
userData = {
com.schriftgestaltung.Glyphs.lastChange = "2019-04-28 05:35:59 +0000";
com.typemytype.robofont.pointLabels = {
F6QQD702pX = (
rightside
);
bL0wwzlx16 = (
rightside
);
};
};
width = 2277;
}
);
unicode = 0046;
},
{
glyphname = G;
lastChange = "2020-09-22 13:03:52 +0000";
layers = (
{
layerId = "1577B97C-DCC5-4AA4-842F-E9BB22E99E3C";
paths = (
{
closed = 1;
nodes = (
"418 0 LINE",
"418 777 LINE",
"208 777 LINE",
"208 628 LINE",
"266 628 LINE",
"266 149 LINE",
"183 149 LINE",
"183 1316 LINE",
"220 1451 LINE",
"271 1451 LINE",
"271 981 LINE",
"423 981 LINE",
"423 1600 LINE",
"106 1600 LINE",
"31 1322 LINE",
"31 0 LINE"
);
}
);
userData = {
com.schriftgestaltung.Glyphs.lastChange = "2019-04-28 11:53:33 +0000";
com.typemytype.robofont.pointLabels = {
03XIRquU5H = (
rightside,
crossbar,
shiftstem,
rightside,
rightside,
shiftdown,
rightside,
rightside,
rightside,
rightside,
rightside,
rightside,
rightside,
rightside,
rightside,
rightside,
rightside,
rightside,
rightside,
rightside,
rightside,
rightside,
rightside,
rightside,
crossbar,
rightside,
rightside,
rightside,
rightside,
rightside,
rightside,
rightside,
rightside,
rightside,
rightside,
rightside,
rightside,
rightside,
rightside,
rightside,
rightside,
rightside,
rightside,
rightside,
rightside,
crossbar,
rightside,
rightside,
shiftdown,
rightside,
rightside,
rightside,
rightside,
rightside,
rightside,
rightside,
rightside,
rightside,
rightside,
rightside,
rightside,
rightside,
rightside,
rightside,
rightside,
rightside,
rightside,
crossbar,
rightside,
rightside,
rightside,
rightside,
rightside,
rightside,
rightside,
rightside,
rightside,
rightside,
rightside,
rightside,
rightside,
rightside,
rightside,
rightside,
rightside,
rightside,
rightside,
leftside,
leftside,
leftside,
rightside,
crossbar,
rightside,
rightside,
shiftdown,
rightside,
rightside,
rightside,
rightside,
rightside,
rightside,
rightside,
rightside,
rightside,
rightside,
rightside,
rightside,
rightside,
rightside,
rightside,
rightside,
rightside,
rightside,
crossbar,
rightside,
rightside,
rightside,
rightside,
rightside,
rightside,
rightside,
rightside,
rightside,
rightside,
rightside,
rightside,
rightside,
rightside,
rightside,
rightside,
rightside,
rightside,
rightside
);
0C3ytxLmQy = (
rightside,
rightside,
rightside,
rightside,
rightside,
rightside,
rightside,
rightside
);
3nCTj46eZY = (
rightside,
crossbar,
rightside,
rightside,
shiftdown,
rightside,
rightside,
rightside,
rightside,
rightside,
rightside,
rightside,
rightside,
rightside,
rightside,
rightside,
rightside,
rightside,
rightside,
rightside,
rightside,
rightside,
rightside,
crossbar,
rightside,
rightside,
rightside,
rightside,
rightside,
rightside,
rightside,
rightside,
rightside,
rightside,
rightside,
rightside,
rightside,
rightside,
rightside,
rightside,
rightside,
rightside,
rightside
);
8B2JVN8ZLJ = (
rightside,
rightside,
rightside,
rightside,
rightside,
rightside,
rightside,
rightside
);
8rex52NyWa = (
rightside,
crossbar,
rightside,
rightside,
rightside,
rightside,
rightside,
rightside,
rightside,
rightside,
rightside,
rightside,
rightside,
rightside,
rightside,
rightside,
rightside,
rightside,
rightside,
rightside,
rightside
);
BK8t8NwvTJ = (
rightside,
crossbar,
shiftstem,
rightside,
rightside,
shiftdown,
rightside,
rightside,
rightside,
rightside,
rightside,
rightside,
rightside,
rightside,
rightside,
rightside,
rightside,
rightside,
rightside,
rightside,
rightside,
rightside,
rightside,
rightside,
crossbar,
rightside,
rightside,
rightside,
rightside,
rightside,
rightside,
rightside,
rightside,
rightside,
rightside,
rightside,
rightside,
rightside,
rightside,
rightside,
rightside,
rightside,
rightside,
rightside,
rightside,
crossbar,
rightside,
rightside,
shiftdown,
rightside,
rightside,
rightside,
rightside,
rightside,
rightside,
rightside,
rightside,
rightside,
rightside,
rightside,
rightside,
rightside,
rightside,
rightside,
rightside,
rightside,
rightside,
crossbar,
rightside,
rightside,
rightside,
rightside,
rightside,
rightside,
rightside,
rightside,
rightside,
rightside,
rightside,
rightside,
rightside,
rightside,
rightside,
rightside,
rightside,
rightside,
rightside,
leftside,
leftside,
leftside,
rightside,
crossbar,
rightside,
rightside,
shiftdown,
rightside,
rightside,
rightside,
rightside,
rightside,
rightside,
rightside,
rightside,
rightside,
rightside,
rightside,
rightside,
rightside,
rightside,
rightside,
rightside,
rightside,
rightside,
crossbar,
rightside,
rightside,
rightside,
rightside,
rightside,
rightside,
rightside,
rightside,
rightside,
rightside,
rightside,
rightside,
rightside,
rightside,
rightside,
rightside,
rightside,
rightside,
rightside
);
CxPWfAz72K = (
rightside,
crossbar,
rightside,
rightside,
shiftdown,
rightside,
rightside,
rightside,
rightside,
rightside,
rightside,
rightside,
rightside,
rightside,
rightside,
rightside,
rightside,
rightside,
rightside,
rightside,
rightside,
rightside,
rightside,
crossbar,
rightside,
rightside,
rightside,
rightside,
rightside,
rightside,
rightside,
rightside,
rightside,
rightside,
rightside,
rightside,
rightside,
rightside,
rightside,
rightside,
rightside,
rightside,
rightside
);
DkNGLrNVA4 = (
rightside,
crossbar,
rightside,
rightside,
rightside,
rightside,
rightside,
rightside,
rightside,
rightside,
rightside,
rightside,
rightside,
rightside,
rightside,
rightside,
rightside,
rightside,
rightside,
rightside,
rightside
);
HNKsGz9B03 = (
rightside,
crossbar,
rightside,
rightside,
shiftdown,
rightside,
rightside,
rightside,
rightside,
rightside,
rightside,
rightside,
rightside,
rightside,
rightside,
rightside,
rightside,
rightside,
rightside,
rightside,
rightside,
rightside,
rightside,
crossbar,
rightside,
rightside,
rightside,
rightside,
rightside,
rightside,
rightside,
rightside,
rightside,
rightside,
rightside,
rightside,
rightside,
rightside,
rightside,
rightside,
rightside,
rightside,
rightside
);
Mtb7ldvxRR = (
rightside,
rightside,
rightside,
rightside,
rightside,
rightside,
rightside,
rightside
);
PhwuN5iOza = (
rightside,
crossbar,
rightside,
rightside,
shiftdown,
rightside,
rightside,
rightside,
rightside,
rightside,
rightside,
rightside,
rightside,
rightside,
rightside,
rightside,
rightside,
rightside,
rightside,
rightside,
rightside,
rightside,
rightside,
crossbar,
rightside,
rightside,
rightside,
rightside,
rightside,
rightside,
rightside,
rightside,
rightside,
rightside,
rightside,
rightside,
rightside,
rightside,
rightside,
rightside,
rightside,
rightside,
rightside
);
gruPC0rm4E = (
rightside,
crossbar,
shiftstem,
rightside,
rightside,
shiftdown,
rightside,
rightside,
rightside,
rightside,
rightside,
rightside,
rightside,
rightside,
rightside,
rightside,
rightside,
rightside,
rightside,
rightside,
rightside,
rightside,
rightside,
rightside,
crossbar,
rightside,
rightside,
rightside,
rightside,
rightside,
rightside,
rightside,
rightside,
rightside,
rightside,
rightside,
rightside,
rightside,
rightside,
rightside,
rightside,
rightside,
rightside,
rightside,
rightside,
crossbar,
rightside,
rightside,
shiftdown,
rightside,
rightside,
rightside,
rightside,
rightside,
rightside,
rightside,
rightside,
rightside,
rightside,
rightside,
rightside,
rightside,
rightside,
rightside,
rightside,
rightside,
rightside,
crossbar,
rightside,
rightside,
rightside,
rightside,
rightside,
rightside,
rightside,
rightside,
rightside,
rightside,
rightside,
rightside,
rightside,
rightside,
rightside,
rightside,
rightside,
rightside,
rightside,
leftside,
leftside,
leftside,
rightside,
crossbar,
rightside,
rightside,
shiftdown,
rightside,
rightside,
rightside,
rightside,
rightside,
rightside,
rightside,
rightside,
rightside,
rightside,
rightside,
rightside,
rightside,
rightside,
rightside,
rightside,
rightside,
rightside,
crossbar,
rightside,
rightside,
rightside,
rightside,
rightside,
rightside,
rightside,
rightside,
rightside,
rightside,
rightside,
rightside,
rightside,
rightside,
rightside,
rightside,
rightside,
rightside,
rightside
);
gyWZd1V7bg = (
rightside,
rightside,
rightside,
rightside,
rightside,
rightside,
rightside,
rightside
);
oP4AYTo8BD = (
rightside,
rightside,
rightside,
rightside,
rightside,
rightside,
rightside,
rightside
);
p5qGxSYyHQ = (
rightside,
crossbar,
shiftstem,
rightside,
rightside,
shiftdown,
rightside,
rightside,
rightside,
rightside,
rightside,
rightside,
rightside,
rightside,
rightside,
rightside,
rightside,
rightside,
rightside,
rightside,
rightside,
rightside,
rightside,
rightside,
crossbar,
rightside,
rightside,
rightside,
rightside,
rightside,
rightside,
rightside,
rightside,
rightside,
rightside,
rightside,
rightside,
rightside,
rightside,
rightside,
rightside,
rightside,
rightside,
rightside,
rightside,
crossbar,
rightside,
rightside,
shiftdown,
rightside,
rightside,
rightside,
rightside,
rightside,
rightside,
rightside,
rightside,
rightside,
rightside,
rightside,
rightside,
rightside,
rightside,
rightside,
rightside,
rightside,
rightside,
crossbar,
rightside,
rightside,
rightside,
rightside,
rightside,
rightside,
rightside,
rightside,
rightside,
rightside,
rightside,
rightside,
rightside,
rightside,
rightside,
rightside,
rightside,
rightside,
rightside,
leftside,
leftside,
leftside,
rightside,
crossbar,
rightside,
rightside,
shiftdown,
rightside,
rightside,
rightside,
rightside,
rightside,
rightside,
rightside,
rightside,
rightside,
rightside,
rightside,
rightside,
rightside,
rightside,
rightside,
rightside,
rightside,
rightside,
crossbar,
rightside,
rightside,
rightside,
rightside,
rightside,
rightside,
rightside,
rightside,
rightside,
rightside,
rightside,
rightside,
rightside,
rightside,
rightside,
rightside,
rightside,
rightside,
rightside
);
q5MpLm6pYB = (
rightside,
crossbar,
shiftstem,
rightside,
rightside,
shiftdown,
rightside,
rightside,
rightside,
rightside,
rightside,
rightside,
rightside,
rightside,
rightside,
rightside,
rightside,
rightside,
rightside,
rightside,
rightside,
rightside,
rightside,
rightside,
crossbar,
rightside,
rightside,
rightside,
rightside,
rightside,
rightside,
rightside,
rightside,
rightside,
rightside,
rightside,
rightside,
rightside,
rightside,
rightside,
rightside,
rightside,
rightside,
rightside,
rightside,
crossbar,
rightside,
rightside,
shiftdown,
rightside,
rightside,
rightside,
rightside,
rightside,
rightside,
rightside,
rightside,
rightside,
rightside,
rightside,
rightside,
rightside,
rightside,
rightside,
rightside,
rightside,
rightside,
crossbar,
rightside,
rightside,
rightside,
rightside,
rightside,
rightside,
rightside,
rightside,
rightside,
rightside,
rightside,
rightside,
rightside,
rightside,
rightside,
rightside,
rightside,
rightside,
rightside,
leftside,
leftside,
leftside,
rightside,
crossbar,
rightside,
rightside,
shiftdown,
rightside,
rightside,
rightside,
rightside,
rightside,
rightside,
rightside,
rightside,
rightside,
rightside,
rightside,
rightside,
rightside,
rightside,
rightside,
rightside,
rightside,
rightside,
crossbar,
rightside,
rightside,
rightside,
rightside,
rightside,
rightside,
rightside,
rightside,
rightside,
rightside,
rightside,
rightside,
rightside,
rightside,
rightside,
rightside,
rightside,
rightside,
rightside
);
sayqGOMtzs = (
rightside,
crossbar,
shiftstem,
rightside,
rightside,
shiftdown,
rightside,
rightside,
rightside,
rightside,
rightside,
rightside,
rightside,
rightside,
rightside,
rightside,
rightside,
rightside,
rightside,
rightside,
rightside,
rightside,
rightside,
rightside,
crossbar,
rightside,
rightside,
rightside,
rightside,
rightside,
rightside,
rightside,
rightside,
rightside,
rightside,
rightside,
rightside,
rightside,
rightside,
rightside,
rightside,
rightside,
rightside,
rightside,
rightside,
crossbar,
rightside,
rightside,
shiftdown,
rightside,
rightside,
rightside,
rightside,
rightside,
rightside,
rightside,
rightside,
rightside,
rightside,
rightside,
rightside,
rightside,
rightside,
rightside,
rightside,
rightside,
rightside,
crossbar,
rightside,
rightside,
rightside,
rightside,
rightside,
rightside,
rightside,
rightside,
rightside,
rightside,
rightside,
rightside,
rightside,
rightside,
rightside,
rightside,
rightside,
rightside,
rightside,
leftside,
leftside,
leftside,
rightside,
crossbar,
rightside,
rightside,
shiftdown,
rightside,
rightside,
rightside,
rightside,
rightside,
rightside,
rightside,
rightside,
rightside,
rightside,
rightside,
rightside,
rightside,
rightside,
rightside,
rightside,
rightside,
rightside,
crossbar,
rightside,
rightside,
rightside,
rightside,
rightside,
rightside,
rightside,
rightside,
rightside,
rightside,
rightside,
rightside,
rightside,
rightside,
rightside,
rightside,
rightside,
rightside,
rightside
);
};
};
width = 452;
},
{
layerId = "5E27AD2D-EA42-4F80-9479-E0FC49C091FF";
paths = (
{
closed = 1;
nodes = (
"2536 0 LINE",
"2536 894 LINE",
"1493 894 LINE",
"1493 568 LINE",
"2092 568 LINE",
"2092 326 LINE",
"612 326 LINE",
"612 1073 LINE",
"776 1274 LINE",
"2088 1274 LINE",
"2088 998 LINE",
"2531 998 LINE",
"2531 1600 LINE",
"490 1600 LINE",
"168 1163 LINE",
"168 0 LINE"
);
}
);
userData = {
com.schriftgestaltung.Glyphs.lastChange = "2019-04-28 11:53:33 +0000";
com.typemytype.robofont.pointLabels = {
03XIRquU5H = (
rightside,
crossbar,
shiftstem,
rightside,
rightside,
shiftdown,
rightside,
rightside,
rightside,
rightside,
rightside,
rightside,
rightside,
rightside,
rightside,
rightside,
rightside,
rightside,
rightside,
rightside,
rightside,
rightside,
rightside,
rightside,
crossbar,
rightside,
rightside,
rightside,
rightside,
rightside,
rightside,
rightside,
rightside,
rightside,
rightside,
rightside,
rightside,
rightside,
rightside,
rightside,
rightside,
rightside,
rightside,
rightside,
rightside,
crossbar,
rightside,
rightside,
shiftdown,
rightside,
rightside,
rightside,
rightside,
rightside,
rightside,
rightside,
rightside,
rightside,
rightside,
rightside,
rightside,
rightside,
rightside,
rightside,
rightside,
rightside,
rightside,
crossbar,
rightside,
rightside,
rightside,
rightside,
rightside,
rightside,
rightside,
rightside,
rightside,
rightside,
rightside,
rightside,
rightside,
rightside,
rightside,
rightside,
rightside,
rightside,
rightside,
leftside,
leftside,
leftside,
rightside,
crossbar,
rightside,
rightside,
shiftdown,
rightside,
rightside,
rightside,
rightside,
rightside,
rightside,
rightside,
rightside,
rightside,
rightside,
rightside,
rightside,
rightside,
rightside,
rightside,
rightside,
rightside,
rightside,
crossbar,
rightside,
rightside,
rightside,
rightside,
rightside,
rightside,
rightside,
rightside,
rightside,
rightside,
rightside,
rightside,
rightside,
rightside,
rightside,
rightside,
rightside,
rightside,
rightside
);
0C3ytxLmQy = (
rightside,
rightside,
rightside,
rightside,
rightside,
rightside,
rightside,
rightside
);
3nCTj46eZY = (
rightside,
crossbar,
rightside,
rightside,
shiftdown,
rightside,
rightside,
rightside,
rightside,
rightside,
rightside,
rightside,
rightside,
rightside,
rightside,
rightside,
rightside,
rightside,
rightside,
rightside,
rightside,
rightside,
rightside,
crossbar,
rightside,
rightside,
rightside,
rightside,
rightside,
rightside,
rightside,
rightside,
rightside,
rightside,
rightside,
rightside,
rightside,
rightside,
rightside,
rightside,
rightside,
rightside,
rightside
);
8B2JVN8ZLJ = (
rightside,
rightside,
rightside,
rightside,
rightside,
rightside,
rightside,
rightside
);
8rex52NyWa = (
rightside,
crossbar,
rightside,
rightside,
rightside,
rightside,
rightside,
rightside,
rightside,
rightside,
rightside,
rightside,
rightside,
rightside,
rightside,
rightside,
rightside,
rightside,
rightside,
rightside,
rightside
);
BK8t8NwvTJ = (
rightside,
crossbar,
shiftstem,
rightside,
rightside,
shiftdown,
rightside,
rightside,
rightside,
rightside,
rightside,
rightside,
rightside,
rightside,
rightside,
rightside,
rightside,
rightside,
rightside,
rightside,
rightside,
rightside,
rightside,
rightside,
crossbar,
rightside,
rightside,
rightside,
rightside,
rightside,
rightside,
rightside,
rightside,
rightside,
rightside,
rightside,
rightside,
rightside,
rightside,
rightside,
rightside,
rightside,
rightside,
rightside,
rightside,
crossbar,
rightside,
rightside,
shiftdown,
rightside,
rightside,
rightside,
rightside,
rightside,
rightside,
rightside,
rightside,
rightside,
rightside,
rightside,
rightside,
rightside,
rightside,
rightside,
rightside,
rightside,
rightside,
crossbar,
rightside,
rightside,
rightside,
rightside,
rightside,
rightside,
rightside,
rightside,
rightside,
rightside,
rightside,
rightside,
rightside,
rightside,
rightside,
rightside,
rightside,
rightside,
rightside,
leftside,
leftside,
leftside,
rightside,
crossbar,
rightside,
rightside,
shiftdown,
rightside,
rightside,
rightside,
rightside,
rightside,
rightside,
rightside,
rightside,
rightside,
rightside,
rightside,
rightside,
rightside,
rightside,
rightside,
rightside,
rightside,
rightside,
crossbar,
rightside,
rightside,
rightside,
rightside,
rightside,
rightside,
rightside,
rightside,
rightside,
rightside,
rightside,
rightside,
rightside,
rightside,
rightside,
rightside,
rightside,
rightside,
rightside
);
CxPWfAz72K = (
rightside,
crossbar,
rightside,
rightside,
shiftdown,
rightside,
rightside,
rightside,
rightside,
rightside,
rightside,
rightside,
rightside,
rightside,
rightside,
rightside,
rightside,
rightside,
rightside,
rightside,
rightside,
rightside,
rightside,
crossbar,
rightside,
rightside,
rightside,
rightside,
rightside,
rightside,
rightside,
rightside,
rightside,
rightside,
rightside,
rightside,
rightside,
rightside,
rightside,
rightside,
rightside,
rightside,
rightside
);
DkNGLrNVA4 = (
rightside,
crossbar,
rightside,
rightside,
rightside,
rightside,
rightside,
rightside,
rightside,
rightside,
rightside,
rightside,
rightside,
rightside,
rightside,
rightside,
rightside,
rightside,
rightside,
rightside,
rightside
);
HNKsGz9B03 = (
rightside,
crossbar,
rightside,
rightside,
shiftdown,
rightside,
rightside,
rightside,
rightside,
rightside,
rightside,
rightside,
rightside,
rightside,
rightside,
rightside,
rightside,
rightside,
rightside,
rightside,
rightside,
rightside,
rightside,
crossbar,
rightside,
rightside,
rightside,
rightside,
rightside,
rightside,
rightside,
rightside,
rightside,
rightside,
rightside,
rightside,
rightside,
rightside,
rightside,
rightside,
rightside,
rightside,
rightside
);
Mtb7ldvxRR = (
rightside,
rightside,
rightside,
rightside,
rightside,
rightside,
rightside,
rightside
);
PhwuN5iOza = (
rightside,
crossbar,
rightside,
rightside,
shiftdown,
rightside,
rightside,
rightside,
rightside,
rightside,
rightside,
rightside,
rightside,
rightside,
rightside,
rightside,
rightside,
rightside,
rightside,
rightside,
rightside,
rightside,
rightside,
crossbar,
rightside,
rightside,
rightside,
rightside,
rightside,
rightside,
rightside,
rightside,
rightside,
rightside,
rightside,
rightside,
rightside,
rightside,
rightside,
rightside,
rightside,
rightside,
rightside
);
gruPC0rm4E = (
rightside,
crossbar,
shiftstem,
rightside,
rightside,
shiftdown,
rightside,
rightside,
rightside,
rightside,
rightside,
rightside,
rightside,
rightside,
rightside,
rightside,
rightside,
rightside,
rightside,
rightside,
rightside,
rightside,
rightside,
rightside,
crossbar,
rightside,
rightside,
rightside,
rightside,
rightside,
rightside,
rightside,
rightside,
rightside,
rightside,
rightside,
rightside,
rightside,
rightside,
rightside,
rightside,
rightside,
rightside,
rightside,
rightside,
crossbar,
rightside,
rightside,
shiftdown,
rightside,
rightside,
rightside,
rightside,
rightside,
rightside,
rightside,
rightside,
rightside,
rightside,
rightside,
rightside,
rightside,
rightside,
rightside,
rightside,
rightside,
rightside,
crossbar,
rightside,
rightside,
rightside,
rightside,
rightside,
rightside,
rightside,
rightside,
rightside,
rightside,
rightside,
rightside,
rightside,
rightside,
rightside,
rightside,
rightside,
rightside,
rightside,
leftside,
leftside,
leftside,
rightside,
crossbar,
rightside,
rightside,
shiftdown,
rightside,
rightside,
rightside,
rightside,
rightside,
rightside,
rightside,
rightside,
rightside,
rightside,
rightside,
rightside,
rightside,
rightside,
rightside,
rightside,
rightside,
rightside,
crossbar,
rightside,
rightside,
rightside,
rightside,
rightside,
rightside,
rightside,
rightside,
rightside,
rightside,
rightside,
rightside,
rightside,
rightside,
rightside,
rightside,
rightside,
rightside,
rightside
);
gyWZd1V7bg = (
rightside,
rightside,
rightside,
rightside,
rightside,
rightside,
rightside,
rightside
);
oP4AYTo8BD = (
rightside,
rightside,
rightside,
rightside,
rightside,
rightside,
rightside,
rightside
);
p5qGxSYyHQ = (
rightside,
crossbar,
shiftstem,
rightside,
rightside,
shiftdown,
rightside,
rightside,
rightside,
rightside,
rightside,
rightside,
rightside,
rightside,
rightside,
rightside,
rightside,
rightside,
rightside,
rightside,
rightside,
rightside,
rightside,
rightside,
crossbar,
rightside,
rightside,
rightside,
rightside,
rightside,
rightside,
rightside,
rightside,
rightside,
rightside,
rightside,
rightside,
rightside,
rightside,
rightside,
rightside,
rightside,
rightside,
rightside,
rightside,
crossbar,
rightside,
rightside,
shiftdown,
rightside,
rightside,
rightside,
rightside,
rightside,
rightside,
rightside,
rightside,
rightside,
rightside,
rightside,
rightside,
rightside,
rightside,
rightside,
rightside,
rightside,
rightside,
crossbar,
rightside,
rightside,
rightside,
rightside,
rightside,
rightside,
rightside,
rightside,
rightside,
rightside,
rightside,
rightside,
rightside,
rightside,
rightside,
rightside,
rightside,
rightside,
rightside,
leftside,
leftside,
leftside,
rightside,
crossbar,
rightside,
rightside,
shiftdown,
rightside,
rightside,
rightside,
rightside,
rightside,
rightside,
rightside,
rightside,
rightside,
rightside,
rightside,
rightside,
rightside,
rightside,
rightside,
rightside,
rightside,
rightside,
crossbar,
rightside,
rightside,
rightside,
rightside,
rightside,
rightside,
rightside,
rightside,
rightside,
rightside,
rightside,
rightside,
rightside,
rightside,
rightside,
rightside,
rightside,
rightside,
rightside
);
q5MpLm6pYB = (
rightside,
crossbar,
shiftstem,
rightside,
rightside,
shiftdown,
rightside,
rightside,
rightside,
rightside,
rightside,
rightside,
rightside,
rightside,
rightside,
rightside,
rightside,
rightside,
rightside,
rightside,
rightside,
rightside,
rightside,
rightside,
crossbar,
rightside,
rightside,
rightside,
rightside,
rightside,
rightside,
rightside,
rightside,
rightside,
rightside,
rightside,
rightside,
rightside,
rightside,
rightside,
rightside,
rightside,
rightside,
rightside,
rightside,
crossbar,
rightside,
rightside,
shiftdown,
rightside,
rightside,
rightside,
rightside,
rightside,
rightside,
rightside,
rightside,
rightside,
rightside,
rightside,
rightside,
rightside,
rightside,
rightside,
rightside,
rightside,
rightside,
crossbar,
rightside,
rightside,
rightside,
rightside,
rightside,
rightside,
rightside,
rightside,
rightside,
rightside,
rightside,
rightside,
rightside,
rightside,
rightside,
rightside,
rightside,
rightside,
rightside,
leftside,
leftside,
leftside,
rightside,
crossbar,
rightside,
rightside,
shiftdown,
rightside,
rightside,
rightside,
rightside,
rightside,
rightside,
rightside,
rightside,
rightside,
rightside,
rightside,
rightside,
rightside,
rightside,
rightside,
rightside,
rightside,
rightside,
crossbar,
rightside,
rightside,
rightside,
rightside,
rightside,
rightside,
rightside,
rightside,
rightside,
rightside,
rightside,
rightside,
rightside,
rightside,
rightside,
rightside,
rightside,
rightside,
rightside
);
sayqGOMtzs = (
rightside,
crossbar,
shiftstem,
rightside,
rightside,
shiftdown,
rightside,
rightside,
rightside,
rightside,
rightside,
rightside,
rightside,
rightside,
rightside,
rightside,
rightside,
rightside,
rightside,
rightside,
rightside,
rightside,
rightside,
rightside,
crossbar,
rightside,
rightside,
rightside,
rightside,
rightside,
rightside,
rightside,
rightside,
rightside,
rightside,
rightside,
rightside,
rightside,
rightside,
rightside,
rightside,
rightside,
rightside,
rightside,
rightside,
crossbar,
rightside,
rightside,
shiftdown,
rightside,
rightside,
rightside,
rightside,
rightside,
rightside,
rightside,
rightside,
rightside,
rightside,
rightside,
rightside,
rightside,
rightside,
rightside,
rightside,
rightside,
rightside,
crossbar,
rightside,
rightside,
rightside,
rightside,
rightside,
rightside,
rightside,
rightside,
rightside,
rightside,
rightside,
rightside,
rightside,
rightside,
rightside,
rightside,
rightside,
rightside,
rightside,
leftside,
leftside,
leftside,
rightside,
crossbar,
rightside,
rightside,
shiftdown,
rightside,
rightside,
rightside,
rightside,
rightside,
rightside,
rightside,
rightside,
rightside,
rightside,
rightside,
rightside,
rightside,
rightside,
rightside,
rightside,
rightside,
rightside,
crossbar,
rightside,
rightside,
rightside,
rightside,
rightside,
rightside,
rightside,
rightside,
rightside,
rightside,
rightside,
rightside,
rightside,
rightside,
rightside,
rightside,
rightside,
rightside,
rightside
);
};
};
width = 2760;
}
);
unicode = 0047;
},
{
glyphname = H;
lastChange = "2020-09-22 13:03:52 +0000";
layers = (
{
layerId = "1577B97C-DCC5-4AA4-842F-E9BB22E99E3C";
paths = (
{
closed = 1;
nodes = (
"194 0 LINE",
"194 726 LINE",
"275 726 LINE",
"275 0 LINE",
"427 0 LINE",
"427 1600 LINE",
"275 1600 LINE",
"275 874 LINE",
"194 874 LINE",
"194 1600 LINE",
"42 1600 LINE",
"42 0 LINE"
);
}
);
userData = {
com.schriftgestaltung.Glyphs.lastChange = "2019-04-28 05:35:59 +0000";
com.typemytype.robofont.pointLabels = {
7JgTtdb0jg = (
LEFTSIDEINSIDE,
LEFTSIDEINSIDE,
RIGHTSTEM,
RIGHTSTEM,
CROSSBAR,
CROSSBARBOTTOM,
RIGHTSIDEINSIDE,
RIGHTSTEM,
RIGHTSTEM,
RIGHTSTEM,
RIGHTSTEM,
RIGHTSIDEINSIDE,
RIGHTSTEM,
RIGHTSTEM,
LEFTSIDEINSIDE,
LEFTSIDEINSIDE,
LEFTSIDEINSIDE,
RIGHTSTEM,
RIGHTSTEM,
CROSSBAR,
RIGHTSIDEINSIDE,
RIGHTSTEM,
RIGHTSTEM,
RIGHTSTEM,
RIGHTSTEM,
RIGHTSIDEINSIDE,
RIGHTSTEM,
RIGHTSTEM,
LEFTSIDEINSIDE
);
8OglXgblhr = (
RIGHTSTEM,
RIGHTSTEM,
RIGHTSIDEOUTSIDE
);
MTAeavIVWY = (
LEFTSIDEINSIDE,
LEFTSIDEINSIDE,
RIGHTSTEM,
RIGHTSTEM,
CROSSBARTOP,
CROSSBAR,
RIGHTSIDEINSIDE,
RIGHTSTEM,
RIGHTSTEM,
RIGHTSTEM,
RIGHTSTEM,
RIGHTSIDEINSIDE,
RIGHTSTEM,
RIGHTSTEM,
LEFTSIDEINSIDE,
LEFTSIDEINSIDE,
LEFTSIDEINSIDE,
RIGHTSTEM,
RIGHTSTEM,
CROSSBAR,
RIGHTSIDEINSIDE,
RIGHTSTEM,
RIGHTSTEM,
RIGHTSTEM,
RIGHTSTEM,
RIGHTSIDEINSIDE,
RIGHTSTEM,
RIGHTSTEM,
LEFTSIDEINSIDE
);
QjywsYY2yB = (
LEFTSIDEINSIDE,
LEFTSIDEINSIDE,
RIGHTSTEM,
RIGHTSTEM,
CROSSBAR,
CROSSBARBOTTOM,
RIGHTSIDEINSIDE,
RIGHTSTEM,
RIGHTSTEM,
RIGHTSTEM,
RIGHTSTEM,
RIGHTSIDEINSIDE,
RIGHTSTEM,
RIGHTSTEM,
LEFTSIDEINSIDE,
LEFTSIDEINSIDE,
LEFTSIDEINSIDE,
RIGHTSTEM,
RIGHTSTEM,
CROSSBAR,
RIGHTSIDEINSIDE,
RIGHTSTEM,
RIGHTSTEM,
RIGHTSTEM,
RIGHTSTEM,
RIGHTSIDEINSIDE,
RIGHTSTEM,
RIGHTSTEM,
LEFTSIDEINSIDE
);
UPaHY3UudR = (
LEFTSIDEINSIDE
);
WUaPOcaxKT = (
LEFTSIDEINSIDE,
LEFTSIDEINSIDE
);
ZnCDQVdtyD = (
LEFTSIDEOUTSIDE
);
db0bPhBdaU = (
RIGHTSTEM,
RIGHTSTEM,
RIGHTSIDEINSIDE,
RIGHTSTEM,
RIGHTSTEM
);
lggLiivmLt = (
LEFTSIDEINSIDE,
LEFTSIDEINSIDE,
RIGHTSTEM,
RIGHTSTEM,
CROSSBARTOP,
CROSSBAR,
RIGHTSIDEINSIDE,
RIGHTSTEM,
RIGHTSTEM,
RIGHTSTEM,
RIGHTSTEM,
RIGHTSIDEINSIDE,
RIGHTSTEM,
RIGHTSTEM,
LEFTSIDEINSIDE,
LEFTSIDEINSIDE,
LEFTSIDEINSIDE,
RIGHTSTEM,
RIGHTSTEM,
CROSSBAR,
RIGHTSIDEINSIDE,
RIGHTSTEM,
RIGHTSTEM,
RIGHTSTEM,
RIGHTSTEM,
RIGHTSIDEINSIDE,
RIGHTSTEM,
RIGHTSTEM,
LEFTSIDEINSIDE
);
njzlIRBsoY = (
RIGHTSTEM,
RIGHTSTEM,
RIGHTSIDEINSIDE,
RIGHTSTEM,
RIGHTSTEM
);
oOtn61SmRY = (
RIGHTSTEM,
RIGHTSTEM,
RIGHTSIDEOUTSIDE
);
uqAJBjDIOT = (
LEFTSIDEOUTSIDE
);
};
};
width = 469;
},
{
layerId = "5E27AD2D-EA42-4F80-9479-E0FC49C091FF";
paths = (
{
closed = 1;
nodes = (
"655 0 LINE",
"655 651 LINE",
"2177 651 LINE",
"2177 0 LINE",
"2621 0 LINE",
"2621 1600 LINE",
"2177 1600 LINE",
"2177 997 LINE",
"655 997 LINE",
"655 1600 LINE",
"212 1600 LINE",
"212 0 LINE"
);
}
);
userData = {
com.schriftgestaltung.Glyphs.lastChange = "2019-04-28 05:35:59 +0000";
com.typemytype.robofont.pointLabels = {
};
};
width = 2833;
}
);
unicode = 0048;
},
{
glyphname = I;
lastChange = "2020-09-22 13:03:52 +0000";
layers = (
{
layerId = "1577B97C-DCC5-4AA4-842F-E9BB22E99E3C";
paths = (
{
closed = 1;
nodes = (
"327 0 LINE",
"328 149 LINE",
"245 149 LINE",
"245 1451 LINE",
"328 1451 LINE",
"328 1600 LINE",
"10 1600 LINE",
"10 1451 LINE",
"93 1451 LINE",
"93 149 LINE",
"10 149 LINE",
"11 0 LINE"
);
}
);
userData = {
com.schriftgestaltung.Glyphs.lastChange = "2019-04-28 05:35:59 +0000";
com.typemytype.robofont.pointLabels = {
1Ty0JfMohF = (
INSIDETOP,
INSIDETOP,
RIGHTSTEM,
RIGHTSIDEOUTSIDE,
RIGHTSIDEOUTSIDE,
RIGHTSIDEOUTSIDE,
LEFTSIDEOUTSIDE,
LEFTSIDEOUTSIDE,
INSIDEBOTTOM,
RIGHTSIDEOUTSIDE,
RIGHTSIDEOUTSIDE,
LEFTSIDEOUTSIDE,
LEFTSIDEOUTSIDE,
RIGHTSIDEOUTSIDE,
RIGHTSIDEOUTSIDE,
LEFTSIDEOUTSIDE,
LEFTSIDEOUTSIDE,
RIGHTSIDEOUTSIDE,
RIGHTSIDEOUTSIDE,
LEFTSIDEOUTSIDE,
LEFTSIDEOUTSIDE,
INSIDETOP,
INSIDETOP,
RIGHTSIDEOUTSIDE,
RIGHTSIDEOUTSIDE
);
1m237t4hyw = (
RIGHTSIDEOUTSIDE,
RIGHTSIDEOUTSIDE,
LEFTSIDEOUTSIDE,
LEFTSIDEOUTSIDE,
INSIDEBOTTOM,
RIGHTSIDEOUTSIDE,
RIGHTSIDEOUTSIDE,
LEFTSIDEOUTSIDE,
LEFTSIDEOUTSIDE,
RIGHTSIDEOUTSIDE,
RIGHTSIDEOUTSIDE,
LEFTSIDEOUTSIDE,
LEFTSIDEOUTSIDE,
RIGHTSIDEOUTSIDE,
RIGHTSIDEOUTSIDE,
LEFTSIDEOUTSIDE,
LEFTSIDEOUTSIDE
);
9RiQmr3G8U = (
INSIDETOP,
INSIDETOP,
RIGHTSTEM,
RIGHTSIDEOUTSIDE,
RIGHTSIDEOUTSIDE,
RIGHTSIDEOUTSIDE,
LEFTSIDEOUTSIDE,
LEFTSIDEOUTSIDE,
INSIDEBOTTOM,
RIGHTSIDEOUTSIDE,
RIGHTSIDEOUTSIDE,
LEFTSIDEOUTSIDE,
LEFTSIDEOUTSIDE,
RIGHTSIDEOUTSIDE,
RIGHTSIDEOUTSIDE,
LEFTSIDEOUTSIDE,
LEFTSIDEOUTSIDE,
RIGHTSIDEOUTSIDE,
RIGHTSIDEOUTSIDE,
LEFTSIDEOUTSIDE,
LEFTSIDEOUTSIDE,
INSIDETOP,
INSIDETOP,
RIGHTSIDEOUTSIDE,
RIGHTSIDEOUTSIDE
);
G11nOl1a96 = (
ri
);
LJaww9hqQY = (
leftside
);
O5ZoWKLuW7 = (
INSIDETOP,
RIGHTSTEM,
INSIDETOP,
LEFTSIDEOUTSIDE,
LEFTSIDEOUTSIDE,
INSIDETOP,
INSIDETOP,
LEFTSIDEOUTSIDE,
RIGHTSIDEOUTSIDE,
RIGHTSIDEOUTSIDE,
LEFTSIDEOUTSIDE,
LEFTSIDEOUTSIDE,
INSIDEBOTTOM,
RIGHTSIDEOUTSIDE,
RIGHTSIDEOUTSIDE,
LEFTSIDEOUTSIDE,
LEFTSIDEOUTSIDE,
RIGHTSIDEOUTSIDE,
RIGHTSIDEOUTSIDE,
LEFTSIDEOUTSIDE,
LEFTSIDEOUTSIDE,
RIGHTSIDEOUTSIDE,
RIGHTSIDEOUTSIDE,
LEFTSIDEOUTSIDE,
LEFTSIDEOUTSIDE
);
PL3Zqx19x8 = (
INSIDETOP,
RIGHTSTEM,
INSIDETOP,
LEFTSIDEOUTSIDE,
LEFTSIDEOUTSIDE,
INSIDETOP,
INSIDETOP,
LEFTSIDEOUTSIDE,
RIGHTSIDEOUTSIDE,
RIGHTSIDEOUTSIDE,
LEFTSIDEOUTSIDE,
LEFTSIDEOUTSIDE,
INSIDEBOTTOM,
RIGHTSIDEOUTSIDE,
RIGHTSIDEOUTSIDE,
LEFTSIDEOUTSIDE,
LEFTSIDEOUTSIDE,
RIGHTSIDEOUTSIDE,
RIGHTSIDEOUTSIDE,
LEFTSIDEOUTSIDE,
LEFTSIDEOUTSIDE,
RIGHTSIDEOUTSIDE,
RIGHTSIDEOUTSIDE,
LEFTSIDEOUTSIDE,
LEFTSIDEOUTSIDE
);
S4rO5KuHiL = (
RIGHTSIDEOUTSIDE,
RIGHTSIDEOUTSIDE,
LEFTSIDEOUTSIDE,
LEFTSIDEOUTSIDE,
INSIDEBOTTOM,
RIGHTSIDEOUTSIDE,
RIGHTSIDEOUTSIDE,
LEFTSIDEOUTSIDE,
LEFTSIDEOUTSIDE,
RIGHTSIDEOUTSIDE,
RIGHTSIDEOUTSIDE,
LEFTSIDEOUTSIDE,
LEFTSIDEOUTSIDE,
RIGHTSIDEOUTSIDE,
RIGHTSIDEOUTSIDE,
LEFTSIDEOUTSIDE,
LEFTSIDEOUTSIDE
);
aCoxe3fSmw = (
INSIDETOP,
RIGHTSTEM,
INSIDETOP,
LEFTSIDEOUTSIDE,
LEFTSIDEOUTSIDE,
INSIDETOP,
INSIDETOP,
LEFTSIDEOUTSIDE,
RIGHTSIDEOUTSIDE,
RIGHTSIDEOUTSIDE,
LEFTSIDEOUTSIDE,
LEFTSIDEOUTSIDE,
INSIDEBOTTOM,
RIGHTSIDEOUTSIDE,
RIGHTSIDEOUTSIDE,
LEFTSIDEOUTSIDE,
LEFTSIDEOUTSIDE,
RIGHTSIDEOUTSIDE,
RIGHTSIDEOUTSIDE,
LEFTSIDEOUTSIDE,
LEFTSIDEOUTSIDE,
RIGHTSIDEOUTSIDE,
RIGHTSIDEOUTSIDE,
LEFTSIDEOUTSIDE,
LEFTSIDEOUTSIDE
);
jRE4QRN7r7 = (
ri
);
jZjJqwR81q = (
INSIDETOP,
INSIDETOP,
RIGHTSTEM,
RIGHTSIDEOUTSIDE,
RIGHTSIDEOUTSIDE,
RIGHTSIDEOUTSIDE,
LEFTSIDEOUTSIDE,
LEFTSIDEOUTSIDE,
INSIDEBOTTOM,
RIGHTSIDEOUTSIDE,
RIGHTSIDEOUTSIDE,
LEFTSIDEOUTSIDE,
LEFTSIDEOUTSIDE,
RIGHTSIDEOUTSIDE,
RIGHTSIDEOUTSIDE,
LEFTSIDEOUTSIDE,
LEFTSIDEOUTSIDE,
RIGHTSIDEOUTSIDE,
RIGHTSIDEOUTSIDE,
LEFTSIDEOUTSIDE,
LEFTSIDEOUTSIDE,
INSIDETOP,
INSIDETOP,
RIGHTSIDEOUTSIDE,
RIGHTSIDEOUTSIDE
);
quzaPWszgr = (
INSIDETOP,
INSIDETOP,
RIGHTSTEM,
RIGHTSIDEOUTSIDE,
RIGHTSIDEOUTSIDE,
RIGHTSIDEOUTSIDE,
LEFTSIDEOUTSIDE,
LEFTSIDEOUTSIDE,
INSIDEBOTTOM,
RIGHTSIDEOUTSIDE,
RIGHTSIDEOUTSIDE,
LEFTSIDEOUTSIDE,
LEFTSIDEOUTSIDE,
RIGHTSIDEOUTSIDE,
RIGHTSIDEOUTSIDE,
LEFTSIDEOUTSIDE,
LEFTSIDEOUTSIDE,
RIGHTSIDEOUTSIDE,
RIGHTSIDEOUTSIDE,
LEFTSIDEOUTSIDE,
LEFTSIDEOUTSIDE,
INSIDETOP,
INSIDETOP,
RIGHTSIDEOUTSIDE,
RIGHTSIDEOUTSIDE
);
rhZOX8XKiW = (
leftside
);
u8XZE2STzL = (
INSIDETOP,
RIGHTSTEM,
INSIDETOP,
LEFTSIDEOUTSIDE,
LEFTSIDEOUTSIDE,
INSIDETOP,
INSIDETOP,
LEFTSIDEOUTSIDE,
RIGHTSIDEOUTSIDE,
RIGHTSIDEOUTSIDE,
LEFTSIDEOUTSIDE,
LEFTSIDEOUTSIDE,
INSIDEBOTTOM,
RIGHTSIDEOUTSIDE,
RIGHTSIDEOUTSIDE,
LEFTSIDEOUTSIDE,
LEFTSIDEOUTSIDE,
RIGHTSIDEOUTSIDE,
RIGHTSIDEOUTSIDE,
LEFTSIDEOUTSIDE,
LEFTSIDEOUTSIDE,
RIGHTSIDEOUTSIDE,
RIGHTSIDEOUTSIDE,
LEFTSIDEOUTSIDE,
LEFTSIDEOUTSIDE
);
v7N4yg5XNk = (
INSIDETOP,
INSIDETOP,
RIGHTSIDEOUTSIDE
);
zfocDyDTCM = (
INSIDETOP,
INSIDETOP,
LEFTSIDEOUTSIDE
);
};
};
width = 338;
},
{
layerId = "5E27AD2D-EA42-4F80-9479-E0FC49C091FF";
paths = (
{
closed = 1;
nodes = (
"2067 0 LINE",
"2068 332 LINE",
"1343 332 LINE",
"1343 1268 LINE",
"2068 1268 LINE",
"2068 1600 LINE",
"174 1600 LINE",
"174 1268 LINE",
"899 1268 LINE",
"899 332 LINE",
"174 332 LINE",
"175 0 LINE"
);
}
);
userData = {
com.schriftgestaltung.Glyphs.lastChange = "2019-04-28 05:35:59 +0000";
com.typemytype.robofont.pointLabels = {
1Ty0JfMohF = (
INSIDETOP,
INSIDETOP,
RIGHTSTEM,
RIGHTSIDEOUTSIDE,
RIGHTSIDEOUTSIDE,
RIGHTSIDEOUTSIDE,
LEFTSIDEOUTSIDE,
LEFTSIDEOUTSIDE,
INSIDEBOTTOM,
RIGHTSIDEOUTSIDE,
RIGHTSIDEOUTSIDE,
LEFTSIDEOUTSIDE,
LEFTSIDEOUTSIDE,
RIGHTSIDEOUTSIDE,
RIGHTSIDEOUTSIDE,
LEFTSIDEOUTSIDE,
LEFTSIDEOUTSIDE,
RIGHTSIDEOUTSIDE,
RIGHTSIDEOUTSIDE,
LEFTSIDEOUTSIDE,
LEFTSIDEOUTSIDE,
INSIDETOP,
INSIDETOP,
RIGHTSIDEOUTSIDE,
RIGHTSIDEOUTSIDE
);
1m237t4hyw = (
RIGHTSIDEOUTSIDE,
RIGHTSIDEOUTSIDE,
LEFTSIDEOUTSIDE,
LEFTSIDEOUTSIDE,
INSIDEBOTTOM,
RIGHTSIDEOUTSIDE,
RIGHTSIDEOUTSIDE,
LEFTSIDEOUTSIDE,
LEFTSIDEOUTSIDE,
RIGHTSIDEOUTSIDE,
RIGHTSIDEOUTSIDE,
LEFTSIDEOUTSIDE,
LEFTSIDEOUTSIDE,
RIGHTSIDEOUTSIDE,
RIGHTSIDEOUTSIDE,
LEFTSIDEOUTSIDE,
LEFTSIDEOUTSIDE
);
9RiQmr3G8U = (
INSIDETOP,
INSIDETOP,
RIGHTSTEM,
RIGHTSIDEOUTSIDE,
RIGHTSIDEOUTSIDE,
RIGHTSIDEOUTSIDE,
LEFTSIDEOUTSIDE,
LEFTSIDEOUTSIDE,
INSIDEBOTTOM,
RIGHTSIDEOUTSIDE,
RIGHTSIDEOUTSIDE,
LEFTSIDEOUTSIDE,
LEFTSIDEOUTSIDE,
RIGHTSIDEOUTSIDE,
RIGHTSIDEOUTSIDE,
LEFTSIDEOUTSIDE,
LEFTSIDEOUTSIDE,
RIGHTSIDEOUTSIDE,
RIGHTSIDEOUTSIDE,
LEFTSIDEOUTSIDE,
LEFTSIDEOUTSIDE,
INSIDETOP,
INSIDETOP,
RIGHTSIDEOUTSIDE,
RIGHTSIDEOUTSIDE
);
G11nOl1a96 = (
ri
);
LJaww9hqQY = (
leftside
);
O5ZoWKLuW7 = (
INSIDETOP,
RIGHTSTEM,
INSIDETOP,
LEFTSIDEOUTSIDE,
LEFTSIDEOUTSIDE,
INSIDETOP,
INSIDETOP,
LEFTSIDEOUTSIDE,
RIGHTSIDEOUTSIDE,
RIGHTSIDEOUTSIDE,
LEFTSIDEOUTSIDE,
LEFTSIDEOUTSIDE,
INSIDEBOTTOM,
RIGHTSIDEOUTSIDE,
RIGHTSIDEOUTSIDE,
LEFTSIDEOUTSIDE,
LEFTSIDEOUTSIDE,
RIGHTSIDEOUTSIDE,
RIGHTSIDEOUTSIDE,
LEFTSIDEOUTSIDE,
LEFTSIDEOUTSIDE,
RIGHTSIDEOUTSIDE,
RIGHTSIDEOUTSIDE,
LEFTSIDEOUTSIDE,
LEFTSIDEOUTSIDE
);
PL3Zqx19x8 = (
INSIDETOP,
RIGHTSTEM,
INSIDETOP,
LEFTSIDEOUTSIDE,
LEFTSIDEOUTSIDE,
INSIDETOP,
INSIDETOP,
LEFTSIDEOUTSIDE,
RIGHTSIDEOUTSIDE,
RIGHTSIDEOUTSIDE,
LEFTSIDEOUTSIDE,
LEFTSIDEOUTSIDE,
INSIDEBOTTOM,
RIGHTSIDEOUTSIDE,
RIGHTSIDEOUTSIDE,
LEFTSIDEOUTSIDE,
LEFTSIDEOUTSIDE,
RIGHTSIDEOUTSIDE,
RIGHTSIDEOUTSIDE,
LEFTSIDEOUTSIDE,
LEFTSIDEOUTSIDE,
RIGHTSIDEOUTSIDE,
RIGHTSIDEOUTSIDE,
LEFTSIDEOUTSIDE,
LEFTSIDEOUTSIDE
);
S4rO5KuHiL = (
RIGHTSIDEOUTSIDE,
RIGHTSIDEOUTSIDE,
LEFTSIDEOUTSIDE,
LEFTSIDEOUTSIDE,
INSIDEBOTTOM,
RIGHTSIDEOUTSIDE,
RIGHTSIDEOUTSIDE,
LEFTSIDEOUTSIDE,
LEFTSIDEOUTSIDE,
RIGHTSIDEOUTSIDE,
RIGHTSIDEOUTSIDE,
LEFTSIDEOUTSIDE,
LEFTSIDEOUTSIDE,
RIGHTSIDEOUTSIDE,
RIGHTSIDEOUTSIDE,
LEFTSIDEOUTSIDE,
LEFTSIDEOUTSIDE
);
aCoxe3fSmw = (
INSIDETOP,
RIGHTSTEM,
INSIDETOP,
LEFTSIDEOUTSIDE,
LEFTSIDEOUTSIDE,
INSIDETOP,
INSIDETOP,
LEFTSIDEOUTSIDE,
RIGHTSIDEOUTSIDE,
RIGHTSIDEOUTSIDE,
LEFTSIDEOUTSIDE,
LEFTSIDEOUTSIDE,
INSIDEBOTTOM,
RIGHTSIDEOUTSIDE,
RIGHTSIDEOUTSIDE,
LEFTSIDEOUTSIDE,
LEFTSIDEOUTSIDE,
RIGHTSIDEOUTSIDE,
RIGHTSIDEOUTSIDE,
LEFTSIDEOUTSIDE,
LEFTSIDEOUTSIDE,
RIGHTSIDEOUTSIDE,
RIGHTSIDEOUTSIDE,
LEFTSIDEOUTSIDE,
LEFTSIDEOUTSIDE
);
jRE4QRN7r7 = (
ri
);
jZjJqwR81q = (
INSIDETOP,
INSIDETOP,
RIGHTSTEM,
RIGHTSIDEOUTSIDE,
RIGHTSIDEOUTSIDE,
RIGHTSIDEOUTSIDE,
LEFTSIDEOUTSIDE,
LEFTSIDEOUTSIDE,
INSIDEBOTTOM,
RIGHTSIDEOUTSIDE,
RIGHTSIDEOUTSIDE,
LEFTSIDEOUTSIDE,
LEFTSIDEOUTSIDE,
RIGHTSIDEOUTSIDE,
RIGHTSIDEOUTSIDE,
LEFTSIDEOUTSIDE,
LEFTSIDEOUTSIDE,
RIGHTSIDEOUTSIDE,
RIGHTSIDEOUTSIDE,
LEFTSIDEOUTSIDE,
LEFTSIDEOUTSIDE,
INSIDETOP,
INSIDETOP,
RIGHTSIDEOUTSIDE,
RIGHTSIDEOUTSIDE
);
quzaPWszgr = (
INSIDETOP,
INSIDETOP,
RIGHTSTEM,
RIGHTSIDEOUTSIDE,
RIGHTSIDEOUTSIDE,
RIGHTSIDEOUTSIDE,
LEFTSIDEOUTSIDE,
LEFTSIDEOUTSIDE,
INSIDEBOTTOM,
RIGHTSIDEOUTSIDE,
RIGHTSIDEOUTSIDE,
LEFTSIDEOUTSIDE,
LEFTSIDEOUTSIDE,
RIGHTSIDEOUTSIDE,
RIGHTSIDEOUTSIDE,
LEFTSIDEOUTSIDE,
LEFTSIDEOUTSIDE,
RIGHTSIDEOUTSIDE,
RIGHTSIDEOUTSIDE,
LEFTSIDEOUTSIDE,
LEFTSIDEOUTSIDE,
INSIDETOP,
INSIDETOP,
RIGHTSIDEOUTSIDE,
RIGHTSIDEOUTSIDE
);
rhZOX8XKiW = (
leftside
);
u8XZE2STzL = (
INSIDETOP,
RIGHTSTEM,
INSIDETOP,
LEFTSIDEOUTSIDE,
LEFTSIDEOUTSIDE,
INSIDETOP,
INSIDETOP,
LEFTSIDEOUTSIDE,
RIGHTSIDEOUTSIDE,
RIGHTSIDEOUTSIDE,
LEFTSIDEOUTSIDE,
LEFTSIDEOUTSIDE,
INSIDEBOTTOM,
RIGHTSIDEOUTSIDE,
RIGHTSIDEOUTSIDE,
LEFTSIDEOUTSIDE,
LEFTSIDEOUTSIDE,
RIGHTSIDEOUTSIDE,
RIGHTSIDEOUTSIDE,
LEFTSIDEOUTSIDE,
LEFTSIDEOUTSIDE,
RIGHTSIDEOUTSIDE,
RIGHTSIDEOUTSIDE,
LEFTSIDEOUTSIDE,
LEFTSIDEOUTSIDE
);
v7N4yg5XNk = (
INSIDETOP,
INSIDETOP,
RIGHTSIDEOUTSIDE
);
zfocDyDTCM = (
INSIDETOP,
INSIDETOP,
LEFTSIDEOUTSIDE
);
};
};
width = 2242;
}
);
unicode = 0049;
},
{
glyphname = J;
lastChange = "2020-09-22 13:03:52 +0000";
layers = (
{
layerId = "1577B97C-DCC5-4AA4-842F-E9BB22E99E3C";
paths = (
{
closed = 1;
nodes = (
"395 0 LINE",
"395 1600 LINE",
"243 1600 LINE",
"243 149 LINE",
"181 149 LINE",
"181 699 LINE",
"29 699 LINE",
"29 0 LINE"
);
}
);
userData = {
com.schriftgestaltung.Glyphs.lastChange = "2019-04-28 12:46:30 +0000";
com.typemytype.robofont.pointLabels = {
AdYfGKx8QJ = (
LEFTSIDEOUTSIDE,
RIGHTSIDEINSIDE,
INSIDETOP
);
TbrXnCyMEi = (
LEFTSIDEOUTSIDE
);
};
};
width = 438;
},
{
layerId = "5E27AD2D-EA42-4F80-9479-E0FC49C091FF";
paths = (
{
closed = 1;
nodes = (
"2388 0 LINE",
"2388 1600 LINE",
"1944 1600 LINE",
"1944 332 LINE",
"649 332 LINE",
"649 904 LINE",
"221 904 LINE",
"221 0 LINE"
);
}
);
userData = {
com.schriftgestaltung.Glyphs.lastChange = "2019-04-28 12:46:30 +0000";
com.typemytype.robofont.pointLabels = {
AdYfGKx8QJ = (
LEFTSIDEOUTSIDE,
RIGHTSIDEINSIDE,
INSIDETOP
);
TbrXnCyMEi = (
LEFTSIDEOUTSIDE
);
};
};
width = 2652;
}
);
unicode = 004A;
},
{
glyphname = K;
lastChange = "2020-09-22 13:03:52 +0000";
layers = (
{
layerId = "1577B97C-DCC5-4AA4-842F-E9BB22E99E3C";
paths = (
{
closed = 1;
nodes = (
"195 726 LINE",
"278 726 LINE",
"278 0 LINE",
"430 0 LINE",
"430 874 LINE",
"364 874 LINE",
"453 1583 LINE",
"297 1600 LINE",
"221 874 LINE",
"195 874 LINE",
"195 1600 LINE",
"43 1600 LINE",
"43 0 LINE",
"195 0 LINE"
);
}
);
userData = {
com.schriftgestaltung.Glyphs.lastChange = "2019-04-28 05:35:59 +0000";
com.typemytype.robofont.pointLabels = {
0mqLpz5vAU = (
leftside,
rightside,
shiftdown,
rightside,
crossbar,
shiftstem,
rightside,
rightside,
crossbar,
rightside,
rightside,
crossbar,
leftside
);
8uJIZj54GB = (
rightside,
rightside,
crossbar
);
AJFybwtISS = (
leftside,
rightside,
shiftdown,
rightside,
crossbar,
shiftstem,
rightside,
rightside,
crossbar,
rightside,
rightside,
crossbar,
leftside
);
I87sAwdtGu = (
leftside,
rightside,
shiftdown,
rightside,
crossbar,
shiftstem,
rightside,
rightside,
crossbar,
rightside,
rightside,
crossbar,
leftside
);
RNULHVAYqp = (
rightside
);
UTjU3L1PPB = (
leftside,
rightside,
shiftdown,
rightside,
crossbar,
shiftstem,
rightside,
rightside,
crossbar,
rightside,
rightside,
crossbar,
leftside
);
e8AHcRxH3I = (
rightside,
rightside,
crossbar
);
eNRdyfM1oC = (
rightside
);
nN62QTbZwT = (
rightside,
shiftdown,
rightside,
crossbar,
rightside,
rightside,
crossbar
);
nj0bO2yqxJ = (
rightside,
rightside,
crossbar
);
qeJQMGx6zx = (
rightside,
rightside,
crossbar
);
tRv54mralF = (
leftside,
rightside,
shiftdown,
rightside,
crossbar,
shiftstem,
rightside,
rightside,
crossbar,
rightside,
rightside,
crossbar,
leftside
);
up9uIbzma1 = (
rightside,
rightside,
crossbar
);
xRsK7LwvCP = (
rightside,
shiftdown,
rightside,
crossbar,
rightside,
rightside,
crossbar
);
xj8qIf4v8s = (
leftside,
rightside,
shiftdown,
rightside,
crossbar,
shiftstem,
rightside,
rightside,
crossbar,
rightside,
rightside,
crossbar,
leftside
);
};
};
width = 455;
},
{
layerId = "5E27AD2D-EA42-4F80-9479-E0FC49C091FF";
paths = (
{
closed = 1;
nodes = (
"707 597 LINE",
"2173 597 LINE",
"2173 0 LINE",
"2616 0 LINE",
"2616 931 LINE",
"2211 931 LINE",
"2412 1565 LINE",
"2005 1620 LINE",
"1799 931 LINE",
"707 931 LINE",
"707 1600 LINE",
"264 1600 LINE",
"264 0 LINE",
"707 0 LINE"
);
}
);
userData = {
com.schriftgestaltung.Glyphs.lastChange = "2019-04-28 05:35:59 +0000";
com.typemytype.robofont.pointLabels = {
0mqLpz5vAU = (
leftside,
rightside,
shiftdown,
rightside,
crossbar,
shiftstem,
rightside,
rightside,
crossbar,
rightside,
rightside,
crossbar,
leftside
);
8uJIZj54GB = (
rightside,
rightside,
crossbar
);
AJFybwtISS = (
leftside,
rightside,
shiftdown,
rightside,
crossbar,
shiftstem,
rightside,
rightside,
crossbar,
rightside,
rightside,
crossbar,
leftside
);
I87sAwdtGu = (
leftside,
rightside,
shiftdown,
rightside,
crossbar,
shiftstem,
rightside,
rightside,
crossbar,
rightside,
rightside,
crossbar,
leftside
);
RNULHVAYqp = (
rightside
);
UTjU3L1PPB = (
leftside,
rightside,
shiftdown,
rightside,
crossbar,
shiftstem,
rightside,
rightside,
crossbar,
rightside,
rightside,
crossbar,
leftside
);
e8AHcRxH3I = (
rightside,
rightside,
crossbar
);
eNRdyfM1oC = (
rightside
);
nN62QTbZwT = (
rightside,
shiftdown,
rightside,
crossbar,
rightside,
rightside,
crossbar
);
nj0bO2yqxJ = (
rightside,
rightside,
crossbar
);
qeJQMGx6zx = (
rightside,
rightside,
crossbar
);
tRv54mralF = (
leftside,
rightside,
shiftdown,
rightside,
crossbar,
shiftstem,
rightside,
rightside,
crossbar,
rightside,
rightside,
crossbar,
leftside
);
up9uIbzma1 = (
rightside,
rightside,
crossbar
);
xRsK7LwvCP = (
rightside,
shiftdown,
rightside,
crossbar,
rightside,
rightside,
crossbar
);
xj8qIf4v8s = (
leftside,
rightside,
shiftdown,
rightside,
crossbar,
shiftstem,
rightside,
rightside,
crossbar,
rightside,
rightside,
crossbar,
leftside
);
};
};
width = 2793;
}
);
unicode = 004B;
},
{
glyphname = L;
lastChange = "2020-09-22 13:03:52 +0000";
layers = (
{
layerId = "1577B97C-DCC5-4AA4-842F-E9BB22E99E3C";
paths = (
{
closed = 1;
nodes = (
"43 1600 LINE",
"195 1600 LINE",
"195 149 LINE",
"257 149 LINE",
"257 692 LINE",
"409 692 LINE",
"409 0 LINE",
"43 0 LINE"
);
}
);
userData = {
com.schriftgestaltung.Glyphs.lastChange = "2019-04-28 11:50:14 +0000";
com.typemytype.robofont.pointLabels = {
82EXZEgt46 = (
RIGHTSTEM,
RIGHTSTEM,
RIGHTSIDEOUTSIDE
);
FWtbMMY8Ck = (
rightside
);
MbxRZRd8vz = (
INSIDEBOTTOM,
LEFTSIDEINSIDE,
LEFTSIDEINSIDE
);
VYRt9kHZtP = (
RIGHTSTEM,
RIGHTSTEM,
RIGHTSIDEOUTSIDE
);
XFf4mMUzYo = (
LEFTSIDEOUTSIDE
);
XkJNfQlnnt = (
LEFTSIDEOUTSIDE
);
cqpSxwFiM3 = (
RIGHTSTEM,
RIGHTSTEM,
RIGHTSIDEINSIDE,
INSIDEBOTTOM
);
lYiaKSKITt = (
INSIDEBOTTOM,
LEFTSIDEINSIDE,
LEFTSIDEINSIDE
);
scG1IXtWvJ = (
rightside
);
t7Q9RRLHt8 = (
RIGHTSTEM,
RIGHTSTEM,
RIGHTSIDEINSIDE
);
};
};
width = 438;
},
{
layerId = "5E27AD2D-EA42-4F80-9479-E0FC49C091FF";
paths = (
{
closed = 1;
nodes = (
"212 1600 LINE",
"655 1600 LINE",
"655 332 LINE",
"1884 332 LINE",
"1884 900 LINE",
"2311 900 LINE",
"2311 0 LINE",
"212 0 LINE"
);
}
);
userData = {
com.schriftgestaltung.Glyphs.lastChange = "2019-04-28 11:50:14 +0000";
com.typemytype.robofont.pointLabels = {
82EXZEgt46 = (
RIGHTSTEM,
RIGHTSTEM,
RIGHTSIDEOUTSIDE
);
FWtbMMY8Ck = (
rightside
);
MbxRZRd8vz = (
INSIDEBOTTOM,
LEFTSIDEINSIDE,
LEFTSIDEINSIDE
);
VYRt9kHZtP = (
RIGHTSTEM,
RIGHTSTEM,
RIGHTSIDEOUTSIDE
);
XFf4mMUzYo = (
LEFTSIDEOUTSIDE
);
XkJNfQlnnt = (
LEFTSIDEOUTSIDE
);
cqpSxwFiM3 = (
RIGHTSTEM,
RIGHTSTEM,
RIGHTSIDEINSIDE,
INSIDEBOTTOM
);
lYiaKSKITt = (
INSIDEBOTTOM,
LEFTSIDEINSIDE,
LEFTSIDEINSIDE
);
scG1IXtWvJ = (
rightside
);
t7Q9RRLHt8 = (
RIGHTSTEM,
RIGHTSTEM,
RIGHTSIDEINSIDE
);
};
};
width = 2480;
}
);
unicode = 004C;
},
{
glyphname = M;
lastChange = "2020-09-22 13:09:34 +0000";
layers = (
{
layerId = "1577B97C-DCC5-4AA4-842F-E9BB22E99E3C";
paths = (
{
closed = 1;
nodes = (
"175 1451 LINE",
"170 1451 LINE",
"170 0 LINE",
"43 0 LINE",
"43 1600 LINE",
"288 1600 LINE",
"341 273 LINE",
"346 273 LINE",
"401 1600 LINE",
"646 1600 LINE",
"646 0 LINE",
"518 0 LINE",
"518 1451 LINE",
"513 1451 LINE",
"447 137 LINE",
"240 137 LINE"
);
}
);
userData = {
com.schriftgestaltung.Glyphs.lastChange = "2019-04-28 05:35:59 +0000";
com.typemytype.robofont.pointLabels = {
0IVF7y8NCN = (
leftside,
leftside,
rightside,
rightside,
shiftstem,
leftside,
shiftdown,
leftside,
rightside,
rightside,
shiftstem,
leftside,
leftside,
rightside,
rightside,
shiftstem,
leftside,
leftside,
rightside,
rightside,
shiftstem
);
5TFRebmDRK = (
leftside,
leftside,
rightside,
rightside,
shiftstem
);
czpj5jP2o1 = (
leftside,
leftside,
rightside,
rightside,
shiftstem
);
hvBQuBUzS5 = (
leftside,
leftside,
rightside,
rightside,
shiftstem
);
l3jugDCgZp = (
leftside,
leftside,
rightside,
rightside,
shiftstem
);
q5rffo9NOb = (
leftside,
leftside,
rightside,
rightside,
shiftstem,
leftside,
shiftdown,
leftside,
rightside,
rightside,
shiftstem,
leftside,
leftside,
rightside,
rightside,
shiftstem,
leftside,
leftside,
rightside,
rightside,
shiftstem
);
rc1RBgs7MK = (
leftside,
leftside,
rightside,
rightside,
shiftstem
);
rfY4yi4WM7 = (
leftside,
leftside,
rightside,
rightside,
shiftstem
);
};
};
width = 689;
},
{
layerId = "5E27AD2D-EA42-4F80-9479-E0FC49C091FF";
paths = (
{
closed = 1;
nodes = (
"773 1287 LINE",
"708 1287 LINE",
"708 0 LINE",
"264 0 LINE",
"264 1600 LINE",
"1096 1600 LINE",
"1726 462 LINE",
"1918 462 LINE",
"2551 1600 LINE",
"3378 1600 LINE",
"3378 0 LINE",
"2934 0 LINE",
"2934 1287 LINE",
"2865 1287 LINE",
"2205 132 LINE",
"1434 132 LINE"
);
}
);
userData = {
com.schriftgestaltung.Glyphs.lastChange = "2019-04-28 05:35:59 +0000";
com.typemytype.robofont.pointLabels = {
0IVF7y8NCN = (
leftside,
leftside,
rightside,
rightside,
shiftstem,
leftside,
shiftdown,
leftside,
rightside,
rightside,
shiftstem,
leftside,
leftside,
rightside,
rightside,
shiftstem,
leftside,
leftside,
rightside,
rightside,
shiftstem
);
5TFRebmDRK = (
leftside,
leftside,
rightside,
rightside,
shiftstem
);
czpj5jP2o1 = (
leftside,
leftside,
rightside,
rightside,
shiftstem
);
hvBQuBUzS5 = (
leftside,
leftside,
rightside,
rightside,
shiftstem
);
l3jugDCgZp = (
leftside,
leftside,
rightside,
rightside,
shiftstem
);
q5rffo9NOb = (
leftside,
leftside,
rightside,
rightside,
shiftstem,
leftside,
shiftdown,
leftside,
rightside,
rightside,
shiftstem,
leftside,
leftside,
rightside,
rightside,
shiftstem,
leftside,
leftside,
rightside,
rightside,
shiftstem
);
rc1RBgs7MK = (
leftside,
leftside,
rightside,
rightside,
shiftstem
);
rfY4yi4WM7 = (
leftside,
leftside,
rightside,
rightside,
shiftstem
);
};
};
width = 3642;
}
);
unicode = 004D;
},
{
glyphname = N;
lastChange = "2020-09-23 03:16:10 +0000";
layers = (
{
layerId = "1577B97C-DCC5-4AA4-842F-E9BB22E99E3C";
paths = (
{
closed = 1;
nodes = (
"447 1600 LINE",
"295 1600 LINE",
"296 1178 LINE",
"320 1178 LINE",
"213 1600 LINE",
"39 1600 LINE",
"39 0 LINE",
"191 0 LINE",
"191 1371 LINE",
"200 1371 LINE",
"295 961 LINE",
"295 0 LINE",
"447 0 LINE"
);
}
);
userData = {
com.schriftgestaltung.Glyphs.lastChange = "2019-04-28 05:35:59 +0000";
com.typemytype.robofont.pointLabels = {
1omi5wQQzW = (
shiftstem
);
3Nbopwznvn = (
RIGHTSTEM
);
7wBal5jvPQ = (
shiftstem,
shiftstem,
shiftdown
);
DYg9JHyygg = (
shiftstem,
shiftstem,
shiftdown
);
HgG4gyE7AV = (
shiftstem,
shiftstem,
shiftdown
);
Icsrkoeq5r = (
leftside
);
MUSJPjCIXg = (
RIGHTSTEM,
RIGHTSTEM,
RIGHTSIDEINSIDE
);
MWbbTwGkbG = (
leftside
);
Mm9MihPC9S = (
shiftstem,
shiftstem,
rightside
);
RZjfuiFaWd = (
shiftstem,
shiftstem,
shiftdown
);
VILP20cFmq = (
RIGHTSTEM,
RIGHTSTEM,
RIGHTSIDEINSIDE
);
XRdLFXiM4t = (
RIGHTSTEM,
RIGHTSTEM,
RIGHTSIDEOUTSIDE
);
ZsB4bFWMAS = (
shiftstem,
shiftstem,
rightside
);
j2qkgH7CJF = (
shiftstem
);
uKfuudIUvA = (
RIGHTSTEM,
RIGHTSTEM,
RIGHTSIDEOUTSIDE
);
z5b04GDwRN = (
RIGHTSTEM
);
};
};
width = 486;
},
{
layerId = "5E27AD2D-EA42-4F80-9479-E0FC49C091FF";
paths = (
{
closed = 1;
nodes = (
"2455 1600 LINE",
"2011 1600 LINE",
"2011 760 LINE",
"2047 760 LINE",
"1030 1600 LINE",
"212 1600 LINE",
"212 0 LINE",
"655 0 LINE",
"655 1249 LINE",
"767 1249 LINE",
"2011 239 LINE",
"2011 0 LINE",
"2455 0 LINE"
);
}
);
userData = {
com.schriftgestaltung.Glyphs.lastChange = "2019-04-28 05:35:59 +0000";
com.typemytype.robofont.pointLabels = {
1omi5wQQzW = (
shiftstem
);
3Nbopwznvn = (
RIGHTSTEM
);
7wBal5jvPQ = (
shiftstem,
shiftstem,
shiftdown
);
DYg9JHyygg = (
shiftstem,
shiftstem,
shiftdown
);
HgG4gyE7AV = (
shiftstem,
shiftstem,
shiftdown
);
Icsrkoeq5r = (
leftside
);
MUSJPjCIXg = (
RIGHTSTEM,
RIGHTSTEM,
RIGHTSIDEINSIDE
);
MWbbTwGkbG = (
leftside
);
Mm9MihPC9S = (
shiftstem,
shiftstem,
rightside
);
RZjfuiFaWd = (
shiftstem,
shiftstem,
shiftdown
);
VILP20cFmq = (
RIGHTSTEM,
RIGHTSTEM,
RIGHTSIDEINSIDE
);
XRdLFXiM4t = (
RIGHTSTEM,
RIGHTSTEM,
RIGHTSIDEOUTSIDE
);
ZsB4bFWMAS = (
shiftstem,
shiftstem,
rightside
);
j2qkgH7CJF = (
shiftstem
);
uKfuudIUvA = (
RIGHTSTEM,
RIGHTSTEM,
RIGHTSIDEOUTSIDE
);
z5b04GDwRN = (
RIGHTSTEM
);
};
};
width = 2667;
}
);
unicode = 004E;
},
{
glyphname = O;
lastChange = "2020-09-22 13:03:52 +0000";
layers = (
{
layerId = "1577B97C-DCC5-4AA4-842F-E9BB22E99E3C";
paths = (
{
closed = 1;
nodes = (
"417 1600 LINE",
"106 1600 LINE",
"31 1322 LINE",
"31 0 LINE",
"342 0 LINE",
"417 276 LINE"
);
},
{
closed = 1;
nodes = (
"231 149 LINE",
"183 149 LINE",
"183 1317 LINE",
"218 1451 LINE",
"265 1451 LINE",
"265 282 LINE"
);
}
);
userData = {
com.schriftgestaltung.Glyphs.lastChange = "2019-08-12 16:07:16 +0000";
com.typemytype.robofont.pointLabels = {
SnrsQD5TLy = (
RIGHTSTEM
);
c9brEFyXXA = (
RIGHTSTEM
);
dfgNHTgBfR = (
RIGHTSTEM
);
g70r2r6DwY = (
RIGHTSTEM
);
jjd5iRDXWT = (
RIGHTSTEM
);
ob8US3C311 = (
RIGHTSTEM
);
};
};
width = 448;
},
{
layerId = "5E27AD2D-EA42-4F80-9479-E0FC49C091FF";
paths = (
{
closed = 1;
nodes = (
"2603 1600 LINE",
"484 1600 LINE",
"168 1152 LINE",
"168 0 LINE",
"2287 0 LINE",
"2603 444 LINE"
);
},
{
closed = 1;
nodes = (
"2003 332 LINE",
"611 332 LINE",
"611 1065 LINE",
"767 1268 LINE",
"2159 1268 LINE",
"2159 531 LINE"
);
}
);
userData = {
com.schriftgestaltung.Glyphs.lastChange = "2019-08-12 16:07:16 +0000";
com.typemytype.robofont.pointLabels = {
SnrsQD5TLy = (
RIGHTSTEM
);
c9brEFyXXA = (
RIGHTSTEM
);
dfgNHTgBfR = (
RIGHTSTEM
);
g70r2r6DwY = (
RIGHTSTEM
);
jjd5iRDXWT = (
RIGHTSTEM
);
ob8US3C311 = (
RIGHTSTEM
);
};
};
width = 2771;
}
);
unicode = 004F;
},
{
glyphname = P;
lastChange = "2020-09-23 03:16:05 +0000";
layers = (
{
layerId = "1577B97C-DCC5-4AA4-842F-E9BB22E99E3C";
paths = (
{
closed = 1;
nodes = (
"195 0 LINE",
"195 511 LINE",
"426 511 LINE",
"426 1600 LINE",
"43 1600 LINE",
"43 0 LINE"
);
},
{
closed = 1;
nodes = (
"195 1451 LINE",
"274 1451 LINE",
"274 661 LINE",
"195 661 LINE"
);
}
);
userData = {
com.schriftgestaltung.Glyphs.lastChange = "2019-04-28 05:35:59 +0000";
com.typemytype.robofont.pointLabels = {
};
};
width = 455;
},
{
layerId = "5E27AD2D-EA42-4F80-9479-E0FC49C091FF";
paths = (
{
closed = 1;
nodes = (
"655 0 LINE",
"655 382 LINE",
"2450 382 LINE",
"2450 1600 LINE",
"212 1600 LINE",
"212 0 LINE"
);
},
{
closed = 1;
nodes = (
"655 1268 LINE",
"2007 1268 LINE",
"2007 714 LINE",
"655 714 LINE"
);
}
);
userData = {
com.schriftgestaltung.Glyphs.lastChange = "2019-04-28 05:35:59 +0000";
com.typemytype.robofont.pointLabels = {
};
};
width = 2621;
}
);
unicode = 0050;
},
{
glyphname = Q;
lastChange = "2020-09-23 00:44:50 +0000";
layers = (
{
layerId = "1577B97C-DCC5-4AA4-842F-E9BB22E99E3C";
paths = (
{
closed = 1;
nodes = (
"106 1600 LINE",
"31 1323 LINE",
"31 0 LINE",
"417 0 LINE",
"417 1600 LINE"
);
},
{
closed = 1;
nodes = (
"183 149 LINE",
"183 1319 LINE",
"220 1451 LINE",
"265 1451 LINE",
"265 149 LINE"
);
},
{
closed = 1;
nodes = (
"281 -272 LINE",
"281 2 LINE",
"173 2 LINE",
"173 -272 LINE"
);
}
);
userData = {
com.schriftgestaltung.Glyphs.lastChange = "2019-04-28 05:35:59 +0000";
com.typemytype.robofont.pointLabels = {
2q9VlGka1x = (
rightside,
rightside,
shiftstem,
shiftdown,
shiftdown
);
8lRHbc76vf = (
shiftdown
);
QaOuzaR5Nc = (
shiftdown
);
U6WibAQAUl = (
leftside
);
a4Ql951bxG = (
leftside
);
b9GvAVdrlf = (
shiftdown
);
bEeLKF9K0J = (
rightside,
rightside,
shiftstem,
shiftdown,
shiftdown
);
c9brEFyXXA = (
rightside,
rightside,
shiftstem,
shiftdown,
shiftdown
);
dfgNHTgBfR = (
rightside,
rightside,
shiftstem,
shiftdown,
shiftdown
);
gOQWswYvKT = (
leftside
);
ivebcmARlA = (
leftside
);
kbL68Qh2zr = (
leftside
);
};
};
width = 460;
},
{
layerId = "5E27AD2D-EA42-4F80-9479-E0FC49C091FF";
paths = (
{
closed = 1;
nodes = (
"484 1600 LINE",
"168 1154 LINE",
"168 0 LINE",
"2649 0 LINE",
"2649 1600 LINE"
);
},
{
closed = 1;
nodes = (
"611 332 LINE",
"611 1066 LINE",
"766 1268 LINE",
"2206 1268 LINE",
"2206 332 LINE"
);
},
{
closed = 1;
nodes = (
"1606 -370 LINE",
"1606 1 LINE",
"1251 1 LINE",
"1251 -370 LINE"
);
}
);
userData = {
com.schriftgestaltung.Glyphs.lastChange = "2019-04-28 05:35:59 +0000";
com.typemytype.robofont.pointLabels = {
2q9VlGka1x = (
rightside,
rightside,
shiftstem,
shiftdown,
shiftdown
);
8lRHbc76vf = (
shiftdown
);
QaOuzaR5Nc = (
shiftdown
);
U6WibAQAUl = (
leftside
);
a4Ql951bxG = (
leftside
);
b9GvAVdrlf = (
shiftdown
);
bEeLKF9K0J = (
rightside,
rightside,
shiftstem,
shiftdown,
shiftdown
);
c9brEFyXXA = (
rightside,
rightside,
shiftstem,
shiftdown,
shiftdown
);
dfgNHTgBfR = (
rightside,
rightside,
shiftstem,
shiftdown,
shiftdown
);
gOQWswYvKT = (
leftside
);
ivebcmARlA = (
leftside
);
kbL68Qh2zr = (
leftside
);
};
};
width = 2861;
}
);
unicode = 0051;
},
{
glyphname = R;
lastChange = "2020-09-22 13:03:52 +0000";
layers = (
{
layerId = "1577B97C-DCC5-4AA4-842F-E9BB22E99E3C";
paths = (
{
closed = 1;
nodes = (
"436 28 LINE",
"338 637 LINE",
"211 637 LINE",
"305 -10 LINE"
);
},
{
closed = 1;
nodes = (
"184 0 LINE",
"184 631 LINE",
"415 631 LINE",
"415 1600 LINE",
"32 1600 LINE",
"32 0 LINE"
);
},
{
closed = 1;
nodes = (
"184 1451 LINE",
"262 1451 LINE",
"262 779 LINE",
"184 779 LINE"
);
}
);
userData = {
com.schriftgestaltung.Glyphs.lastChange = "2019-04-28 05:35:59 +0000";
com.typemytype.robofont.pointLabels = {
2AKhSOaavW = (
crossbar
);
7iGA9EjrJP = (
crossbar
);
9fBpwr0c5A = (
leftside,
crossbar,
leftside,
crossbar,
crossbar,
shiftstem,
shiftdown,
crossbar,
crossbar,
shiftdown
);
CHVOARGKU2 = (
leftside,
crossbar,
leftside,
crossbar,
crossbar,
shiftstem,
shiftdown,
crossbar,
crossbar,
shiftdown
);
FKSRxBbMyE = (
crossbar
);
JkNiARIXMp = (
crossbar,
crossbar,
shiftdown
);
V9Ywxgiq2G = (
crossbar,
crossbar,
rightside
);
gNqIOGc9HF = (
crossbar,
crossbar,
rightside
);
itimCqoufa = (
leftside,
crossbar,
leftside,
crossbar,
crossbar,
shiftstem,
shiftdown,
crossbar,
crossbar,
shiftdown
);
j4s86nnkOj = (
crossbar,
crossbar,
shiftdown
);
jqqb8BKfoQ = (
leftside,
crossbar,
leftside,
crossbar,
crossbar,
shiftstem,
shiftdown,
crossbar,
crossbar,
shiftdown
);
nPfCo47fuL = (
crossbar,
crossbar,
rightside
);
pOaU6sS7pE = (
leftside,
crossbar,
leftside,
crossbar,
crossbar,
shiftstem,
shiftdown,
crossbar,
crossbar,
shiftdown
);
s4rDE72DYf = (
leftside,
crossbar,
leftside,
crossbar,
crossbar,
shiftstem,
shiftdown,
crossbar,
crossbar,
shiftdown
);
xAUivuY8OU = (
crossbar,
crossbar,
rightside
);
};
};
width = 446;
},
{
layerId = "5E27AD2D-EA42-4F80-9479-E0FC49C091FF";
paths = (
{
closed = 1;
nodes = (
"2501 78 LINE",
"2191 534 LINE",
"1710 522 LINE",
"2118 -56 LINE"
);
},
{
closed = 1;
nodes = (
"704 0 LINE",
"704 512 LINE",
"2549 512 LINE",
"2549 1600 LINE",
"260 1600 LINE",
"260 0 LINE"
);
},
{
closed = 1;
nodes = (
"704 1268 LINE",
"2105 1268 LINE",
"2105 837 LINE",
"704 837 LINE"
);
}
);
userData = {
com.schriftgestaltung.Glyphs.lastChange = "2019-04-28 05:35:59 +0000";
com.typemytype.robofont.pointLabels = {
2AKhSOaavW = (
crossbar
);
7iGA9EjrJP = (
crossbar
);
9fBpwr0c5A = (
leftside,
crossbar,
leftside,
crossbar,
crossbar,
shiftstem,
shiftdown,
crossbar,
crossbar,
shiftdown
);
CHVOARGKU2 = (
leftside,
crossbar,
leftside,
crossbar,
crossbar,
shiftstem,
shiftdown,
crossbar,
crossbar,
shiftdown
);
FKSRxBbMyE = (
crossbar
);
JkNiARIXMp = (
crossbar,
crossbar,
shiftdown
);
V9Ywxgiq2G = (
crossbar,
crossbar,
rightside
);
gNqIOGc9HF = (
crossbar,
crossbar,
rightside
);
itimCqoufa = (
leftside,
crossbar,
leftside,
crossbar,
crossbar,
shiftstem,
shiftdown,
crossbar,
crossbar,
shiftdown
);
j4s86nnkOj = (
crossbar,
crossbar,
shiftdown
);
jqqb8BKfoQ = (
leftside,
crossbar,
leftside,
crossbar,
crossbar,
shiftstem,
shiftdown,
crossbar,
crossbar,
shiftdown
);
nPfCo47fuL = (
crossbar,
crossbar,
rightside
);
pOaU6sS7pE = (
leftside,
crossbar,
leftside,
crossbar,
crossbar,
shiftstem,
shiftdown,
crossbar,
crossbar,
shiftdown
);
s4rDE72DYf = (
leftside,
crossbar,
leftside,
crossbar,
crossbar,
shiftstem,
shiftdown,
crossbar,
crossbar,
shiftdown
);
xAUivuY8OU = (
crossbar,
crossbar,
rightside
);
};
};
width = 2755;
}
);
unicode = 0052;
},
{
glyphname = S;
lastChange = "2020-09-22 13:03:52 +0000";
layers = (
{
layerId = "1577B97C-DCC5-4AA4-842F-E9BB22E99E3C";
paths = (
{
closed = 1;
nodes = (
"336 0 LINE",
"410 266 LINE",
"410 879 LINE",
"177 879 LINE",
"177 1311 LINE",
"216 1459 LINE",
"257 1459 LINE",
"257 1081 LINE",
"410 1081 LINE",
"410 1600 LINE",
"101 1600 LINE",
"27 1317 LINE",
"27 722 LINE",
"258 722 LINE",
"258 271 LINE",
"219 144 LINE",
"179 144 LINE",
"180 519 LINE",
"28 519 LINE",
"28 0 LINE"
);
}
);
width = 435;
},
{
layerId = "5E27AD2D-EA42-4F80-9479-E0FC49C091FF";
paths = (
{
closed = 1;
nodes = (
"2161 0 LINE",
"2485 438 LINE",
"2485 963 LINE",
"559 963 LINE",
"559 1060 LINE",
"726 1287 LINE",
"1982 1287 LINE",
"1982 1052 LINE",
"2425 1052 LINE",
"2425 1600 LINE",
"493 1600 LINE",
"169 1146 LINE",
"169 651 LINE",
"2091 651 LINE",
"2091 522 LINE",
"1920 314 LINE",
"610 314 LINE",
"610 562 LINE",
"167 562 LINE",
"167 0 LINE"
);
}
);
width = 2650;
}
);
unicode = 0053;
},
{
glyphname = T;
lastChange = "2020-09-23 00:39:41 +0000";
layers = (
{
layerId = "1577B97C-DCC5-4AA4-842F-E9BB22E99E3C";
paths = (
{
closed = 1;
nodes = (
"255 0 LINE",
"255 1451 LINE",
"359 1451 LINE",
"359 1600 LINE",
"0 1600 LINE",
"0 1451 LINE",
"103 1451 LINE",
"103 0 LINE"
);
}
);
userData = {
com.schriftgestaltung.Glyphs.lastChange = "2019-04-28 05:35:59 +0000";
com.typemytype.robofont.pointLabels = {
ABe8abv3LE = (
rightside,
leftside,
leftside,
shiftstem,
rightside,
shiftdown,
rightside,
rightside,
leftside,
leftside,
rightside,
shiftdown,
rightside,
leftside,
leftside,
rightside,
shiftdown,
rightside,
leftside,
rightside,
leftside,
leftside,
rightside,
shiftdown,
rightside,
leftside,
leftside,
rightside,
shiftdown,
rightside,
leftside,
leftside,
rightside,
shiftdown,
leftside
);
DJQ7u43twI = (
rightside,
leftside,
leftside,
shiftstem,
rightside,
shiftdown,
rightside,
rightside,
leftside,
leftside,
rightside,
shiftdown,
rightside,
leftside,
leftside,
rightside,
shiftdown,
rightside,
leftside,
rightside,
leftside,
leftside,
rightside,
shiftdown,
rightside,
leftside,
leftside,
rightside,
shiftdown,
rightside,
leftside,
leftside,
rightside,
shiftdown,
leftside
);
J3fH9EFg0z = (
rightside,
leftside,
leftside,
shiftstem,
rightside,
shiftdown,
rightside,
rightside,
leftside,
leftside,
rightside,
shiftdown,
rightside,
leftside,
leftside,
rightside,
shiftdown,
rightside,
leftside,
rightside,
leftside,
leftside,
rightside,
shiftdown,
rightside,
leftside,
leftside,
rightside,
shiftdown,
rightside,
leftside,
leftside,
rightside,
shiftdown,
leftside
);
KjT4D91qvu = (
rightside,
leftside,
leftside,
shiftstem,
rightside,
shiftdown,
rightside,
rightside,
leftside,
leftside,
rightside,
shiftdown,
rightside,
leftside,
leftside,
rightside,
shiftdown,
rightside,
leftside,
rightside,
leftside,
leftside,
rightside,
shiftdown,
rightside,
leftside,
leftside,
rightside,
shiftdown,
rightside,
leftside,
leftside,
rightside,
shiftdown,
leftside
);
PAcKW7vhev = (
rightside,
leftside,
leftside,
shiftstem,
rightside,
shiftdown,
rightside,
rightside,
leftside,
leftside,
rightside,
shiftdown,
rightside,
leftside,
leftside,
rightside,
shiftdown,
rightside,
leftside,
rightside,
leftside,
leftside,
rightside,
shiftdown,
rightside,
leftside,
leftside,
rightside,
shiftdown,
rightside,
leftside,
leftside,
rightside,
shiftdown,
leftside
);
asx7RUXZ8K = (
rightside,
leftside,
leftside,
shiftstem,
rightside,
shiftdown,
rightside,
rightside,
leftside,
leftside,
rightside,
shiftdown,
rightside,
leftside,
leftside,
rightside,
shiftdown,
rightside,
leftside,
rightside,
leftside,
leftside,
rightside,
shiftdown,
rightside,
leftside,
leftside,
rightside,
shiftdown,
rightside,
leftside,
leftside,
rightside,
shiftdown,
leftside
);
jHGwg0m2Tu = (
rightside,
leftside,
leftside,
shiftstem,
rightside,
shiftdown,
rightside,
rightside,
leftside,
leftside,
rightside,
shiftdown,
rightside,
leftside,
leftside,
rightside,
shiftdown,
rightside,
leftside,
rightside,
leftside,
leftside,
rightside,
shiftdown,
rightside,
leftside,
leftside,
rightside,
shiftdown,
rightside,
leftside,
leftside,
rightside,
shiftdown,
leftside
);
je7pQw9mYt = (
rightside,
leftside,
leftside,
shiftstem,
rightside,
shiftdown,
rightside,
rightside,
leftside,
leftside,
rightside,
shiftdown,
rightside,
leftside,
leftside,
rightside,
shiftdown,
rightside,
leftside,
rightside,
leftside,
leftside,
rightside,
shiftdown,
rightside,
leftside,
leftside,
rightside,
shiftdown,
rightside,
leftside,
leftside,
rightside,
shiftdown,
leftside
);
rf7pecy6mC = (
rightside,
leftside,
leftside,
shiftstem,
rightside,
shiftdown,
rightside,
rightside,
leftside,
leftside,
rightside,
shiftdown,
rightside,
leftside,
leftside,
rightside,
shiftdown,
rightside,
leftside,
rightside,
leftside,
leftside,
rightside,
shiftdown,
rightside,
leftside,
leftside,
rightside,
shiftdown,
rightside,
leftside,
leftside,
rightside,
shiftdown,
leftside
);
ysnLVYacKr = (
rightside,
leftside,
leftside,
shiftstem,
rightside,
shiftdown,
rightside,
rightside,
leftside,
leftside,
rightside,
shiftdown,
rightside,
leftside,
leftside,
rightside,
shiftdown,
rightside,
leftside,
rightside,
leftside,
leftside,
rightside,
shiftdown,
rightside,
leftside,
leftside,
rightside,
shiftdown,
rightside,
leftside,
leftside,
rightside,
shiftdown,
leftside
);
};
};
width = 359;
},
{
layerId = "5E27AD2D-EA42-4F80-9479-E0FC49C091FF";
paths = (
{
closed = 1;
nodes = (
"1377 0 LINE",
"1377 1268 LINE",
"2265 1268 LINE",
"2265 1600 LINE",
"45 1600 LINE",
"45 1268 LINE",
"933 1268 LINE",
"933 0 LINE"
);
}
);
userData = {
com.schriftgestaltung.Glyphs.lastChange = "2019-04-28 05:35:59 +0000";
com.typemytype.robofont.pointLabels = {
ABe8abv3LE = (
rightside,
leftside,
leftside,
shiftstem,
rightside,
shiftdown,
rightside,
rightside,
leftside,
leftside,
rightside,
shiftdown,
rightside,
leftside,
leftside,
rightside,
shiftdown,
rightside,
leftside,
rightside,
leftside,
leftside,
rightside,
shiftdown,
rightside,
leftside,
leftside,
rightside,
shiftdown,
rightside,
leftside,
leftside,
rightside,
shiftdown,
leftside
);
DJQ7u43twI = (
rightside,
leftside,
leftside,
shiftstem,
rightside,
shiftdown,
rightside,
rightside,
leftside,
leftside,
rightside,
shiftdown,
rightside,
leftside,
leftside,
rightside,
shiftdown,
rightside,
leftside,
rightside,
leftside,
leftside,
rightside,
shiftdown,
rightside,
leftside,
leftside,
rightside,
shiftdown,
rightside,
leftside,
leftside,
rightside,
shiftdown,
leftside
);
J3fH9EFg0z = (
rightside,
leftside,
leftside,
shiftstem,
rightside,
shiftdown,
rightside,
rightside,
leftside,
leftside,
rightside,
shiftdown,
rightside,
leftside,
leftside,
rightside,
shiftdown,
rightside,
leftside,
rightside,
leftside,
leftside,
rightside,
shiftdown,
rightside,
leftside,
leftside,
rightside,
shiftdown,
rightside,
leftside,
leftside,
rightside,
shiftdown,
leftside
);
KjT4D91qvu = (
rightside,
leftside,
leftside,
shiftstem,
rightside,
shiftdown,
rightside,
rightside,
leftside,
leftside,
rightside,
shiftdown,
rightside,
leftside,
leftside,
rightside,
shiftdown,
rightside,
leftside,
rightside,
leftside,
leftside,
rightside,
shiftdown,
rightside,
leftside,
leftside,
rightside,
shiftdown,
rightside,
leftside,
leftside,
rightside,
shiftdown,
leftside
);
PAcKW7vhev = (
rightside,
leftside,
leftside,
shiftstem,
rightside,
shiftdown,
rightside,
rightside,
leftside,
leftside,
rightside,
shiftdown,
rightside,
leftside,
leftside,
rightside,
shiftdown,
rightside,
leftside,
rightside,
leftside,
leftside,
rightside,
shiftdown,
rightside,
leftside,
leftside,
rightside,
shiftdown,
rightside,
leftside,
leftside,
rightside,
shiftdown,
leftside
);
asx7RUXZ8K = (
rightside,
leftside,
leftside,
shiftstem,
rightside,
shiftdown,
rightside,
rightside,
leftside,
leftside,
rightside,
shiftdown,
rightside,
leftside,
leftside,
rightside,
shiftdown,
rightside,
leftside,
rightside,
leftside,
leftside,
rightside,
shiftdown,
rightside,
leftside,
leftside,
rightside,
shiftdown,
rightside,
leftside,
leftside,
rightside,
shiftdown,
leftside
);
jHGwg0m2Tu = (
rightside,
leftside,
leftside,
shiftstem,
rightside,
shiftdown,
rightside,
rightside,
leftside,
leftside,
rightside,
shiftdown,
rightside,
leftside,
leftside,
rightside,
shiftdown,
rightside,
leftside,
rightside,
leftside,
leftside,
rightside,
shiftdown,
rightside,
leftside,
leftside,
rightside,
shiftdown,
rightside,
leftside,
leftside,
rightside,
shiftdown,
leftside
);
je7pQw9mYt = (
rightside,
leftside,
leftside,
shiftstem,
rightside,
shiftdown,
rightside,
rightside,
leftside,
leftside,
rightside,
shiftdown,
rightside,
leftside,
leftside,
rightside,
shiftdown,
rightside,
leftside,
rightside,
leftside,
leftside,
rightside,
shiftdown,
rightside,
leftside,
leftside,
rightside,
shiftdown,
rightside,
leftside,
leftside,
rightside,
shiftdown,
leftside
);
rf7pecy6mC = (
rightside,
leftside,
leftside,
shiftstem,
rightside,
shiftdown,
rightside,
rightside,
leftside,
leftside,
rightside,
shiftdown,
rightside,
leftside,
leftside,
rightside,
shiftdown,
rightside,
leftside,
rightside,
leftside,
leftside,
rightside,
shiftdown,
rightside,
leftside,
leftside,
rightside,
shiftdown,
rightside,
leftside,
leftside,
rightside,
shiftdown,
leftside
);
ysnLVYacKr = (
rightside,
leftside,
leftside,
shiftstem,
rightside,
shiftdown,
rightside,
rightside,
leftside,
leftside,
rightside,
shiftdown,
rightside,
leftside,
leftside,
rightside,
shiftdown,
rightside,
leftside,
rightside,
leftside,
leftside,
rightside,
shiftdown,
rightside,
leftside,
leftside,
rightside,
shiftdown,
rightside,
leftside,
leftside,
rightside,
shiftdown,
leftside
);
};
};
width = 2310;
}
);
unicode = 0054;
},
{
glyphname = U;
lastChange = "2020-09-22 13:03:52 +0000";
layers = (
{
layerId = "1577B97C-DCC5-4AA4-842F-E9BB22E99E3C";
paths = (
{
closed = 1;
nodes = (
"425 0 LINE SMOOTH",
"425 1600 LINE SMOOTH",
"272 1600 LINE SMOOTH",
"272 149 LINE",
"191 149 LINE SMOOTH",
"191 1600 LINE",
"39 1600 LINE SMOOTH",
"39 0 LINE SMOOTH"
);
}
);
userData = {
com.schriftgestaltung.Glyphs.lastChange = "2019-04-28 05:35:59 +0000";
com.typemytype.robofont.Image.Brightness = 0;
com.typemytype.robofont.Image.Contrast = 1;
com.typemytype.robofont.Image.Saturation = 1;
com.typemytype.robofont.Image.Sharpness = 0.4;
com.typemytype.robofont.pointLabels = {
};
};
width = 463;
},
{
layerId = "5E27AD2D-EA42-4F80-9479-E0FC49C091FF";
paths = (
{
closed = 1;
nodes = (
"2392 0 LINE SMOOTH",
"2392 1600 LINE SMOOTH",
"1948 1600 LINE SMOOTH",
"1948 332 LINE",
"655 332 LINE SMOOTH",
"655 1600 LINE",
"212 1600 LINE SMOOTH",
"212 0 LINE"
);
}
);
userData = {
com.schriftgestaltung.Glyphs.lastChange = "2019-04-28 05:35:59 +0000";
com.typemytype.robofont.Image.Brightness = 0;
com.typemytype.robofont.Image.Contrast = 1;
com.typemytype.robofont.Image.Saturation = 1;
com.typemytype.robofont.Image.Sharpness = 0.4;
com.typemytype.robofont.pointLabels = {
};
};
width = 2604;
}
);
unicode = 0055;
},
{
glyphname = V;
lastChange = "2020-09-22 13:03:52 +0000";
layers = (
{
layerId = "1577B97C-DCC5-4AA4-842F-E9BB22E99E3C";
paths = (
{
closed = 1;
nodes = (
"347 0 LINE SMOOTH",
"409 1593 LINE SMOOTH",
"258 1603 LINE SMOOTH",
"213 149 LINE",
"202 149 LINE SMOOTH",
"158 1603 LINE",
"5 1592 LINE SMOOTH",
"67 0 LINE SMOOTH"
);
}
);
userData = {
com.schriftgestaltung.Glyphs.lastChange = "2019-04-28 05:35:59 +0000";
com.typemytype.robofont.pointLabels = {
8JVlgiKN0E = (
rightside,
rightside,
rightside,
shiftstem
);
8xHrkJVycg = (
rightside,
rightside,
shiftdown,
rightside,
shiftstem,
rightside,
rightside,
rightside,
shiftstem
);
AEzhRP9eLc = (
rightside,
rightside,
shiftdown,
rightside,
shiftstem,
rightside,
rightside,
rightside,
shiftstem
);
DS3ZS4pH1O = (
leftside
);
KWypNhzDNy = (
rightside,
rightside,
rightside,
shiftstem
);
QlTGYhLSOg = (
rightside,
rightside,
rightside,
shiftstem
);
d1tzrvftiK = (
rightside,
rightside,
rightside,
shiftstem
);
gP37W9ybnh = (
leftside
);
zRVv4zqHV4 = (
rightside,
rightside,
shiftdown,
rightside,
shiftstem,
rightside,
rightside,
rightside,
shiftstem
);
};
};
width = 414;
},
{
layerId = "5E27AD2D-EA42-4F80-9479-E0FC49C091FF";
paths = (
{
closed = 1;
nodes = (
"2010 0 LINE SMOOTH",
"2434 1565 LINE SMOOTH",
"2007 1620 LINE SMOOTH",
"1678 332 LINE",
"796 332 LINE SMOOTH",
"467 1620 LINE",
"51 1565 LINE SMOOTH",
"475 0 LINE"
);
}
);
userData = {
com.schriftgestaltung.Glyphs.lastChange = "2019-04-28 05:35:59 +0000";
com.typemytype.robofont.pointLabels = {
8JVlgiKN0E = (
rightside,
rightside,
rightside,
shiftstem
);
8xHrkJVycg = (
rightside,
rightside,
shiftdown,
rightside,
shiftstem,
rightside,
rightside,
rightside,
shiftstem
);
AEzhRP9eLc = (
rightside,
rightside,
shiftdown,
rightside,
shiftstem,
rightside,
rightside,
rightside,
shiftstem
);
DS3ZS4pH1O = (
leftside
);
KWypNhzDNy = (
rightside,
rightside,
rightside,
shiftstem
);
QlTGYhLSOg = (
rightside,
rightside,
rightside,
shiftstem
);
d1tzrvftiK = (
rightside,
rightside,
rightside,
shiftstem
);
gP37W9ybnh = (
leftside
);
zRVv4zqHV4 = (
rightside,
rightside,
shiftdown,
rightside,
shiftstem,
rightside,
rightside,
rightside,
shiftstem
);
};
};
width = 2485;
}
);
unicode = 0056;
},
{
glyphname = W;
lastChange = "2020-09-22 13:03:52 +0000";
layers = (
{
layerId = "1577B97C-DCC5-4AA4-842F-E9BB22E99E3C";
paths = (
{
closed = 1;
nodes = (
"514 149 LINE",
"519 149 LINE",
"519 1600 LINE",
"646 1600 LINE",
"646 0 LINE",
"401 0 LINE",
"348 1327 LINE",
"343 1327 LINE",
"288 0 LINE",
"43 0 LINE",
"43 1600 LINE",
"171 1600 LINE",
"171 149 LINE",
"176 149 LINE",
"242 1463 LINE",
"449 1463 LINE"
);
}
);
userData = {
com.schriftgestaltung.Glyphs.lastChange = "2019-04-28 11:47:40 +0000";
com.typemytype.robofont.Image.Brightness = 0;
com.typemytype.robofont.Image.Contrast = 1;
com.typemytype.robofont.Image.Saturation = 1;
com.typemytype.robofont.Image.Sharpness = 0.4;
com.typemytype.robofont.pointLabels = {
JvYTBAOPZP = (
rightside
);
l7kU354nQi = (
leftside
);
lwgAcRFjz3 = (
rightside
);
tG1gTEtDdI = (
leftside
);
vmHDiIUK3k = (
leftside
);
vyhN9GCvPW = (
rightside
);
};
};
width = 689;
},
{
layerId = "5E27AD2D-EA42-4F80-9479-E0FC49C091FF";
paths = (
{
closed = 1;
nodes = (
"2603 332 LINE",
"2882 332 LINE",
"2882 1600 LINE",
"3326 1600 LINE",
"3326 0 LINE",
"2254 0 LINE",
"1939 1218 LINE",
"1596 1218 LINE",
"1279 0 LINE",
"212 0 LINE",
"212 1600 LINE",
"656 1600 LINE",
"656 332 LINE",
"935 332 LINE",
"1285 1550 LINE",
"2253 1550 LINE"
);
}
);
userData = {
com.schriftgestaltung.Glyphs.lastChange = "2019-04-28 11:47:40 +0000";
com.typemytype.robofont.Image.Brightness = 0;
com.typemytype.robofont.Image.Contrast = 1;
com.typemytype.robofont.Image.Saturation = 1;
com.typemytype.robofont.Image.Sharpness = 0.4;
com.typemytype.robofont.pointLabels = {
JvYTBAOPZP = (
rightside
);
l7kU354nQi = (
leftside
);
lwgAcRFjz3 = (
rightside
);
tG1gTEtDdI = (
leftside
);
vmHDiIUK3k = (
leftside
);
vyhN9GCvPW = (
rightside
);
};
};
width = 3538;
}
);
unicode = 0057;
},
{
glyphname = X;
lastChange = "2020-09-23 01:36:18 +0000";
layers = (
{
layerId = "1577B97C-DCC5-4AA4-842F-E9BB22E99E3C";
paths = (
{
closed = 1;
nodes = (
"577.252 0 LINE",
"577 149 LINE",
"516 149 LINE",
"150 1600 LINE",
"-23 1600 LINE",
"-23 1451 LINE",
"50 1451 LINE",
"407 0 LINE"
);
},
{
closed = 1;
nodes = (
"263 771 LINE",
"161 771 LINE",
"29 0 LINE",
"209 -11 LINE"
);
},
{
closed = 1;
nodes = (
"414 843 LINE",
"522 1591 LINE",
"348 1603 LINE",
"314 843 LINE"
);
}
);
userData = {
com.schriftgestaltung.Glyphs.lastChange = "2019-04-28 05:35:59 +0000";
com.typemytype.robofont.pointLabels = {
2AoyMNBDus = (
crossbar
);
3RUxnrTvXW = (
crossbar
);
5E2SHdZBnl = (
crossbar
);
DhM0pRDHg5 = (
crossbar
);
HtiNjuVoMT = (
crossbar,
crossbar,
rightside
);
Hxl70cp8II = (
crossbar,
crossbar,
rightside
);
JvPOtaXHlU = (
crossbar
);
L4QRW2yg68 = (
crossbar
);
SOkkUNzV8O = (
crossbar,
crossbar,
leftside
);
TCOXywMDjP = (
crossbar,
crossbar,
rightside
);
aujrsODbNh = (
crossbar,
crossbar,
rightside
);
mdbzbOpU9s = (
crossbar
);
mzk5RCOTSG = (
crossbar
);
oo2HOwJkzJ = (
crossbar,
crossbar,
leftside
);
sLI75Ua05e = (
crossbar,
crossbar,
leftside
);
yfThTK6gCq = (
crossbar
);
z5onK1VUCe = (
crossbar,
crossbar,
leftside
);
zMJTtBUO7o = (
crossbar
);
};
};
width = 564;
},
{
guideLines = (
{
position = "{1019, 1440}";
}
);
layerId = "5E27AD2D-EA42-4F80-9479-E0FC49C091FF";
paths = (
{
closed = 1;
nodes = (
"2064 0 LINE",
"2064 349 LINE",
"1848 349 LINE",
"504 1600 LINE",
"46 1600 LINE",
"46 1251 LINE",
"298 1251 LINE",
"1659 0 LINE"
);
},
{
closed = 1;
nodes = (
"1025 755 LINE",
"461 755 LINE",
"-59 192 LINE",
"275 -57 LINE"
);
},
{
closed = 1;
nodes = (
"1623 893 LINE",
"2094 1386 LINE",
"1781 1657 LINE",
"1059 893 LINE"
);
}
);
userData = {
com.schriftgestaltung.Glyphs.lastChange = "2020-09-19 16:29:04 +0000";
com.typemytype.robofont.pointLabels = {
2AoyMNBDus = (
crossbar
);
3RUxnrTvXW = (
crossbar
);
5E2SHdZBnl = (
crossbar
);
DhM0pRDHg5 = (
crossbar
);
HtiNjuVoMT = (
crossbar,
crossbar,
rightside
);
Hxl70cp8II = (
crossbar,
crossbar,
rightside
);
JvPOtaXHlU = (
crossbar
);
L4QRW2yg68 = (
crossbar
);
SOkkUNzV8O = (
crossbar,
crossbar,
leftside
);
TCOXywMDjP = (
crossbar,
crossbar,
rightside
);
aujrsODbNh = (
crossbar,
crossbar,
rightside
);
mdbzbOpU9s = (
crossbar
);
mzk5RCOTSG = (
crossbar
);
oo2HOwJkzJ = (
crossbar,
crossbar,
leftside
);
sLI75Ua05e = (
crossbar,
crossbar,
leftside
);
yfThTK6gCq = (
crossbar
);
z5onK1VUCe = (
crossbar,
crossbar,
leftside
);
zMJTtBUO7o = (
crossbar
);
};
};
width = 2112;
}
);
unicode = 0058;
},
{
glyphname = Z;
lastChange = "2020-09-22 13:03:52 +0000";
layers = (
{
layerId = "1577B97C-DCC5-4AA4-842F-E9BB22E99E3C";
paths = (
{
closed = 1;
nodes = (
"407 0 LINE",
"407 504 LINE",
"255 504 LINE",
"255 149 LINE",
"178 149 LINE",
"178 346 LINE",
"406 1401 LINE",
"406 1600 LINE",
"34 1600 LINE",
"34 1115 LINE",
"170 1115 LINE",
"171 1451 LINE",
"264 1451 LINE",
"264 1402 LINE",
"26 349 LINE",
"26 0 LINE"
);
}
);
userData = {
com.schriftgestaltung.Glyphs.lastChange = "2019-04-28 05:35:59 +0000";
com.typemytype.robofont.pointLabels = {
5FogYRSgkk = (
rightside
);
91SxUS0iwG = (
rightside
);
LQ9fBsTy9K = (
leftside
);
cqhYFAJo1M = (
leftside
);
pzdvPTirLJ = (
rightside
);
svlFvrau4c = (
leftside
);
teVKnpBcVb = (
leftside
);
yyb1NCCI5w = (
rightside
);
};
};
width = 434;
},
{
layerId = "5E27AD2D-EA42-4F80-9479-E0FC49C091FF";
paths = (
{
closed = 1;
nodes = (
"2468 0 LINE",
"2468 709 LINE",
"2025 709 LINE",
"2025 326 LINE",
"631 326 LINE",
"631 371 LINE",
"2460 1077 LINE",
"2460 1600 LINE",
"195 1600 LINE",
"195 954 LINE",
"638 954 LINE",
"638 1274 LINE",
"1998 1274 LINE",
"1998 1238 LINE",
"172 545 LINE",
"172 0 LINE"
);
}
);
userData = {
com.schriftgestaltung.Glyphs.lastChange = "2020-09-19 16:29:04 +0000";
com.typemytype.robofont.pointLabels = {
5FogYRSgkk = (
rightside
);
91SxUS0iwG = (
rightside
);
LQ9fBsTy9K = (
leftside
);
cqhYFAJo1M = (
leftside
);
pzdvPTirLJ = (
rightside
);
svlFvrau4c = (
leftside
);
teVKnpBcVb = (
leftside
);
yyb1NCCI5w = (
rightside
);
};
};
width = 2643;
}
);
unicode = 005A;
},
{
glyphname = Y.alt;
lastChange = "2020-09-22 13:03:52 +0000";
layers = (
{
layerId = "1577B97C-DCC5-4AA4-842F-E9BB22E99E3C";
paths = (
{
closed = 1;
nodes = (
"216 592 LINE",
"188 -14 LINE",
"328 -27 LINE",
"409 1593 LINE SMOOTH",
"264 1602 LINE SMOOTH",
"219 741 LINE",
"194 741 LINE SMOOTH",
"156 1603 LINE",
"9 1592 LINE SMOOTH",
"68 592 LINE SMOOTH"
);
}
);
width = 415;
},
{
layerId = "5E27AD2D-EA42-4F80-9479-E0FC49C091FF";
paths = (
{
closed = 1;
nodes = (
"1589 497 LINE",
"1454 -13 LINE",
"1846 -89 LINE",
"2298 1564 LINE SMOOTH",
"1876 1619 LINE SMOOTH",
"1685 843 LINE",
"609 843 LINE SMOOTH",
"424 1621 LINE",
"11 1565 LINE SMOOTH",
"297 497 LINE"
);
}
);
width = 2272;
}
);
},
{
glyphname = I.narrow;
lastChange = "2020-09-22 13:03:52 +0000";
layers = (
{
layerId = "1577B97C-DCC5-4AA4-842F-E9BB22E99E3C";
paths = (
{
closed = 1;
nodes = (
"184 1599 LINE",
"32 1599 LINE",
"32 1 LINE",
"184 1 LINE"
);
}
);
width = 216;
},
{
layerId = "5E27AD2D-EA42-4F80-9479-E0FC49C091FF";
paths = (
{
closed = 1;
nodes = (
"711 1600 LINE",
"298 1600 LINE",
"298 0 LINE",
"711 0 LINE"
);
}
);
width = 1009;
}
);
},
{
glyphname = C.wide;
lastChange = "2020-09-22 13:03:52 +0000";
layers = (
{
layerId = "1577B97C-DCC5-4AA4-842F-E9BB22E99E3C";
paths = (
{
closed = 1;
nodes = (
"347 0 LINE",
"347 149 LINE",
"183 149 LINE",
"183 1182 LINE",
"223 1451 LINE",
"346 1451 LINE",
"346 1600 LINE",
"94 1600 LINE",
"31 1192 LINE",
"31 0 LINE"
);
}
);
width = 360;
},
{
layerId = "5E27AD2D-EA42-4F80-9479-E0FC49C091FF";
paths = (
{
closed = 1;
nodes = (
"2281 0 LINE",
"2281 332 LINE",
"611 332 LINE",
"611 996 LINE",
"769 1268 LINE",
"2280 1268 LINE",
"2280 1600 LINE",
"456 1600 LINE",
"168 1088 LINE",
"168 0 LINE"
);
}
);
width = 2467;
}
);
},
{
glyphname = E.wide;
lastChange = "2020-09-23 00:40:06 +0000";
layers = (
{
layerId = "1577B97C-DCC5-4AA4-842F-E9BB22E99E3C";
paths = (
{
closed = 1;
nodes = (
"305 0 LINE",
"305 149 LINE",
"195 149 LINE",
"195 726 LINE",
"284 726 LINE",
"284 875 LINE",
"195 875 LINE",
"195 1451 LINE",
"304 1451 LINE",
"304 1600 LINE",
"43 1600 LINE",
"43 0 LINE"
);
}
);
width = 348;
},
{
layerId = "5E27AD2D-EA42-4F80-9479-E0FC49C091FF";
paths = (
{
closed = 1;
nodes = (
"2324 0 LINE",
"2324 326 LINE",
"707 326 LINE",
"707 651 LINE",
"1967 651 LINE",
"1967 964 LINE",
"707 964 LINE",
"707 1274 LINE",
"2317 1274 LINE",
"2317 1600 LINE",
"264 1600 LINE",
"264 0 LINE"
);
}
);
width = 2494;
}
);
},
{
glyphname = F.wide;
lastChange = "2020-09-22 13:03:52 +0000";
layers = (
{
layerId = "1577B97C-DCC5-4AA4-842F-E9BB22E99E3C";
paths = (
{
closed = 1;
nodes = (
"195 0 LINE",
"195 719 LINE",
"298 719 LINE",
"298 868 LINE",
"195 868 LINE",
"195 1451 LINE",
"323 1451 LINE",
"323 1600 LINE",
"43 1600 LINE",
"43 0 LINE"
);
}
);
width = 338;
},
{
layerId = "5E27AD2D-EA42-4F80-9479-E0FC49C091FF";
paths = (
{
closed = 1;
nodes = (
"691 0 LINE",
"691 603 LINE",
"2107 603 LINE",
"2107 935 LINE",
"691 935 LINE",
"691 1268 LINE",
"2419 1268 LINE",
"2419 1600 LINE",
"248 1600 LINE",
"248 0 LINE"
);
}
);
width = 2583;
}
);
},
{
glyphname = G.wide;
lastChange = "2020-09-22 13:03:52 +0000";
layers = (
{
layerId = "1577B97C-DCC5-4AA4-842F-E9BB22E99E3C";
paths = (
{
closed = 1;
nodes = (
"422 0 LINE",
"422 887 LINE",
"217 887 LINE",
"217 738 LINE",
"271 738 LINE",
"271 149 LINE",
"183 149 LINE",
"183 1277 LINE",
"213 1451 LINE",
"422 1451 LINE",
"423 1600 LINE",
"78 1600 LINE",
"31 1281 LINE",
"31 0 LINE"
);
}
);
width = 461;
},
{
layerId = "5E27AD2D-EA42-4F80-9479-E0FC49C091FF";
paths = (
{
closed = 1;
nodes = (
"2541 0 LINE",
"2541 992 LINE",
"1492 992 LINE",
"1492 679 LINE",
"2100 679 LINE",
"2100 326 LINE",
"611 326 LINE",
"611 1020 LINE",
"771 1274 LINE",
"2541 1274 LINE",
"2541 1600 LINE",
"466 1600 LINE",
"168 1109 LINE",
"168 0 LINE"
);
}
);
width = 2775;
}
);
},
{
glyphname = L.wide;
lastChange = "2020-09-22 13:03:52 +0000";
layers = (
{
layerId = "1577B97C-DCC5-4AA4-842F-E9BB22E99E3C";
paths = (
{
closed = 1;
nodes = (
"43 1600 LINE",
"195 1600 LINE",
"195 149 LINE",
"357 149 LINE",
"357 0 LINE",
"43 0 LINE"
);
}
);
width = 374;
},
{
layerId = "5E27AD2D-EA42-4F80-9479-E0FC49C091FF";
paths = (
{
closed = 1;
nodes = (
"264 1600 LINE",
"707 1600 LINE",
"707 332 LINE",
"2383 332 LINE",
"2383 0 LINE",
"264 0 LINE"
);
}
);
width = 2576;
}
);
},
{
glyphname = S.wide;
lastChange = "2020-09-22 13:03:52 +0000";
layers = (
{
layerId = "1577B97C-DCC5-4AA4-842F-E9BB22E99E3C";
paths = (
{
closed = 1;
nodes = (
"318 0 LINE",
"392 266 LINE",
"392 879 LINE",
"177 879 LINE",
"177 1311 LINE",
"219 1459 LINE",
"379 1459 LINE",
"379 1600 LINE",
"101 1600 LINE",
"27 1317 LINE",
"27 722 LINE",
"240 722 LINE",
"240 271 LINE",
"202 144 LINE",
"27 144 LINE",
"27 0 LINE"
);
}
);
width = 435;
},
{
layerId = "5E27AD2D-EA42-4F80-9479-E0FC49C091FF";
paths = (
{
closed = 1;
nodes = (
"2125 0 LINE",
"2436 437 LINE",
"2436 959 LINE",
"576 959 LINE",
"576 1064 LINE",
"739 1287 LINE",
"2399 1287 LINE",
"2399 1600 LINE",
"483 1600 LINE",
"169 1145 LINE",
"169 647 LINE",
"2026 647 LINE",
"2026 518 LINE",
"1862 314 LINE",
"167 314 LINE",
"167 0 LINE"
);
}
);
width = 2615;
}
);
},
{
glyphname = Z.wide;
lastChange = "2020-09-23 00:44:30 +0000";
layers = (
{
layerId = "1577B97C-DCC5-4AA4-842F-E9BB22E99E3C";
paths = (
{
closed = 1;
nodes = (
"426 0 LINE",
"426 149 LINE",
"178 149 LINE",
"178 346 LINE",
"427 1388 LINE",
"427 1600 LINE",
"29 1600 LINE",
"29 1451 LINE",
"274 1451 LINE",
"274 1382 LINE",
"26 349 LINE",
"26 0 LINE"
);
}
);
width = 456;
},
{
layerId = "5E27AD2D-EA42-4F80-9479-E0FC49C091FF";
paths = (
{
closed = 1;
nodes = (
"2497 0 LINE",
"2497 333 LINE",
"646 333 LINE",
"646 433 LINE",
"2456 1047 LINE",
"2456 1600 LINE",
"199 1600 LINE",
"199 1267 LINE",
"1999 1267 LINE",
"1999 1236 LINE",
"189 629 LINE",
"189 0 LINE"
);
}
);
width = 2691;
}
);
},
{
export = 0;
glyphname = Eth;
lastChange = "2020-09-22 19:37:06 +0000";
layers = (
{
layerId = "1577B97C-DCC5-4AA4-842F-E9BB22E99E3C";
width = 417;
},
{
components = (
{
name = D;
}
);
layerId = "5E27AD2D-EA42-4F80-9479-E0FC49C091FF";
paths = (
{
closed = 1;
nodes = (
"1274 694 LINE",
"1274 952 LINE",
"-106 952 LINE",
"-106 694 LINE"
);
}
);
width = 2807;
}
);
unicode = 00D0;
},
{
glyphname = a;
lastChange = "2020-09-22 22:00:54 +0000";
layers = (
{
layerId = "1577B97C-DCC5-4AA4-842F-E9BB22E99E3C";
paths = (
{
closed = 1;
nodes = (
"199 0 LINE",
"243 89 LINE",
"286 0 LINE",
"371 0 LINE",
"371 1200 LINE",
"92 1200 LINE",
"23 826 LINE",
"23 0 LINE"
);
},
{
closed = 1;
nodes = (
"171 821 LINE",
"213 1062 LINE",
"223 1062 LINE",
"223 137 LINE",
"171 137 LINE"
);
}
);
width = 392;
},
{
layerId = "5E27AD2D-EA42-4F80-9479-E0FC49C091FF";
paths = (
{
closed = 1;
nodes = (
"1324 0 LINE",
"1523 247 LINE",
"1623 0 LINE",
"1966 0 LINE",
"1966 1400 LINE",
"624 1400 LINE",
"106 772 LINE",
"106 0 LINE"
);
},
{
closed = 1;
nodes = (
"549 692 LINE",
"872 1093 LINE",
"1523 1093 LINE",
"1523 307 LINE",
"549 307 LINE"
);
}
);
width = 2130;
}
);
unicode = 0061;
},
{
glyphname = b;
lastChange = "2020-09-22 19:40:53 +0000";
layers = (
{
layerId = "1577B97C-DCC5-4AA4-842F-E9BB22E99E3C";
paths = (
{
closed = 1;
nodes = (
"296 0 LINE",
"370 274 LINE",
"370 1200 LINE",
"248 1200 LINE",
"168 1103 LINE",
"168 1600 LINE",
"22 1600 LINE",
"21 0 LINE"
);
},
{
closed = 1;
nodes = (
"168 1062 LINE",
"219 1062 LINE",
"219 290 LINE",
"182 146 LINE",
"168 146 LINE"
);
}
);
width = 390;
},
{
layerId = "5E27AD2D-EA42-4F80-9479-E0FC49C091FF";
paths = (
{
closed = 1;
nodes = (
"1847 0 LINE",
"2172 398 LINE",
"2172 1400 LINE",
"835 1400 LINE",
"615 1133 LINE",
"615 1800 LINE",
"173 1800 LINE",
"173 0 LINE"
);
},
{
closed = 1;
nodes = (
"616 1093 LINE",
"1729 1093 LINE",
"1729 479 LINE",
"1588 307 LINE",
"616 307 LINE"
);
}
);
width = 2308;
}
);
unicode = 0062;
},
{
glyphname = c;
lastChange = "2020-09-22 13:03:52 +0000";
layers = (
{
layerId = "1577B97C-DCC5-4AA4-842F-E9BB22E99E3C";
paths = (
{
closed = 1;
nodes = (
"20 0 LINE",
"20 922 LINE",
"95 1200 LINE",
"273 1200 LINE",
"273 1062 LINE",
"203 1062 LINE",
"168 917 LINE",
"168 138 LINE",
"273 138 LINE",
"273 0 LINE"
);
}
);
width = 278;
},
{
layerId = "5E27AD2D-EA42-4F80-9479-E0FC49C091FF";
paths = (
{
closed = 1;
nodes = (
"135 0 LINE",
"135 1002 LINE",
"461 1400 LINE",
"1757 1400 LINE",
"1757 1093 LINE",
"724 1093 LINE",
"578 920 LINE",
"578 307 LINE",
"1757 307 LINE",
"1757 0 LINE"
);
}
);
width = 1880;
}
);
unicode = 0063;
},
{
glyphname = d;
lastChange = "2020-09-22 13:15:30 +0000";
layers = (
{
layerId = "1577B97C-DCC5-4AA4-842F-E9BB22E99E3C";
paths = (
{
closed = 1;
nodes = (
"303 0 LINE",
"378 276 LINE",
"378 1600 LINE",
"230 1600 LINE",
"230 1200 LINE",
"95 1200 LINE",
"20 922 LINE",
"20 0 LINE"
);
},
{
closed = 1;
nodes = (
"168 917 LINE",
"203 1062 LINE",
"230 1062 LINE",
"230 282 LINE",
"196 138 LINE",
"168 138 LINE"
);
}
);
width = 392;
},
{
layerId = "5E27AD2D-EA42-4F80-9479-E0FC49C091FF";
paths = (
{
closed = 1;
nodes = (
"1843 0 LINE",
"2169 398 LINE",
"2169 1800 LINE",
"1726 1800 LINE",
"1726 1400 LINE",
"461 1400 LINE",
"135 1002 LINE",
"135 0 LINE"
);
},
{
closed = 1;
nodes = (
"578 920 LINE",
"724 1093 LINE",
"1726 1093 LINE",
"1726 480 LINE",
"1580 307 LINE",
"578 307 LINE"
);
}
);
width = 2301;
}
);
unicode = 0064;
},
{
glyphname = e;
lastChange = "2020-09-22 13:15:49 +0000";
layers = (
{
layerId = "1577B97C-DCC5-4AA4-842F-E9BB22E99E3C";
paths = (
{
closed = 1;
nodes = (
"362 0 LINE",
"362 138 LINE",
"168 138 LINE",
"168 396 LINE",
"355 396 LINE",
"355 1200 LINE",
"95 1200 LINE",
"20 922 LINE",
"20 0 LINE"
);
},
{
closed = 1;
nodes = (
"168 917 LINE",
"203 1062 LINE",
"207 1062 LINE",
"207 534 LINE",
"168 534 LINE"
);
}
);
width = 380;
},
{
layerId = "5E27AD2D-EA42-4F80-9479-E0FC49C091FF";
paths = (
{
closed = 1;
nodes = (
"2001 0 LINE",
"2001 307 LINE",
"577 307 LINE",
"577 521 LINE",
"1971 521 LINE",
"1971 1400 LINE",
"461 1400 LINE",
"135 1002 LINE",
"135 0 LINE"
);
},
{
closed = 1;
nodes = (
"578 919 LINE",
"724 1093 LINE",
"1538 1093 LINE",
"1538 798 LINE",
"578 798 LINE"
);
}
);
width = 2134;
}
);
unicode = 0065;
},
{
glyphname = f;
lastChange = "2020-09-23 00:09:29 +0000";
layers = (
{
layerId = "1577B97C-DCC5-4AA4-842F-E9BB22E99E3C";
paths = (
{
closed = 1;
nodes = (
"63 1322 LINE",
"138 1600 LINE",
"332 1600 LINE",
"332 1463 LINE",
"246 1463 LINE",
"211 1317 LINE",
"211 0 LINE",
"63 0 LINE"
);
},
{
closed = 1;
nodes = (
"16 965 LINE",
"82 965 LINE",
"169 838 LINE",
"254 995 LINE",
"312 995 LINE",
"312 817 LINE",
"16 817 LINE"
);
}
);
width = 313;
},
{
layerId = "5E27AD2D-EA42-4F80-9479-E0FC49C091FF";
paths = (
{
closed = 1;
nodes = (
"363 1405 LINE",
"687 1800 LINE",
"1689 1800 LINE",
"1689 1493 LINE",
"950 1493 LINE",
"806 1321 LINE",
"806 0 LINE",
"363 0 LINE"
);
},
{
closed = 1;
nodes = (
"91 1039 LINE",
"648 1039 LINE",
"778 732 LINE",
"1025 1039 LINE",
"1624 1039 LINE",
"1624 732 LINE",
"91 732 LINE"
);
}
);
width = 1682;
}
);
unicode = 0066;
},
{
glyphname = g;
lastChange = "2020-09-23 01:52:24 +0000";
layers = (
{
layerId = "1577B97C-DCC5-4AA4-842F-E9BB22E99E3C";
paths = (
{
closed = 1;
nodes = (
"324 -229 LINE",
"374 -23 LINE",
"374 1200 LINE",
"99 1200 LINE",
"20 922 LINE",
"20 0 LINE",
"181 0 LINE",
"226 111 LINE",
"226 -12 LINE",
"204 -105 LINE",
"79 -105 LINE",
"79 -229 LINE"
);
},
{
closed = 1;
nodes = (
"168 917 LINE",
"203 1062 LINE",
"226 1062 LINE",
"226 137 LINE",
"168 137 LINE"
);
}
);
width = 403;
},
{
layerId = "5E27AD2D-EA42-4F80-9479-E0FC49C091FF";
paths = (
{
closed = 1;
nodes = (
"1683 -400 LINE",
"2013 0 LINE",
"2013 1400 LINE",
"466 1400 LINE",
"128 994 LINE",
"128 70 LINE",
"1328 70 LINE",
"1570 345 LINE",
"1570 86 LINE",
"1415 -92 LINE",
"369 -92 LINE",
"369 -400 LINE"
);
},
{
closed = 1;
nodes = (
"571 921 LINE",
"717 1093 LINE",
"1570 1093 LINE",
"1570 377 LINE",
"571 377 LINE"
);
}
);
width = 2153;
}
);
unicode = 0067;
},
{
glyphname = h;
lastChange = "2020-09-22 22:01:07 +0000";
layers = (
{
layerId = "1577B97C-DCC5-4AA4-842F-E9BB22E99E3C";
paths = (
{
closed = 1;
nodes = (
"171 0 LINE",
"171 1062 LINE",
"222 1062 LINE",
"222 0 LINE",
"370 0 LINE",
"370 1200 LINE",
"241 1200 LINE",
"171 1113 LINE",
"171 1600 LINE",
"25 1600 LINE",
"25 0 LINE"
);
}
);
width = 387;
},
{
layerId = "5E27AD2D-EA42-4F80-9479-E0FC49C091FF";
paths = (
{
closed = 1;
nodes = (
"617 0 LINE",
"617 1093 LINE",
"1558 1093 LINE",
"1558 0 LINE",
"2001 0 LINE",
"2001 1400 LINE",
"845 1400 LINE",
"616 1119 LINE",
"616 1800 LINE",
"173 1800 LINE",
"173 0 LINE"
);
}
);
width = 2165;
}
);
unicode = 0068;
},
{
glyphname = i;
lastChange = "2020-09-22 13:16:34 +0000";
layers = (
{
hints = (
{
horizontal = 1;
origin = "{0, 1}";
type = Delta;
settings = {
deltaV = {
"{100, 100, 0, 0, 0, 0}" = {
"12" = -8;
};
};
};
},
{
horizontal = 1;
origin = "{0, 2}";
type = Delta;
settings = {
deltaV = {
"{100, 100, 0, 0, 0, 0}" = {
"12" = -8;
};
};
};
}
);
layerId = "1577B97C-DCC5-4AA4-842F-E9BB22E99E3C";
paths = (
{
closed = 1;
nodes = (
"171 0 LINE",
"171 1200 LINE",
"25 1200 LINE",
"25 0 LINE"
);
},
{
closed = 1;
nodes = (
"171 1280 LINE",
"171 1417 LINE",
"25 1417 LINE",
"25 1280 LINE"
);
}
);
width = 196;
},
{
layerId = "5E27AD2D-EA42-4F80-9479-E0FC49C091FF";
paths = (
{
closed = 1;
nodes = (
"603 0 LINE",
"603 1400 LINE",
"170 1400 LINE",
"170 0 LINE"
);
},
{
closed = 1;
nodes = (
"613 1493 LINE",
"613 1800 LINE",
"170 1800 LINE",
"170 1493 LINE"
);
}
);
width = 783;
}
);
unicode = 0069;
},
{
glyphname = j;
lastChange = "2020-09-23 01:52:16 +0000";
layers = (
{
layerId = "1577B97C-DCC5-4AA4-842F-E9BB22E99E3C";
paths = (
{
closed = 1;
nodes = (
"99 -229 LINE",
"174 47 LINE",
"174 1200 LINE",
"26 1200 LINE",
"26 46 LINE",
"-8 -91 LINE",
"-81 -91 LINE",
"-81 -229 LINE"
);
},
{
closed = 1;
nodes = (
"172 1293 LINE",
"172 1430 LINE",
"26 1430 LINE",
"26 1293 LINE"
);
}
);
width = 207;
},
{
layerId = "5E27AD2D-EA42-4F80-9479-E0FC49C091FF";
paths = (
{
closed = 1;
nodes = (
"452 -400 LINE",
"829 65 LINE",
"829 1400 LINE",
"386 1400 LINE",
"386 149 LINE",
"222 -53 LINE",
"-87 -53 LINE",
"-87 -400 LINE"
);
},
{
closed = 1;
nodes = (
"828 1493 LINE",
"828 1800 LINE",
"385 1800 LINE",
"385 1493 LINE"
);
}
);
width = 1046;
}
);
unicode = 006A;
},
{
glyphname = k;
lastChange = "2020-09-22 21:18:33 +0000";
layers = (
{
layerId = "1577B97C-DCC5-4AA4-842F-E9BB22E99E3C";
paths = (
{
closed = 1;
nodes = (
"230 641 LINE",
"230 0 LINE",
"376 0 LINE",
"376 780 LINE",
"277 780 LINE",
"318 678 LINE",
"376 1191 LINE",
"242 1212 LINE",
"199 780 LINE",
"120 780 LINE",
"120 641 LINE"
);
},
{
closed = 1;
nodes = (
"171 0 LINE",
"171 1800 LINE",
"25 1800 LINE",
"25 0 LINE"
);
}
);
width = 399;
},
{
layerId = "5E27AD2D-EA42-4F80-9479-E0FC49C091FF";
paths = (
{
closed = 1;
nodes = (
"1514 642 LINE",
"1514 0 LINE",
"1957 0 LINE",
"1957 928 LINE",
"1361 928 LINE",
"1406 827 LINE",
"1762 1338 LINE",
"1415 1459 LINE",
"1057 949 LINE",
"273 949 LINE",
"273 642 LINE"
);
},
{
closed = 1;
nodes = (
"599 0 LINE",
"599 1800 LINE",
"166 1800 LINE",
"166 0 LINE"
);
}
);
width = 2108;
}
);
unicode = 006B;
},
{
glyphname = l;
lastChange = "2020-09-22 13:16:50 +0000";
layers = (
{
layerId = "1577B97C-DCC5-4AA4-842F-E9BB22E99E3C";
paths = (
{
closed = 1;
nodes = (
"171 0 LINE",
"171 1600 LINE",
"25 1600 LINE",
"25 0 LINE"
);
}
);
width = 196;
},
{
layerId = "5E27AD2D-EA42-4F80-9479-E0FC49C091FF";
paths = (
{
closed = 1;
nodes = (
"609 0 LINE",
"609 1800 LINE",
"166 1800 LINE",
"166 0 LINE"
);
}
);
width = 775;
}
);
unicode = 006C;
},
{
glyphname = m;
lastChange = "2020-09-22 13:16:53 +0000";
layers = (
{
layerId = "1577B97C-DCC5-4AA4-842F-E9BB22E99E3C";
paths = (
{
closed = 1;
nodes = (
"165 0 LINE",
"165 917 LINE",
"200 1062 LINE",
"224 1062 LINE",
"224 0 LINE",
"372 0 LINE",
"372 1200 LINE",
"92 1200 LINE",
"17 922 LINE",
"17 0 LINE"
);
},
{
closed = 1;
nodes = (
"574 -2 LINE",
"574 1198 LINE",
"470 1198 LINE",
"317 1060 LINE",
"428 1060 LINE",
"428 -2 LINE"
);
}
);
width = 595;
},
{
layerId = "5E27AD2D-EA42-4F80-9479-E0FC49C091FF";
paths = (
{
closed = 1;
nodes = (
"555 0 LINE",
"555 844 LINE",
"762 1093 LINE",
"1393 1093 LINE",
"1393 0 LINE",
"1836 0 LINE",
"1836 1400 LINE",
"507 1400 LINE",
"112 928 LINE",
"112 0 LINE"
);
},
{
closed = 1;
nodes = (
"3088 0 LINE",
"3088 1400 LINE",
"2058 1400 LINE",
"1806 1093 LINE",
"2645 1093 LINE",
"2645 0 LINE"
);
}
);
width = 3252;
}
);
unicode = 006D;
},
{
glyphname = n;
lastChange = "2020-09-22 13:17:01 +0000";
layers = (
{
layerId = "1577B97C-DCC5-4AA4-842F-E9BB22E99E3C";
paths = (
{
closed = 1;
nodes = (
"165 0 LINE",
"165 917 LINE",
"200 1062 LINE",
"224 1062 LINE",
"224 0 LINE",
"372 0 LINE",
"372 1200 LINE",
"92 1200 LINE",
"17 922 LINE",
"17 0 LINE"
);
}
);
width = 393;
},
{
layerId = "5E27AD2D-EA42-4F80-9479-E0FC49C091FF";
paths = (
{
closed = 1;
nodes = (
"572 0 LINE",
"572 845 LINE",
"781 1093 LINE",
"1559 1093 LINE",
"1559 0 LINE",
"2003 0 LINE",
"2003 1400 LINE",
"525 1400 LINE",
"129 932 LINE",
"129 0 LINE"
);
}
);
width = 2167;
}
);
unicode = 006E;
},
{
glyphname = o;
lastChange = "2020-09-22 13:17:08 +0000";
layers = (
{
layerId = "1577B97C-DCC5-4AA4-842F-E9BB22E99E3C";
paths = (
{
closed = 1;
nodes = (
"303 0 LINE",
"378 276 LINE",
"378 1200 LINE",
"95 1200 LINE",
"20 922 LINE",
"20 0 LINE"
);
},
{
closed = 1;
nodes = (
"168 917 LINE",
"203 1062 LINE",
"230 1062 LINE",
"230 282 LINE",
"196 138 LINE",
"168 138 LINE"
);
}
);
width = 398;
},
{
layerId = "5E27AD2D-EA42-4F80-9479-E0FC49C091FF";
paths = (
{
closed = 1;
nodes = (
"1843 0 LINE",
"2169 398 LINE",
"2169 1400 LINE",
"461 1400 LINE",
"135 1002 LINE",
"135 0 LINE"
);
},
{
closed = 1;
nodes = (
"578 920 LINE",
"724 1093 LINE",
"1726 1093 LINE",
"1726 480 LINE",
"1580 307 LINE",
"578 307 LINE"
);
}
);
width = 2304;
}
);
unicode = 006F;
},
{
glyphname = p;
lastChange = "2020-09-23 01:52:06 +0000";
layers = (
{
layerId = "1577B97C-DCC5-4AA4-842F-E9BB22E99E3C";
paths = (
{
closed = 1;
nodes = (
"170 -229 LINE",
"170 0 LINE",
"305 0 LINE",
"380 278 LINE",
"380 1200 LINE",
"97 1200 LINE",
"22 924 LINE",
"22 -229 LINE"
);
},
{
closed = 1;
nodes = (
"170 918 LINE",
"204 1062 LINE",
"232 1062 LINE",
"232 283 LINE",
"197 138 LINE",
"170 138 LINE"
);
}
);
width = 400;
},
{
layerId = "5E27AD2D-EA42-4F80-9479-E0FC49C091FF";
paths = (
{
closed = 1;
nodes = (
"544 -400 LINE",
"544 0 LINE",
"1809 0 LINE",
"2135 398 LINE",
"2135 1400 LINE",
"427 1400 LINE",
"101 1002 LINE",
"101 -400 LINE"
);
},
{
closed = 1;
nodes = (
"544 920 LINE",
"690 1093 LINE",
"1692 1093 LINE",
"1692 480 LINE",
"1546 307 LINE",
"544 307 LINE"
);
}
);
width = 2270;
}
);
unicode = 0070;
},
{
glyphname = q;
lastChange = "2020-09-23 00:15:45 +0000";
layers = (
{
layerId = "1577B97C-DCC5-4AA4-842F-E9BB22E99E3C";
paths = (
{
closed = 1;
nodes = (
"378 -229 LINE",
"378 1200 LINE",
"95 1200 LINE",
"20 922 LINE",
"20 0 LINE",
"186 0 LINE",
"229 111 LINE",
"230 -229 LINE"
);
},
{
closed = 1;
nodes = (
"168 917 LINE",
"203 1062 LINE",
"230 1062 LINE",
"230 138 LINE",
"168 138 LINE"
);
}
);
width = 417;
},
{
layerId = "5E27AD2D-EA42-4F80-9479-E0FC49C091FF";
paths = (
{
closed = 1;
nodes = (
"2113 -400 LINE",
"2113 1400 LINE",
"460 1400 LINE",
"135 1002 LINE",
"135 0 LINE",
"1451 0 LINE",
"1671 267 LINE",
"1671 -400 LINE"
);
},
{
closed = 1;
nodes = (
"578 921 LINE",
"719 1093 LINE",
"1670 1093 LINE",
"1670 307 LINE",
"578 307 LINE"
);
}
);
width = 2274;
}
);
unicode = 0071;
},
{
glyphname = r;
lastChange = "2020-09-23 00:09:52 +0000";
layers = (
{
layerId = "1577B97C-DCC5-4AA4-842F-E9BB22E99E3C";
paths = (
{
closed = 1;
nodes = (
"168 0 LINE",
"168 887 LINE",
"203 1032 LINE",
"245 1032 LINE",
"245 1200 LINE",
"95 1200 LINE",
"20 922 LINE",
"20 0 LINE"
);
}
);
width = 248;
},
{
layerId = "5E27AD2D-EA42-4F80-9479-E0FC49C091FF";
paths = (
{
closed = 1;
nodes = (
"572 0 LINE",
"572 859 LINE",
"742 1063 LINE",
"1525 1063 LINE",
"1525 1400 LINE",
"495 1400 LINE",
"129 961 LINE",
"129 0 LINE"
);
}
);
width = 1520;
}
);
unicode = 0072;
},
{
glyphname = s;
lastChange = "2020-09-22 22:01:25 +0000";
layers = (
{
layerId = "1577B97C-DCC5-4AA4-842F-E9BB22E99E3C";
paths = (
{
closed = 1;
nodes = (
"222 0 LINE",
"277 200 LINE",
"277 674 LINE",
"153 674 LINE",
"153 953 LINE",
"182 1064 LINE",
"269 1064 LINE",
"269 1200 LINE",
"66 1200 LINE",
"10 988 LINE",
"10 529 LINE",
"133 529 LINE",
"133 231 LINE",
"104 136 LINE",
"11 136 LINE",
"11 0 LINE"
);
}
);
width = 287;
},
{
layerId = "5E27AD2D-EA42-4F80-9479-E0FC49C091FF";
paths = (
{
closed = 1;
nodes = (
"1622 0 LINE",
"1949 397 LINE",
"1949 852 LINE",
"579 852 LINE",
"579 918 LINE",
"724 1093 LINE",
"1919 1093 LINE",
"1919 1400 LINE",
"461 1400 LINE",
"136 999 LINE",
"136 545 LINE",
"1506 545 LINE",
"1506 479 LINE",
"1360 307 LINE",
"134 307 LINE",
"134 0 LINE"
);
}
);
width = 2071;
}
);
unicode = 0073;
},
{
glyphname = t;
lastChange = "2020-09-23 01:39:04 +0000";
layers = (
{
layerId = "1577B97C-DCC5-4AA4-842F-E9BB22E99E3C";
paths = (
{
closed = 1;
nodes = (
"267 0 LINE",
"267 149 LINE",
"173 149 LINE SMOOTH",
"173 1600 LINE",
"21 1600 LINE SMOOTH",
"21 0 LINE SMOOTH"
);
},
{
closed = 1;
nodes = (
"272 1012 LINE",
"272 1200 LINE",
"223 1200 LINE",
"165 1099 LINE",
"165 1012 LINE"
);
}
);
width = 275;
},
{
layerId = "5E27AD2D-EA42-4F80-9479-E0FC49C091FF";
paths = (
{
closed = 1;
nodes = (
"1551 0 LINE",
"1551 307 LINE",
"616 307 LINE",
"616 1600 LINE",
"173 1600 LINE",
"173 0 LINE"
);
},
{
closed = 1;
nodes = (
"1568 1063 LINE",
"1568 1400 LINE",
"814 1400 LINE",
"565 1096 LINE",
"565 1063 LINE"
);
}
);
width = 1688;
}
);
unicode = 0074;
},
{
glyphname = u;
lastChange = "2020-09-22 13:18:06 +0000";
layers = (
{
layerId = "1577B97C-DCC5-4AA4-842F-E9BB22E99E3C";
paths = (
{
closed = 1;
nodes = (
"182 0 LINE",
"231 111 LINE",
"276 0 LINE",
"373 0 LINE",
"373 1200 LINE",
"225 1200 LINE",
"225 137 LINE",
"169 137 LINE",
"169 1200 LINE",
"21 1200 LINE",
"21 0 LINE"
);
}
);
width = 394;
},
{
layerId = "5E27AD2D-EA42-4F80-9479-E0FC49C091FF";
paths = (
{
closed = 1;
nodes = (
"1416 0 LINE",
"1614 250 LINE",
"1713 0 LINE",
"2057 0 LINE",
"2057 1400 LINE",
"1613 1400 LINE",
"1613 307 LINE",
"609 307 LINE",
"609 1400 LINE",
"166 1400 LINE",
"166 0 LINE"
);
}
);
width = 2223;
}
);
unicode = 0075;
},
{
glyphname = v;
lastChange = "2020-09-22 13:18:09 +0000";
layers = (
{
layerId = "1577B97C-DCC5-4AA4-842F-E9BB22E99E3C";
paths = (
{
closed = 1;
nodes = (
"319 0 LINE",
"363 1199 LINE",
"226 1213 LINE",
"197 136 LINE",
"181 136 LINE",
"152 1213 LINE",
"15 1199 LINE",
"59 0 LINE"
);
}
);
width = 378;
},
{
layerId = "5E27AD2D-EA42-4F80-9479-E0FC49C091FF";
paths = (
{
closed = 1;
nodes = (
"1607 0 LINE SMOOTH",
"2080 1363 LINE SMOOTH",
"1644 1459 LINE SMOOTH",
"1290 307 LINE",
"841 307 LINE SMOOTH",
"492 1459 LINE",
"55 1362 LINE SMOOTH",
"523 0 LINE"
);
}
);
width = 2135;
}
);
unicode = 0076;
},
{
glyphname = w;
lastChange = "2020-09-23 01:37:32 +0000";
layers = (
{
layerId = "1577B97C-DCC5-4AA4-842F-E9BB22E99E3C";
paths = (
{
closed = 1;
nodes = (
"315 0 LINE",
"360 1064 LINE",
"365 1064 LINE",
"408 0 LINE",
"693 0 LINE",
"693 1200 LINE",
"556 1200 LINE",
"556 149 LINE",
"541 149 LINE",
"476 1200 LINE",
"249 1200 LINE",
"183 149 LINE",
"168 149 LINE",
"168 1200 LINE",
"30 1200 LINE",
"30 0 LINE"
);
}
);
width = 689;
},
{
layerId = "5E27AD2D-EA42-4F80-9479-E0FC49C091FF";
paths = (
{
closed = 1;
nodes = (
"1204 0 LINE",
"1481 1073 LINE",
"1720 1073 LINE",
"1996 0 LINE",
"3038 0 LINE",
"3038 1398 LINE",
"2605 1398 LINE",
"2605 306 LINE",
"2357 306 LINE",
"2051 1380 LINE",
"1153 1380 LINE",
"847 306 LINE",
"599 306 LINE",
"599 1398 LINE",
"166 1398 LINE",
"166 0 LINE"
);
}
);
width = 3204;
},
{
associatedMasterId = "5E27AD2D-EA42-4F80-9479-E0FC49C091FF";
layerId = "0B98D4AD-FEBA-46E1-9DC4-3B9D06EBC4B1";
name = test;
paths = (
{
closed = 1;
nodes = (
"2747 0 LINE",
"3142 472 LINE",
"3142 1400 LINE",
"2699 1400 LINE",
"2699 556 LINE",
"2492 307 LINE",
"1861 307 LINE",
"1861 1400 LINE",
"1418 1400 LINE",
"1418 0 LINE"
);
},
{
closed = 1;
nodes = (
"1196 0 LINE",
"1448 307 LINE",
"609 307 LINE",
"609 1400 LINE",
"166 1400 LINE",
"166 0 LINE"
);
}
);
width = 3538;
}
);
unicode = 0077;
},
{
glyphname = x;
lastChange = "2020-09-22 21:59:48 +0000";
layers = (
{
layerId = "1577B97C-DCC5-4AA4-842F-E9BB22E99E3C";
paths = (
{
closed = 1;
nodes = (
"419 0 LINE",
"419 136 LINE",
"393 136 LINE",
"135 1200 LINE",
"-10 1200 LINE",
"-10 1064 LINE",
"20 1064 LINE",
"276 0 LINE"
);
},
{
closed = 1;
nodes = (
"180 578 LINE",
"88 578 LINE",
"7 0 LINE",
"172 -8 LINE"
);
},
{
closed = 1;
nodes = (
"318 670 LINE",
"400 1200 LINE",
"239 1209 LINE",
"228 670 LINE"
);
}
);
width = 409;
},
{
guideLines = (
{
position = "{661, 749}";
}
);
layerId = "5E27AD2D-EA42-4F80-9479-E0FC49C091FF";
paths = (
{
closed = 1;
nodes = (
"1799 0 LINE",
"1799 327 LINE",
"1564 327 LINE",
"559 1400 LINE",
"46 1400 LINE",
"46 1073 LINE",
"342 1073 LINE",
"1339 0 LINE"
);
},
{
closed = 1;
nodes = (
"960 654 LINE",
"449 654 LINE",
"28 177 LINE",
"317 -59 LINE"
);
},
{
closed = 1;
nodes = (
"1346 786 LINE",
"1760 1212 LINE",
"1440 1459 LINE",
"865 786 LINE"
);
}
);
width = 1814;
}
);
unicode = 0078;
},
{
glyphname = y;
lastChange = "2020-09-23 00:16:06 +0000";
layers = (
{
layerId = "1577B97C-DCC5-4AA4-842F-E9BB22E99E3C";
paths = (
{
closed = 1;
nodes = (
"358 1199 LINE",
"221 1213 LINE",
"192 136 LINE",
"166 136 LINE",
"147 1213 LINE",
"10 1199 LINE",
"44 0 LINE",
"178 0 LINE",
"166 -223 LINE",
"295 -231 LINE"
);
}
);
width = 360;
},
{
layerId = "5E27AD2D-EA42-4F80-9479-E0FC49C091FF";
paths = (
{
closed = 1;
nodes = (
"2028 1323 LINE SMOOTH",
"1576 1460 LINE SMOOTH",
"1200 327 LINE",
"822 327 LINE SMOOTH",
"452 1461 LINE",
"0 1323 LINE SMOOTH",
"504 0 LINE",
"1096 0 LINE",
"962 -338 LINE",
"1366 -459 LINE"
);
}
);
width = 1964;
}
);
unicode = 0079;
},
{
glyphname = z;
lastChange = "2020-09-22 13:03:52 +0000";
layers = (
{
layerId = "1577B97C-DCC5-4AA4-842F-E9BB22E99E3C";
paths = (
{
closed = 1;
nodes = (
"270 0 LINE",
"270 137 LINE",
"139 137 LINE",
"139 182 LINE",
"270 1031 LINE",
"270 1200 LINE",
"11 1200 LINE",
"11 1063 LINE",
"140 1063 LINE",
"140 1031 LINE",
"5 182 LINE",
"5 0 LINE"
);
}
);
width = 275;
},
{
layerId = "5E27AD2D-EA42-4F80-9479-E0FC49C091FF";
paths = (
{
closed = 1;
nodes = (
"1806 0 LINE",
"1806 307 LINE",
"672 307 LINE",
"672 327 LINE",
"1746 1038 LINE",
"1746 1400 LINE",
"154 1400 LINE",
"154 1093 LINE",
"1173 1093 LINE",
"1173 1066 LINE",
"124 362 LINE",
"124 0 LINE"
);
}
);
width = 1890;
}
);
unicode = 007A;
},
{
glyphname = ordfeminine;
lastChange = "2020-09-22 13:03:52 +0000";
layers = (
{
layerId = "1577B97C-DCC5-4AA4-842F-E9BB22E99E3C";
paths = (
{
closed = 1;
nodes = (
"28 1314 LINE",
"28 1000 LINE SMOOTH",
"82 1000 LINE SMOOTH",
"82 1266 LINE SMOOTH",
"176 1266 LINE SMOOTH",
"176 1000 LINE SMOOTH",
"230 1000 LINE SMOOTH",
"230 1600 LINE SMOOTH",
"28 1600 LINE SMOOTH",
"28 1389 LINE",
"82 1389 LINE",
"82 1553 LINE SMOOTH",
"176 1553 LINE SMOOTH",
"176 1314 LINE SMOOTH"
);
},
{
closed = 1;
nodes = (
"80 1000 LINE",
"176 1000 LINE",
"176 1047 LINE",
"80 1047 LINE"
);
}
);
width = 253;
},
{
layerId = "5E27AD2D-EA42-4F80-9479-E0FC49C091FF";
paths = (
{
closed = 1;
nodes = (
"72 1265 LINE",
"72 843 LINE SMOOTH",
"284 843 LINE SMOOTH",
"284 1124 LINE SMOOTH",
"750 1124 LINE SMOOTH",
"750 843 LINE SMOOTH",
"961 843 LINE SMOOTH",
"961 1600 LINE SMOOTH",
"72 1600 LINE SMOOTH",
"72 1339 LINE",
"284 1339 LINE",
"284 1458 LINE SMOOTH",
"750 1458 LINE SMOOTH",
"750 1265 LINE"
);
},
{
closed = 1;
nodes = (
"282 843 LINE",
"750 843 LINE",
"750 985 LINE",
"282 985 LINE"
);
}
);
width = 1031;
}
);
unicode = 00AA;
},
{
glyphname = zero;
lastChange = "2020-09-22 19:32:06 +0000";
layers = (
{
layerId = "1577B97C-DCC5-4AA4-842F-E9BB22E99E3C";
paths = (
{
closed = 1;
nodes = (
"431 0 LINE",
"431 1600 LINE",
"43 1600 LINE",
"43 0 LINE"
);
},
{
closed = 1;
nodes = (
"195 1451 LINE",
"279 1451 LINE",
"279 149 LINE",
"195 149 LINE"
);
}
);
userData = {
com.schriftgestaltung.Glyphs.lastChange = "2019-04-28 06:00:43 +0000";
com.typemytype.robofont.pointLabels = {
4KX3b3mGg4 = (
leftside
);
NaxGoenf3y = (
rightside
);
V2j8wYP0nr = (
rightside
);
rx6fJSLiri = (
leftside
);
};
};
width = 473;
},
{
layerId = "5E27AD2D-EA42-4F80-9479-E0FC49C091FF";
paths = (
{
closed = 1;
nodes = (
"2621 0 LINE",
"2621 1600 LINE",
"264 1600 LINE",
"264 0 LINE"
);
},
{
closed = 1;
nodes = (
"707 1268 LINE",
"2177 1268 LINE",
"2177 332 LINE",
"707 332 LINE"
);
}
);
userData = {
com.schriftgestaltung.Glyphs.lastChange = "2020-09-19 16:28:55 +0000";
com.typemytype.robofont.pointLabels = {
4KX3b3mGg4 = (
leftside
);
NaxGoenf3y = (
rightside
);
V2j8wYP0nr = (
rightside
);
rx6fJSLiri = (
leftside
);
};
};
width = 2885;
}
);
unicode = 0030;
},
{
glyphname = one;
lastChange = "2020-09-22 19:32:06 +0000";
layers = (
{
layerId = "1577B97C-DCC5-4AA4-842F-E9BB22E99E3C";
paths = (
{
closed = 1;
nodes = (
"274 0 LINE",
"274 149 LINE",
"215 149 LINE",
"215 1600 LINE",
"113 1600 LINE",
"4 1500 LINE",
"4 1351 LINE",
"63 1403 LINE",
"63 149 LINE",
"4 149 LINE",
"4 0 LINE"
);
}
);
userData = {
com.schriftgestaltung.Glyphs.lastChange = "2019-04-28 05:24:39 +0000";
com.typemytype.robofont.pointLabels = {
0DUCJo8xIi = (
rightside
);
4rjIeWbSbx = (
rightside
);
5nmxQXofSG = (
rightside
);
CURJAw79Zl = (
rightside
);
};
};
width = 275;
},
{
layerId = "5E27AD2D-EA42-4F80-9479-E0FC49C091FF";
paths = (
{
closed = 1;
nodes = (
"2149 0 LINE",
"2149 332 LINE",
"1369 332 LINE",
"1369 1600 LINE",
"936 1600 LINE",
"159 1200 LINE",
"298 867 LINE",
"925 1172 LINE",
"925 332 LINE",
"99 332 LINE",
"99 0 LINE"
);
}
);
userData = {
com.schriftgestaltung.Glyphs.lastChange = "2020-09-19 16:28:55 +0000";
com.typemytype.robofont.pointLabels = {
};
};
width = 2251;
}
);
unicode = 0031;
},
{
glyphname = two;
lastChange = "2020-09-23 00:24:42 +0000";
layers = (
{
layerId = "1577B97C-DCC5-4AA4-842F-E9BB22E99E3C";
paths = (
{
closed = 1;
nodes = (
"394 0 LINE",
"394 149 LINE",
"182 149 LINE",
"182 720 LINE",
"381 720 LINE",
"381 1600 LINE",
"30 1600 LINE",
"30 1091 LINE",
"182 1091 LINE",
"182 1451 LINE",
"229 1451 LINE",
"229 869 LINE",
"30 869 LINE",
"30 0 LINE"
);
}
);
userData = {
com.schriftgestaltung.Glyphs.lastChange = "2019-04-28 12:46:41 +0000";
com.typemytype.robofont.pointLabels = {
0Ajshqnglh = (
leftside
);
BMi3iTgbBs = (
leftside
);
FoZtLrSAm0 = (
rightside,
leftside,
crossbar
);
QzZqP70XaF = (
leftside
);
T0oGDgxW6o = (
rightside,
leftside,
crossbar
);
bZx9vXVxsz = (
leftside
);
d3YBitZOVz = (
rightside
);
fasUGvhWy6 = (
rightside,
leftside,
crossbar
);
tr1cNbQvAW = (
rightside
);
upRyW44osQ = (
rightside
);
xHiuR7oaYL = (
rightside,
leftside,
crossbar
);
};
};
width = 419;
},
{
layerId = "5E27AD2D-EA42-4F80-9479-E0FC49C091FF";
paths = (
{
closed = 1;
nodes = (
"2473 0 LINE",
"2473 320 LINE",
"655 320 LINE",
"655 598 LINE",
"2370 598 LINE",
"2370 1600 LINE",
"347 1600 LINE",
"347 1074 LINE",
"790 1074 LINE",
"790 1280 LINE",
"1926 1280 LINE",
"1926 918 LINE",
"208 918 LINE",
"208 0 LINE"
);
}
);
userData = {
com.schriftgestaltung.Glyphs.lastChange = "2020-09-19 16:28:55 +0000";
com.typemytype.robofont.pointLabels = {
0Ajshqnglh = (
leftside
);
BMi3iTgbBs = (
leftside
);
FoZtLrSAm0 = (
rightside,
leftside,
crossbar
);
QzZqP70XaF = (
leftside
);
T0oGDgxW6o = (
rightside,
leftside,
crossbar
);
bZx9vXVxsz = (
leftside
);
d3YBitZOVz = (
rightside
);
fasUGvhWy6 = (
rightside,
leftside,
crossbar
);
tr1cNbQvAW = (
rightside
);
upRyW44osQ = (
rightside
);
xHiuR7oaYL = (
rightside,
leftside,
crossbar
);
};
};
width = 2646;
}
);
unicode = 0032;
},
{
glyphname = three;
lastChange = "2020-09-22 19:32:06 +0000";
layers = (
{
layerId = "1577B97C-DCC5-4AA4-842F-E9BB22E99E3C";
paths = (
{
closed = 1;
nodes = (
"414 0 LINE",
"414 873 LINE",
"328 873 LINE",
"404 1050 LINE",
"404 1600 LINE",
"39 1600 LINE",
"39 1120 LINE",
"191 1120 LINE",
"191 1451 LINE",
"252 1451 LINE",
"252 1039 LINE",
"187 873 LINE",
"117 873 LINE",
"117 724 LINE",
"262 724 LINE",
"262 149 LINE",
"185 149 LINE",
"185 514 LINE",
"32 514 LINE",
"32 0 LINE"
);
}
);
userData = {
com.schriftgestaltung.Glyphs.lastChange = "2019-04-28 05:20:01 +0000";
com.typemytype.robofont.pointLabels = {
};
};
width = 451;
},
{
layerId = "5E27AD2D-EA42-4F80-9479-E0FC49C091FF";
paths = (
{
closed = 1;
nodes = (
"2570 0 LINE",
"2570 949 LINE",
"2229 949 LINE",
"2408 1173 LINE",
"2408 1600 LINE",
"291 1600 LINE",
"291 1000 LINE",
"735 1000 LINE",
"735 1274 LINE",
"1965 1274 LINE",
"1965 1174 LINE",
"1804 969 LINE",
"1058 969 LINE",
"1058 661 LINE",
"2126 661 LINE",
"2126 326 LINE",
"642 326 LINE",
"642 622 LINE",
"199 622 LINE",
"199 0 LINE"
);
}
);
userData = {
com.schriftgestaltung.Glyphs.lastChange = "2020-09-19 16:28:55 +0000";
com.typemytype.robofont.pointLabels = {
};
};
width = 2747;
}
);
unicode = 0033;
},
{
glyphname = four;
lastChange = "2020-09-22 19:32:06 +0000";
layers = (
{
layerId = "1577B97C-DCC5-4AA4-842F-E9BB22E99E3C";
paths = (
{
closed = 1;
nodes = (
"391 0 LINE",
"391 720 LINE",
"444 720 LINE",
"444 869 LINE",
"391 869 LINE",
"391 1600 LINE",
"239 1600 LINE",
"239 869 LINE",
"170 869 LINE",
"170 960 LINE",
"209 1613 LINE",
"68 1628 LINE",
"18 959 LINE",
"18 720 LINE",
"239 720 LINE",
"239 0 LINE"
);
}
);
userData = {
com.schriftgestaltung.Glyphs.lastChange = "2019-04-28 05:20:24 +0000";
};
width = 455;
},
{
layerId = "5E27AD2D-EA42-4F80-9479-E0FC49C091FF";
paths = (
{
closed = 1;
nodes = (
"2141 0 LINE",
"2141 603 LINE",
"2398 603 LINE",
"2398 934 LINE",
"2141 934 LINE",
"2141 1600 LINE",
"1698 1600 LINE",
"1698 934 LINE",
"519 934 LINE",
"519 1030 LINE",
"710 1546 LINE",
"319 1631 LINE",
"75 1030 LINE",
"75 603 LINE",
"1698 603 LINE",
"1698 0 LINE"
);
}
);
userData = {
com.schriftgestaltung.Glyphs.lastChange = "2020-09-19 16:28:55 +0000";
};
width = 2500;
}
);
unicode = 0034;
},
{
glyphname = five;
lastChange = "2020-09-22 19:32:06 +0000";
layers = (
{
layerId = "1577B97C-DCC5-4AA4-842F-E9BB22E99E3C";
paths = (
{
closed = 1;
nodes = (
"409 0 LINE",
"409 885 LINE",
"182 885 LINE",
"182 1451 LINE",
"409 1451 LINE",
"409 1600 LINE",
"30 1600 LINE",
"30 736 LINE",
"257 736 LINE",
"257 149 LINE",
"184 149 LINE",
"184 502 LINE",
"32 502 LINE",
"32 0 LINE"
);
}
);
userData = {
com.schriftgestaltung.Glyphs.lastChange = "2019-04-28 05:25:33 +0000";
com.typemytype.robofont.pointLabels = {
AlMtGpcmf6 = (
rightside,
leftside,
crossbar
);
GxHslptW0F = (
leftside
);
SWxRhN59bN = (
rightside
);
Wam28MqnPG = (
rightside,
leftside,
crossbar
);
X2pSUpzeW3 = (
leftside
);
c38TcsNPOL = (
rightside,
leftside,
crossbar
);
ejjvaR50qr = (
leftside
);
kEx7Jk7fPR = (
rightside
);
pdTUrgsN3b = (
rightside,
leftside,
crossbar
);
pwqGB8iowo = (
rightside
);
zlgP441jBh = (
rightside
);
};
};
width = 438;
},
{
layerId = "5E27AD2D-EA42-4F80-9479-E0FC49C091FF";
paths = (
{
closed = 1;
nodes = (
"2518 0 LINE",
"2518 996 LINE",
"685 996 LINE",
"685 1280 LINE",
"2518 1280 LINE",
"2518 1600 LINE",
"242 1600 LINE",
"242 683 LINE",
"2075 683 LINE",
"2075 320 LINE",
"686 320 LINE",
"686 610 LINE",
"242 610 LINE",
"242 0 LINE"
);
}
);
userData = {
com.schriftgestaltung.Glyphs.lastChange = "2020-09-19 16:28:55 +0000";
com.typemytype.robofont.pointLabels = {
AlMtGpcmf6 = (
rightside,
leftside,
crossbar
);
GxHslptW0F = (
leftside
);
SWxRhN59bN = (
rightside
);
Wam28MqnPG = (
rightside,
leftside,
crossbar
);
X2pSUpzeW3 = (
leftside
);
c38TcsNPOL = (
rightside,
leftside,
crossbar
);
ejjvaR50qr = (
leftside
);
kEx7Jk7fPR = (
rightside
);
pdTUrgsN3b = (
rightside,
leftside,
crossbar
);
pwqGB8iowo = (
rightside
);
zlgP441jBh = (
rightside
);
};
};
width = 2705;
}
);
unicode = 0035;
},
{
glyphname = six;
lastChange = "2020-09-22 19:32:06 +0000";
layers = (
{
layerId = "1577B97C-DCC5-4AA4-842F-E9BB22E99E3C";
paths = (
{
closed = 1;
nodes = (
"415 0 LINE",
"415 858 LINE",
"183 858 LINE",
"183 1451 LINE",
"260 1451 LINE",
"260 1114 LINE",
"412 1114 LINE",
"412 1600 LINE",
"31 1600 LINE",
"31 0 LINE"
);
},
{
closed = 1;
nodes = (
"183 710 LINE",
"263 710 LINE",
"263 149 LINE",
"183 149 LINE"
);
}
);
userData = {
com.schriftgestaltung.Glyphs.lastChange = "2019-04-28 04:43:13 +0000";
com.typemytype.robofont.pointLabels = {
2G5L37c87I = (
rightside
);
KnMArb0tv8 = (
leftside
);
Wuidbv6mUe = (
rightside
);
jtYkxiUX6G = (
rightside
);
oGvEEuxnYv = (
rightside
);
uiw6aBUf4P = (
leftside
);
xR3pEHbMJx = (
leftside
);
};
};
width = 446;
},
{
layerId = "5E27AD2D-EA42-4F80-9479-E0FC49C091FF";
paths = (
{
closed = 1;
nodes = (
"2533 0 LINE",
"2533 938 LINE",
"611 938 LINE",
"611 1287 LINE",
"2018 1287 LINE",
"2018 1077 LINE",
"2462 1077 LINE",
"2462 1600 LINE",
"168 1600 LINE",
"168 0 LINE"
);
},
{
closed = 1;
nodes = (
"611 623 LINE",
"2089 623 LINE",
"2089 326 LINE",
"611 326 LINE"
);
}
);
userData = {
com.schriftgestaltung.Glyphs.lastChange = "2020-09-19 16:28:55 +0000";
com.typemytype.robofont.pointLabels = {
2G5L37c87I = (
rightside
);
KnMArb0tv8 = (
leftside
);
Wuidbv6mUe = (
rightside
);
jtYkxiUX6G = (
rightside
);
oGvEEuxnYv = (
rightside
);
uiw6aBUf4P = (
leftside
);
xR3pEHbMJx = (
leftside
);
};
};
width = 2749;
}
);
unicode = 0036;
},
{
glyphname = seven;
lastChange = "2020-09-23 01:49:18 +0000";
layers = (
{
layerId = "1577B97C-DCC5-4AA4-842F-E9BB22E99E3C";
paths = (
{
closed = 1;
nodes = (
"281 -18 LINE",
"412 1324 LINE",
"412 1600 LINE",
"27 1600 LINE",
"27 1028 LINE",
"179 1028 LINE",
"179 1451 LINE",
"260 1451 LINE",
"260 1345 LINE",
"139 -1 LINE"
);
}
);
userData = {
com.schriftgestaltung.Glyphs.lastChange = "2019-04-28 04:57:05 +0000";
com.typemytype.robofont.pointLabels = {
36ml4xRICt = (
leftside
);
PiPrv7Kcoy = (
rigtside
);
PkvwNC9Tx1 = (
rigtside
);
aaDZsh5Mah = (
leftside
);
tgqM27bPOm = (
rigtside
);
};
};
width = 438;
},
{
layerId = "5E27AD2D-EA42-4F80-9479-E0FC49C091FF";
paths = (
{
closed = 1;
nodes = (
"1461 -113 LINE",
"2514 1037 LINE",
"2514 1600 LINE",
"193 1600 LINE",
"193 892 LINE",
"637 892 LINE",
"637 1274 LINE",
"2071 1274 LINE",
"2071 1128 LINE",
"1118 67 LINE"
);
}
);
userData = {
com.schriftgestaltung.Glyphs.lastChange = "2020-09-19 16:28:55 +0000";
com.typemytype.robofont.pointLabels = {
36ml4xRICt = (
leftside
);
PiPrv7Kcoy = (
rigtside
);
PkvwNC9Tx1 = (
rigtside
);
aaDZsh5Mah = (
leftside
);
tgqM27bPOm = (
rigtside
);
};
};
width = 2654;
}
);
unicode = 0037;
},
{
glyphname = eight;
lastChange = "2020-09-22 19:32:06 +0000";
layers = (
{
layerId = "1577B97C-DCC5-4AA4-842F-E9BB22E99E3C";
paths = (
{
closed = 1;
nodes = (
"320 149 LINE",
"172 149 LINE",
"172 740 LINE",
"320 740 LINE"
);
},
{
closed = 1;
nodes = (
"452 846 LINE",
"298 846 LINE",
"298 818 LINE",
"433 949 LINE",
"433 1600 LINE",
"39 1600 LINE",
"39 949 LINE",
"134 818 LINE",
"134 846 LINE",
"20 846 LINE",
"20 0 LINE",
"452 0 LINE"
);
},
{
closed = 1;
nodes = (
"282 985 LINE",
"208 874 LINE",
"264 874 LINE",
"190 985 LINE",
"190 1451 LINE",
"282 1451 LINE"
);
}
);
userData = {
com.schriftgestaltung.Glyphs.lastChange = "2019-04-28 05:46:24 +0000";
com.typemytype.robofont.pointLabels = {
2AoyMNBDus = (
crossbar,
crossbar,
crossbar,
crossbar,
leftside
);
3RUxnrTvXW = (
crossbar
);
DmhYpjojFU = (
crossbar
);
HtiNjuVoMT = (
crossbar,
crossbar,
rightside,
crossbar,
crossbar,
rightside,
rightside,
crossbar,
crossbar,
rightside,
crossbar,
crossbar,
rightside,
crossbar,
crossbar
);
Hxl70cp8II = (
crossbar,
crossbar,
rightside,
crossbar,
crossbar,
rightside,
rightside,
crossbar,
crossbar,
rightside,
crossbar,
crossbar,
rightside,
crossbar,
crossbar
);
JvPOtaXHlU = (
crossbar
);
L4QRW2yg68 = (
crossbar
);
SOkkUNzV8O = (
crossbar,
crossbar,
crossbar,
crossbar,
leftside
);
TCOXywMDjP = (
crossbar,
crossbar,
rightside,
crossbar,
crossbar,
rightside,
rightside,
crossbar,
crossbar,
rightside,
crossbar,
crossbar,
rightside,
crossbar,
crossbar
);
aujrsODbNh = (
crossbar,
crossbar,
rightside,
crossbar,
crossbar,
rightside,
rightside,
crossbar,
crossbar,
rightside,
crossbar,
crossbar,
rightside,
crossbar,
crossbar
);
dihu6eADUx = (
crossbar,
crossbar,
rightside,
crossbar,
crossbar,
rightside,
rightside,
crossbar,
crossbar,
rightside,
crossbar,
crossbar,
rightside,
crossbar,
crossbar
);
mdbzbOpU9s = (
crossbar,
crossbar,
rightside,
crossbar,
crossbar,
rightside,
rightside,
crossbar,
crossbar,
rightside,
crossbar,
crossbar,
rightside,
crossbar,
crossbar
);
mzk5RCOTSG = (
crossbar
);
oo2HOwJkzJ = (
crossbar,
crossbar,
crossbar,
crossbar,
leftside
);
qiqbLZf02H = (
crossbar,
crossbar,
crossbar,
crossbar,
leftside
);
sLI75Ua05e = (
crossbar,
crossbar,
crossbar,
crossbar,
leftside
);
vajhJXw5HW = (
crossbar
);
yfThTK6gCq = (
crossbar
);
z5onK1VUCe = (
crossbar,
crossbar,
crossbar,
crossbar,
leftside
);
zMJTtBUO7o = (
crossbar
);
};
};
width = 472;
},
{
layerId = "5E27AD2D-EA42-4F80-9479-E0FC49C091FF";
paths = (
{
closed = 1;
nodes = (
"2109 321 LINE",
"603 321 LINE",
"603 650 LINE",
"2109 650 LINE"
);
},
{
closed = 1;
nodes = (
"2552 786 LINE",
"2298 786 LINE",
"2298 818 LINE",
"2513 989 LINE",
"2513 1600 LINE",
"199 1600 LINE",
"199 989 LINE",
"414 818 LINE",
"414 786 LINE",
"160 786 LINE",
"160 0 LINE",
"2552 0 LINE"
);
},
{
closed = 1;
nodes = (
"2092 1102 LINE",
"1898 964 LINE",
"814 964 LINE",
"620 1102 LINE",
"620 1279 LINE",
"2092 1279 LINE"
);
}
);
userData = {
com.schriftgestaltung.Glyphs.lastChange = "2020-09-19 16:28:55 +0000";
com.typemytype.robofont.pointLabels = {
2AoyMNBDus = (
crossbar,
crossbar,
crossbar,
crossbar,
leftside
);
3RUxnrTvXW = (
crossbar
);
DmhYpjojFU = (
crossbar
);
HtiNjuVoMT = (
crossbar,
crossbar,
rightside,
crossbar,
crossbar,
rightside,
rightside,
crossbar,
crossbar,
rightside,
crossbar,
crossbar,
rightside,
crossbar,
crossbar
);
Hxl70cp8II = (
crossbar,
crossbar,
rightside,
crossbar,
crossbar,
rightside,
rightside,
crossbar,
crossbar,
rightside,
crossbar,
crossbar,
rightside,
crossbar,
crossbar
);
JvPOtaXHlU = (
crossbar
);
L4QRW2yg68 = (
crossbar
);
SOkkUNzV8O = (
crossbar,
crossbar,
crossbar,
crossbar,
leftside
);
TCOXywMDjP = (
crossbar,
crossbar,
rightside,
crossbar,
crossbar,
rightside,
rightside,
crossbar,
crossbar,
rightside,
crossbar,
crossbar,
rightside,
crossbar,
crossbar
);
aujrsODbNh = (
crossbar,
crossbar,
rightside,
crossbar,
crossbar,
rightside,
rightside,
crossbar,
crossbar,
rightside,
crossbar,
crossbar,
rightside,
crossbar,
crossbar
);
dihu6eADUx = (
crossbar,
crossbar,
rightside,
crossbar,
crossbar,
rightside,
rightside,
crossbar,
crossbar,
rightside,
crossbar,
crossbar,
rightside,
crossbar,
crossbar
);
mdbzbOpU9s = (
crossbar,
crossbar,
rightside,
crossbar,
crossbar,
rightside,
rightside,
crossbar,
crossbar,
rightside,
crossbar,
crossbar,
rightside,
crossbar,
crossbar
);
mzk5RCOTSG = (
crossbar
);
oo2HOwJkzJ = (
crossbar,
crossbar,
crossbar,
crossbar,
leftside
);
qiqbLZf02H = (
crossbar,
crossbar,
crossbar,
crossbar,
leftside
);
sLI75Ua05e = (
crossbar,
crossbar,
crossbar,
crossbar,
leftside
);
vajhJXw5HW = (
crossbar
);
yfThTK6gCq = (
crossbar
);
z5onK1VUCe = (
crossbar,
crossbar,
crossbar,
crossbar,
leftside
);
zMJTtBUO7o = (
crossbar
);
};
};
width = 2712;
}
);
unicode = 0038;
},
{
glyphname = nine;
lastChange = "2020-09-22 19:32:16 +0000";
layers = (
{
layerId = "1577B97C-DCC5-4AA4-842F-E9BB22E99E3C";
paths = (
{
closed = 1;
nodes = (
"415 0 LINE",
"415 1600 LINE",
"31 1600 LINE",
"31 742 LINE",
"263 742 LINE",
"263 149 LINE",
"186 149 LINE",
"186 491 LINE",
"34 491 LINE",
"34 0 LINE"
);
},
{
closed = 1;
nodes = (
"184 1451 LINE",
"263 1451 LINE",
"263 890 LINE",
"184 890 LINE"
);
}
);
userData = {
com.schriftgestaltung.Glyphs.lastChange = "2019-04-28 12:47:08 +0000";
};
width = 446;
},
{
layerId = "5E27AD2D-EA42-4F80-9479-E0FC49C091FF";
paths = (
{
closed = 1;
nodes = (
"2533 0 LINE",
"2533 1600 LINE",
"168 1600 LINE",
"168 662 LINE",
"2090 662 LINE",
"2090 313 LINE",
"683 313 LINE",
"683 523 LINE",
"239 523 LINE",
"239 0 LINE"
);
},
{
closed = 1;
nodes = (
"612 1274 LINE",
"2090 1274 LINE",
"2090 977 LINE",
"612 977 LINE"
);
}
);
userData = {
com.schriftgestaltung.Glyphs.lastChange = "2020-09-19 16:28:55 +0000";
};
width = 2749;
}
);
unicode = 0039;
},
{
glyphname = one.narrow;
lastChange = "2020-09-22 13:03:52 +0000";
layers = (
{
layerId = "1577B97C-DCC5-4AA4-842F-E9BB22E99E3C";
paths = (
{
closed = 1;
nodes = (
"255 1600 LINE",
"24 1600 LINE",
"24 1451 LINE",
"103 1451 LINE",
"103 0 LINE",
"255 0 LINE"
);
}
);
width = 286;
},
{
layerId = "5E27AD2D-EA42-4F80-9479-E0FC49C091FF";
paths = (
{
closed = 1;
nodes = (
"734 1600 LINE",
"-236 1600 LINE",
"-236 1268 LINE",
"308 1268 LINE",
"308 0 LINE",
"734 0 LINE"
);
}
);
width = 834;
}
);
},
{
glyphname = two.wide;
lastChange = "2020-09-22 13:03:52 +0000";
layers = (
{
layerId = "1577B97C-DCC5-4AA4-842F-E9BB22E99E3C";
paths = (
{
closed = 1;
nodes = (
"419 0 LINE",
"419 149 LINE",
"187 149 LINE",
"187 720 LINE",
"410 720 LINE",
"410 1600 LINE",
"35 1600 LINE",
"35 1451 LINE",
"258 1451 LINE",
"258 869 LINE",
"31 869 LINE",
"31 0 LINE"
);
}
);
width = 453;
},
{
layerId = "5E27AD2D-EA42-4F80-9479-E0FC49C091FF";
paths = (
{
closed = 1;
nodes = (
"2530 0 LINE",
"2529 320 LINE",
"668 320 LINE",
"668 641 LINE",
"2512 641 LINE",
"2512 1600 LINE",
"223 1600 LINE",
"223 1280 LINE",
"2068 1280 LINE",
"2068 960 LINE",
"217 960 LINE",
"217 0 LINE"
);
}
);
width = 2737;
}
);
},
{
glyphname = three.wide;
lastChange = "2020-09-22 13:03:52 +0000";
layers = (
{
layerId = "1577B97C-DCC5-4AA4-842F-E9BB22E99E3C";
paths = (
{
closed = 1;
nodes = (
"389 0 LINE",
"389 873 LINE",
"320 873 LINE",
"379 1050 LINE",
"379 1600 LINE",
"15 1600 LINE",
"15 1451 LINE",
"227 1451 LINE",
"227 1039 LINE",
"179 873 LINE",
"49 873 LINE",
"49 724 LINE",
"237 724 LINE",
"237 149 LINE",
"8 149 LINE",
"8 0 LINE"
);
}
);
width = 427;
},
{
layerId = "5E27AD2D-EA42-4F80-9479-E0FC49C091FF";
paths = (
{
closed = 1;
nodes = (
"2534 0 LINE",
"2534 951 LINE",
"2221 951 LINE",
"2372 1149 LINE",
"2372 1600 LINE",
"237 1600 LINE",
"237 1273 LINE",
"1928 1273 LINE",
"1928 1163 LINE",
"1795 970 LINE",
"813 970 LINE",
"813 646 LINE",
"2090 646 LINE",
"2090 327 LINE",
"154 327 LINE",
"154 0 LINE"
);
}
);
width = 2692;
}
);
},
{
glyphname = five.wide;
lastChange = "2020-09-22 13:03:52 +0000";
layers = (
{
layerId = "1577B97C-DCC5-4AA4-842F-E9BB22E99E3C";
paths = (
{
closed = 1;
nodes = (
"409 0 LINE",
"409 874 LINE",
"178 874 LINE",
"178 1451 LINE",
"409 1451 LINE",
"409 1600 LINE",
"26 1600 LINE",
"26 725 LINE",
"257 725 LINE",
"257 149 LINE",
"27 149 LINE",
"27 0 LINE"
);
}
);
width = 435;
},
{
layerId = "5E27AD2D-EA42-4F80-9479-E0FC49C091FF";
paths = (
{
closed = 1;
nodes = (
"2434 0 LINE",
"2434 956 LINE",
"623 956 LINE",
"623 1273 LINE",
"2434 1273 LINE",
"2434 1600 LINE",
"180 1600 LINE",
"180 632 LINE",
"1990 632 LINE",
"1990 327 LINE",
"167 327 LINE",
"167 0 LINE"
);
}
);
width = 2599;
}
);
},
{
glyphname = six.wide;
lastChange = "2020-09-22 19:27:21 +0000";
layers = (
{
layerId = "1577B97C-DCC5-4AA4-842F-E9BB22E99E3C";
paths = (
{
closed = 1;
nodes = (
"407 0 LINE",
"407 871 LINE",
"175 871 LINE",
"175 1451 LINE",
"407 1451 LINE",
"407 1600 LINE",
"24 1600 LINE",
"23 0 LINE"
);
},
{
closed = 1;
nodes = (
"175 722 LINE",
"255 722 LINE",
"255 149 LINE",
"175 149 LINE"
);
}
);
width = 432;
},
{
layerId = "5E27AD2D-EA42-4F80-9479-E0FC49C091FF";
paths = (
{
closed = 1;
nodes = (
"2533 0 LINE",
"2533 938 LINE",
"611 938 LINE",
"611 1287 LINE",
"2462 1287 LINE",
"2462 1600 LINE",
"168 1600 LINE",
"168 0 LINE"
);
},
{
closed = 1;
nodes = (
"611 623 LINE",
"2089 623 LINE",
"2089 326 LINE",
"611 326 LINE"
);
}
);
width = 2749;
}
);
},
{
glyphname = nine.wide;
lastChange = "2020-09-22 19:24:34 +0000";
layers = (
{
layerId = "1577B97C-DCC5-4AA4-842F-E9BB22E99E3C";
paths = (
{
closed = 1;
nodes = (
"406 0 LINE",
"407 1600 LINE",
"23 1600 LINE",
"23 729 LINE",
"255 729 LINE",
"255 149 LINE",
"23 149 LINE",
"23 0 LINE"
);
},
{
closed = 1;
nodes = (
"175 1451 LINE",
"255 1451 LINE",
"255 878 LINE",
"175 878 LINE"
);
}
);
width = 446;
},
{
layerId = "5E27AD2D-EA42-4F80-9479-E0FC49C091FF";
paths = (
{
closed = 1;
nodes = (
"2533 0 LINE",
"2533 1600 LINE",
"168 1600 LINE",
"168 662 LINE",
"2090 662 LINE",
"2090 313 LINE",
"239 313 LINE",
"239 0 LINE"
);
},
{
closed = 1;
nodes = (
"612 1274 LINE",
"2090 1274 LINE",
"2090 977 LINE",
"612 977 LINE"
);
}
);
width = 2749;
}
);
},
{
glyphname = period;
lastChange = "2020-09-22 13:03:52 +0000";
layers = (
{
layerId = "1577B97C-DCC5-4AA4-842F-E9BB22E99E3C";
paths = (
{
closed = 1;
nodes = (
"182 171 LINE",
"26 171 LINE",
"26 0 LINE",
"182 0 LINE"
);
}
);
width = 210;
},
{
layerId = "5E27AD2D-EA42-4F80-9479-E0FC49C091FF";
paths = (
{
closed = 1;
nodes = (
"569 382 LINE",
"123 382 LINE",
"123 0 LINE",
"569 0 LINE"
);
}
);
width = 692;
}
);
unicode = 002E;
},
{
glyphname = exclam;
lastChange = "2020-09-22 13:03:52 +0000";
layers = (
{
components = (
{
name = period;
transform = "{1, 0, 0, 1, -1, 0}";
}
);
layerId = "1577B97C-DCC5-4AA4-842F-E9BB22E99E3C";
paths = (
{
closed = 1;
nodes = (
"174 254 LINE",
"183 1600 LINE",
"30 1600 LINE",
"39 254 LINE"
);
}
);
width = 213;
},
{
components = (
{
name = period;
transform = "{1, 0, 0, 1, 57, 0}";
}
);
layerId = "5E27AD2D-EA42-4F80-9479-E0FC49C091FF";
paths = (
{
closed = 1;
nodes = (
"570 484 LINE",
"604 1600 LINE",
"159 1600 LINE",
"194 484 LINE"
);
}
);
width = 763;
}
);
unicode = 0021;
},
{
glyphname = question;
lastChange = "2020-09-23 00:13:54 +0000";
layers = (
{
layerId = "1577B97C-DCC5-4AA4-842F-E9BB22E99E3C";
paths = (
{
closed = 1;
nodes = (
"316 316 LINE",
"391 579 LINE",
"392 1600 LINE",
"36 1600 LINE",
"36 781 LINE",
"177 781 LINE",
"177 1482 LINE",
"240 1482 LINE",
"241 585 LINE",
"205 452 LINE",
"72 452 LINE",
"72 316 LINE"
);
},
{
closed = 1;
nodes = (
"275 0 LINE",
"275 171 LINE",
"119 171 LINE",
"119 0 LINE"
);
}
);
width = 418;
},
{
layerId = "5E27AD2D-EA42-4F80-9479-E0FC49C091FF";
paths = (
{
closed = 1;
nodes = (
"1834 528 LINE",
"2106 864 LINE",
"2106 1599 LINE",
"63 1599 LINE",
"63 1002 LINE",
"499 1002 LINE",
"499 1279 LINE",
"1672 1279 LINE",
"1672 959 LINE",
"1568 848 LINE",
"678 848 LINE",
"678 528 LINE"
);
},
{
closed = 1;
nodes = (
"1273 0 LINE",
"1273 382 LINE",
"828 382 LINE",
"828 0 LINE"
);
}
);
width = 2139;
}
);
unicode = 003F;
},
{
glyphname = asterisk;
lastChange = "2020-09-22 13:03:52 +0000";
layers = (
{
layerId = "1577B97C-DCC5-4AA4-842F-E9BB22E99E3C";
paths = (
{
closed = 1;
nodes = (
"198 1407 LINE",
"287 1280 LINE",
"342 1327 LINE",
"253 1426 LINE",
"375 1452 LINE",
"346 1515 LINE",
"226 1469 LINE",
"236 1601 LINE",
"158 1601 LINE",
"168 1469 LINE",
"47 1517 LINE",
"20 1454 LINE",
"143 1426 LINE",
"53 1325 LINE",
"108 1280 LINE"
);
}
);
userData = {
com.schriftgestaltung.Glyphs.lastChange = "2018-09-07 02:43:36 +0000";
};
width = 395;
},
{
layerId = "5E27AD2D-EA42-4F80-9479-E0FC49C091FF";
paths = (
{
closed = 1;
nodes = (
"657 1003 LINE",
"895 640 LINE",
"1195 847 LINE",
"759 1088 LINE",
"1269 1064 LINE",
"1201 1393 LINE",
"742 1204 LINE",
"847 1600 LINE",
"464 1600 LINE",
"571 1202 LINE",
"121 1388 LINE",
"50 1063 LINE",
"553 1087 LINE",
"128 843 LINE",
"460 631 LINE"
);
}
);
userData = {
com.schriftgestaltung.Glyphs.lastChange = "2020-09-19 16:29:22 +0000";
};
width = 1319;
}
);
unicode = 002A;
},
{
glyphname = backslash;
lastChange = "2020-09-22 13:03:52 +0000";
layers = (
{
layerId = "1577B97C-DCC5-4AA4-842F-E9BB22E99E3C";
paths = (
{
closed = 1;
nodes = (
"6 1650 LINE",
"103 -50 LINE",
"255 -50 LINE",
"158 1650 LINE"
);
}
);
userData = {
com.schriftgestaltung.Glyphs.lastChange = "2018-09-07 02:43:36 +0000";
};
width = 261;
},
{
layerId = "5E27AD2D-EA42-4F80-9479-E0FC49C091FF";
paths = (
{
closed = 1;
nodes = (
"58 1717 LINE",
"345 -117 LINE",
"789 -117 LINE",
"502 1717 LINE"
);
}
);
userData = {
com.schriftgestaltung.Glyphs.lastChange = "2020-09-19 16:29:22 +0000";
};
width = 847;
}
);
unicode = 005C;
},
{
glyphname = braceleft;
lastChange = "2020-09-22 13:03:52 +0000";
layers = (
{
layerId = "1577B97C-DCC5-4AA4-842F-E9BB22E99E3C";
paths = (
{
closed = 1;
nodes = (
"201 1526 LINE",
"285 1526 LINE",
"285 1675 LINE",
"60 1675 LINE",
"60 861 LINE",
"12 801 LINE",
"12 799 LINE",
"60 739 LINE",
"60 -75 LINE",
"280 -75 LINE",
"280 74 LINE",
"201 74 LINE",
"201 740 LINE",
"153 799 LINE",
"153 801 LINE",
"201 860 LINE"
);
}
);
width = 292;
},
{
layerId = "5E27AD2D-EA42-4F80-9479-E0FC49C091FF";
paths = (
{
closed = 1;
nodes = (
"636 1415 LINE",
"1137 1415 LINE",
"1137 1747 LINE",
"209 1747 LINE",
"209 993 LINE",
"30 805 LINE",
"30 795 LINE",
"209 607 LINE",
"209 -147 LINE",
"1132 -147 LINE",
"1132 185 LINE",
"636 185 LINE",
"636 608 LINE",
"457 795 LINE",
"457 805 LINE",
"636 992 LINE"
);
}
);
width = 1207;
}
);
unicode = 007B;
},
{
glyphname = braceright;
lastChange = "2020-09-23 00:22:57 +0000";
layers = (
{
layerId = "1577B97C-DCC5-4AA4-842F-E9BB22E99E3C";
paths = (
{
closed = 1;
nodes = (
"357 -75 LINE",
"357 739 LINE",
"405 799 LINE",
"405 801 LINE",
"357 861 LINE",
"357 1675 LINE",
"137 1675 LINE",
"137 1526 LINE",
"216 1526 LINE",
"216 860 LINE",
"264 801 LINE",
"264 799 LINE",
"216 740 LINE",
"216 74 LINE",
"132 74 LINE",
"132 -75 LINE"
);
}
);
width = 417;
},
{
layerId = "5E27AD2D-EA42-4F80-9479-E0FC49C091FF";
paths = (
{
closed = 1;
nodes = (
"958 -147 LINE",
"958 607 LINE",
"1137 795 LINE",
"1137 805 LINE",
"958 993 LINE",
"958 1747 LINE",
"35 1747 LINE",
"35 1415 LINE",
"531 1415 LINE",
"531 992 LINE",
"710 805 LINE",
"710 795 LINE",
"531 608 LINE",
"531 185 LINE",
"30 185 LINE",
"30 -147 LINE"
);
}
);
width = 1207;
}
);
unicode = 007D;
},
{
glyphname = bracketleft;
lastChange = "2020-09-22 13:03:52 +0000";
layers = (
{
layerId = "1577B97C-DCC5-4AA4-842F-E9BB22E99E3C";
paths = (
{
closed = 1;
nodes = (
"267 1526 LINE",
"267 1675 LINE",
"43 1675 LINE",
"43 -75 LINE",
"262 -75 LINE",
"262 74 LINE",
"184 74 LINE",
"184 1526 LINE"
);
}
);
width = 268;
},
{
layerId = "5E27AD2D-EA42-4F80-9479-E0FC49C091FF";
paths = (
{
closed = 1;
nodes = (
"1192 1415 LINE",
"1192 1747 LINE",
"264 1747 LINE",
"264 -147 LINE",
"1187 -147 LINE",
"1187 185 LINE",
"691 185 LINE",
"691 1415 LINE"
);
}
);
width = 1263;
}
);
unicode = 005B;
},
{
glyphname = hyphen;
lastChange = "2020-09-22 13:03:52 +0000";
layers = (
{
layerId = "1577B97C-DCC5-4AA4-842F-E9BB22E99E3C";
paths = (
{
closed = 1;
nodes = (
"324 732 LINE",
"324 881 LINE",
"42 881 LINE",
"42 732 LINE"
);
}
);
width = 366;
},
{
layerId = "5E27AD2D-EA42-4F80-9479-E0FC49C091FF";
paths = (
{
closed = 1;
nodes = (
"1574 640 LINE",
"1574 958 LINE",
"136 958 LINE",
"136 640 LINE"
);
}
);
width = 1711;
}
);
unicode = 002D;
},
{
glyphname = endash;
lastChange = "2020-09-22 13:03:52 +0000";
layers = (
{
layerId = "1577B97C-DCC5-4AA4-842F-E9BB22E99E3C";
paths = (
{
closed = 1;
nodes = (
"524 729 LINE",
"524 878 LINE",
"42 878 LINE",
"42 729 LINE"
);
}
);
width = 566;
},
{
layerId = "5E27AD2D-EA42-4F80-9479-E0FC49C091FF";
paths = (
{
closed = 1;
nodes = (
"1992 639 LINE",
"1992 957 LINE",
"134 957 LINE",
"134 639 LINE"
);
}
);
width = 2126;
}
);
unicode = 2013;
},
{
glyphname = emdash;
lastChange = "2020-09-22 13:03:52 +0000";
layers = (
{
layerId = "1577B97C-DCC5-4AA4-842F-E9BB22E99E3C";
paths = (
{
closed = 1;
nodes = (
"892 730 LINE",
"892 879 LINE",
"60 879 LINE",
"60 730 LINE"
);
}
);
width = 952;
},
{
layerId = "5E27AD2D-EA42-4F80-9479-E0FC49C091FF";
paths = (
{
closed = 1;
nodes = (
"2768 645 LINE",
"2768 954 LINE",
"117 954 LINE",
"117 645 LINE"
);
}
);
width = 2885;
}
);
unicode = 2014;
},
{
glyphname = quoteleft;
lastChange = "2020-09-22 13:03:52 +0000";
layers = (
{
layerId = "1577B97C-DCC5-4AA4-842F-E9BB22E99E3C";
paths = (
{
closed = 1;
nodes = (
"55 1600 LINE",
"17 1219 LINE",
"169 1219 LINE",
"178 1600 LINE"
);
}
);
width = 196;
},
{
layerId = "5E27AD2D-EA42-4F80-9479-E0FC49C091FF";
paths = (
{
closed = 1;
nodes = (
"213 1600 LINE",
"41 1018 LINE",
"485 1018 LINE",
"520 1600 LINE"
);
}
);
width = 594;
}
);
unicode = 2018;
},
{
glyphname = quotesingle;
lastChange = "2020-09-22 13:03:52 +0000";
layers = (
{
layerId = "1577B97C-DCC5-4AA4-842F-E9BB22E99E3C";
paths = (
{
closed = 1;
nodes = (
"163 1136 LINE",
"172 1600 LINE",
"31 1600 LINE",
"40 1136 LINE"
);
}
);
width = 205;
},
{
layerId = "5E27AD2D-EA42-4F80-9479-E0FC49C091FF";
paths = (
{
closed = 1;
nodes = (
"497 940 LINE",
"531 1600 LINE",
"104 1600 LINE",
"138 940 LINE"
);
}
);
userData = {
com.schriftgestaltung.Glyphs.lastChange = "2020-09-19 16:29:22 +0000";
};
width = 636;
}
);
unicode = 0027;
},
{
glyphname = euro;
lastChange = "2020-09-22 13:03:52 +0000";
layers = (
{
layerId = "1577B97C-DCC5-4AA4-842F-E9BB22E99E3C";
paths = (
{
closed = 1;
nodes = (
"124 752 LINE",
"29 752 LINE",
"29 750 LINE",
"124 750 LINE"
);
},
{
closed = 1;
nodes = (
"124 852 LINE",
"29 852 LINE",
"29 850 LINE",
"124 850 LINE"
);
},
{
closed = 1;
nodes = (
"79 1437 LINE",
"79 163 LINE",
"113 0 LINE",
"174 0 LINE",
"174 507 LINE",
"172 507 LINE",
"172 2 LINE",
"115 2 LINE",
"81 163 LINE",
"81 1437 LINE",
"118 1598 LINE",
"173 1598 LINE",
"173 1274 LINE",
"175 1274 LINE",
"175 1600 LINE",
"116 1600 LINE"
);
}
);
width = 200;
},
{
layerId = "5E27AD2D-EA42-4F80-9479-E0FC49C091FF";
paths = (
{
closed = 1;
nodes = (
"1353 713 LINE",
"-14 713 LINE",
"-14 711 LINE",
"1353 711 LINE"
);
},
{
closed = 1;
nodes = (
"1353 878 LINE",
"-14 878 LINE",
"-14 876 LINE",
"1353 876 LINE"
);
},
{
closed = 1;
nodes = (
"246 1336 LINE",
"246 246 LINE",
"456 0 LINE",
"1780 0 LINE",
"1780 516 LINE",
"1778 516 LINE",
"1778 2 LINE",
"458 2 LINE",
"248 246 LINE",
"248 1336 LINE",
"443 1598 LINE",
"1779 1598 LINE",
"1779 1186 LINE",
"1781 1186 LINE",
"1781 1600 LINE",
"441 1600 LINE"
);
}
);
userData = {
com.schriftgestaltung.Glyphs.lastChange = "2020-09-19 16:30:06 +0000";
};
width = 2032;
}
);
},
{
glyphname = greater;
lastChange = "2020-09-22 13:03:52 +0000";
layers = (
{
layerId = "1577B97C-DCC5-4AA4-842F-E9BB22E99E3C";
paths = (
{
closed = 1;
nodes = (
"269 706 LINE",
"269 863 LINE",
"56 979 LINE",
"19 888 LINE",
"174 793 LINE",
"174 775 LINE",
"19 680 LINE",
"57 589 LINE"
);
}
);
width = 289;
},
{
layerId = "5E27AD2D-EA42-4F80-9479-E0FC49C091FF";
paths = (
{
closed = 1;
nodes = (
"1311 556 LINE",
"1311 871 LINE",
"199 1331 LINE",
"113 1055 LINE",
"992 714 LINE",
"992 712 LINE",
"116 378 LINE",
"204 105 LINE"
);
}
);
width = 1348;
}
);
unicode = 003E;
},
{
glyphname = summation;
lastChange = "2020-09-22 13:03:52 +0000";
layers = (
{
layerId = "1577B97C-DCC5-4AA4-842F-E9BB22E99E3C";
paths = (
{
closed = 1;
nodes = (
"393 -400 LINE",
"393 133 LINE",
"252 133 LINE",
"252 -251 LINE",
"184 -251 LINE",
"258 599 LINE",
"258 601 LINE",
"184 1451 LINE",
"253 1451 LINE",
"253 1067 LINE",
"394 1067 LINE",
"394 1600 LINE",
"26 1600 LINE",
"112 600 LINE",
"26 -400 LINE"
);
}
);
width = 421;
},
{
layerId = "5E27AD2D-EA42-4F80-9479-E0FC49C091FF";
paths = (
{
closed = 1;
nodes = (
"2479 -400 LINE",
"2479 331 LINE",
"2052 331 LINE",
"2052 -94 LINE",
"620 -94 LINE",
"995 586 LINE",
"995 614 LINE",
"620 1294 LINE",
"2031 1294 LINE",
"2031 883 LINE",
"2458 883 LINE",
"2458 1600 LINE",
"27 1600 LINE",
"574 600 LINE",
"28 -400 LINE"
);
}
);
width = 2690;
}
);
unicode = 2211;
},
{
export = 0;
glyphname = asciitilde;
lastChange = "2020-09-22 19:36:44 +0000";
layers = (
{
layerId = "1577B97C-DCC5-4AA4-842F-E9BB22E99E3C";
width = 417;
},
{
layerId = "5E27AD2D-EA42-4F80-9479-E0FC49C091FF";
paths = (
{
closed = 1;
nodes = (
"299 538 LINE",
"343 538 LINE",
"776 823 LINE",
"629 1050 LINE",
"341 850 LINE",
"302 850 LINE",
"-100 1086 LINE",
"-145 1086 LINE",
"-616 801 LINE",
"-469 574 LINE",
"-143 774 LINE",
"-104 774 LINE"
);
}
);
width = 150;
}
);
unicode = 007E;
},
{
export = 0;
glyphname = product;
lastChange = "2020-09-22 19:36:44 +0000";
layers = (
{
layerId = "1577B97C-DCC5-4AA4-842F-E9BB22E99E3C";
width = 417;
},
{
layerId = "5E27AD2D-EA42-4F80-9479-E0FC49C091FF";
paths = (
{
closed = 1;
nodes = (
"653 0 LINE",
"653 1293 LINE",
"1777 1293 LINE",
"1777 0 LINE",
"2220 0 LINE",
"2220 1600 LINE",
"210 1600 LINE",
"210 0 LINE"
);
}
);
width = 2392;
}
);
unicode = 220F;
},
{
glyphname = ampersand;
lastChange = "2020-09-23 00:20:25 +0000";
layers = (
{
layerId = "1577B97C-DCC5-4AA4-842F-E9BB22E99E3C";
paths = (
{
closed = 1;
nodes = (
"755 -1 LINE",
"631 635 LINE",
"389 635 LINE",
"282 130 LINE",
"194 130 LINE",
"194 637 LINE",
"334 637 LINE",
"334 1191 LINE",
"394 1451 LINE",
"443 1451 LINE",
"443 958 LINE",
"584 958 LINE",
"584 1600 LINE",
"290 1600 LINE",
"193 1217 LINE",
"193 759 LINE",
"53 759 LINE",
"53 0 LINE",
"393 0 LINE",
"496 511 LINE",
"518 511 LINE",
"616 -26 LINE"
);
}
);
width = 735;
},
{
layerId = "5E27AD2D-EA42-4F80-9479-E0FC49C091FF";
paths = (
{
closed = 1;
nodes = (
"2877 126 LINE",
"2447 712 LINE",
"1842 712 LINE",
"1600 324 LINE",
"507 324 LINE",
"507 692 LINE",
"1138 692 LINE",
"1138 1071 LINE",
"1307 1296 LINE",
"1944 1296 LINE",
"1944 911 LINE",
"2379 911 LINE",
"2379 1600 LINE",
"1066 1600 LINE",
"720 1128 LINE",
"720 972 LINE",
"72 972 LINE",
"72 0 LINE",
"1839 0 LINE",
"2100 392 LINE",
"2189 392 LINE",
"2548 -72 LINE"
);
}
);
width = 2877;
}
);
unicode = 0026;
},
{
glyphname = section;
lastChange = "2020-09-22 13:03:52 +0000";
layers = (
{
layerId = "1577B97C-DCC5-4AA4-842F-E9BB22E99E3C";
paths = (
{
closed = 1;
nodes = (
"90 -110 LINE",
"123 44 LINE",
"123 378 LINE",
"131 378 LINE",
"164 500 LINE",
"164 942 LINE",
"73 1102 LINE",
"69 1102 LINE",
"69 1438 LINE",
"103 1598 LINE",
"160 1598 LINE",
"160 1600 LINE",
"101 1600 LINE",
"67 1438 LINE",
"67 1102 LINE",
"41 1102 LINE",
"7 972 LINE",
"7 538 LINE",
"100 378 LINE",
"121 378 LINE",
"121 48 LINE",
"88 -107 LINE",
"18 -107 LINE",
"18 -110 LINE"
);
},
{
closed = 1;
nodes = (
"9 972 LINE",
"43 1100 LINE",
"72 1100 LINE",
"162 941 LINE",
"162 500 LINE",
"129 380 LINE",
"101 380 LINE",
"9 539 LINE"
);
}
);
width = 170;
},
{
layerId = "5E27AD2D-EA42-4F80-9479-E0FC49C091FF";
paths = (
{
closed = 1;
nodes = (
"90 -110 LINE",
"123 44 LINE",
"123 438 LINE",
"131 438 LINE",
"164 560 LINE",
"164 882 LINE",
"73 1042 LINE",
"69 1042 LINE",
"69 1438 LINE",
"103 1598 LINE",
"160 1598 LINE",
"160 1600 LINE",
"101 1600 LINE",
"67 1438 LINE",
"67 1042 LINE",
"41 1042 LINE",
"7 912 LINE",
"7 598 LINE",
"100 438 LINE",
"121 438 LINE",
"121 48 LINE",
"88 -107 LINE",
"18 -107 LINE",
"18 -110 LINE"
);
},
{
closed = 1;
nodes = (
"9 912 LINE",
"43 1040 LINE",
"72 1040 LINE",
"162 881 LINE",
"162 560 LINE",
"129 440 LINE",
"101 440 LINE",
"9 599 LINE"
);
}
);
width = 170;
}
);
unicode = 00A7;
},
{
glyphname = bar;
lastChange = "2020-09-22 13:03:52 +0000";
layers = (
{
layerId = "1577B97C-DCC5-4AA4-842F-E9BB22E99E3C";
paths = (
{
closed = 1;
nodes = (
"195 -100 LINE",
"195 1700 LINE",
"43 1700 LINE",
"43 -100 LINE"
);
}
);
width = 237;
},
{
layerId = "5E27AD2D-EA42-4F80-9479-E0FC49C091FF";
paths = (
{
closed = 1;
nodes = (
"707 -145 LINE",
"707 1745 LINE",
"264 1745 LINE",
"264 -145 LINE"
);
}
);
width = 971;
}
);
unicode = 007C;
},
{
glyphname = acute;
lastChange = "2020-09-23 02:16:39 +0000";
layers = (
{
layerId = "1577B97C-DCC5-4AA4-842F-E9BB22E99E3C";
paths = (
{
closed = 1;
nodes = (
"408 1908 LINE",
"269 1993 LINE",
"112 1717 LINE",
"194 1668 LINE"
);
}
);
width = 417;
},
{
layerId = "5E27AD2D-EA42-4F80-9479-E0FC49C091FF";
paths = (
{
closed = 1;
nodes = (
"580 2227 LINE",
"268 2417 LINE",
"-82 1800 LINE",
"102 1690 LINE"
);
}
);
width = 500;
}
);
unicode = 00B4;
},
{
glyphname = circumflex;
lastChange = "2020-09-23 02:16:39 +0000";
layers = (
{
layerId = "1577B97C-DCC5-4AA4-842F-E9BB22E99E3C";
paths = (
{
closed = 1;
nodes = (
"298 1871 LINE",
"126 1871 LINE",
"24 1716 LINE",
"125 1689 LINE",
"189 1788 LINE",
"236 1788 LINE",
"298 1690 LINE",
"399 1717 LINE"
);
}
);
width = 417;
},
{
layerId = "5E27AD2D-EA42-4F80-9479-E0FC49C091FF";
paths = (
{
closed = 1;
nodes = (
"947 2347 LINE",
"467 2347 LINE",
"183 1913 LINE",
"465 1838 LINE",
"643 2115 LINE",
"774 2115 LINE",
"949 1840 LINE",
"1231 1915 LINE"
);
}
);
width = 1348;
}
);
unicode = 02C6;
},
{
glyphname = breve;
lastChange = "2020-09-23 02:16:39 +0000";
layers = (
{
layerId = "1577B97C-DCC5-4AA4-842F-E9BB22E99E3C";
paths = (
{
closed = 1;
nodes = (
"472 1761 LINE",
"384 1666 LINE",
"73 1666 LINE",
"73 1885 LINE",
"197 1885 LINE",
"197 1751 LINE",
"309 1751 LINE",
"348 1798 LINE",
"348 1885 LINE",
"472 1885 LINE"
);
}
);
width = 500;
},
{
layerId = "5E27AD2D-EA42-4F80-9479-E0FC49C091FF";
paths = (
{
closed = 1;
nodes = (
"1931 2011 LINE",
"1704 1768 LINE",
"905 1768 LINE",
"905 2331 LINE",
"1224 2331 LINE",
"1224 1987 LINE",
"1511 1987 LINE",
"1612 2108 LINE",
"1612 2331 LINE",
"1931 2331 LINE"
);
}
);
width = 2304;
}
);
unicode = 02D8;
},
{
glyphname = ring;
lastChange = "2020-09-23 02:18:52 +0000";
layers = (
{
layerId = "1577B97C-DCC5-4AA4-842F-E9BB22E99E3C";
paths = (
{
closed = 1;
nodes = (
"380 1647 LINE",
"380 1814 LINE",
"82 1814 LINE",
"82 1647 LINE"
);
},
{
closed = 1;
nodes = (
"154 1754 LINE",
"308 1754 LINE",
"308 1706 LINE",
"154 1706 LINE"
);
}
);
width = 417;
},
{
layerId = "5E27AD2D-EA42-4F80-9479-E0FC49C091FF";
paths = (
{
closed = 1;
nodes = (
"1006 1798 LINE",
"1006 2327 LINE",
"0 2327 LINE",
"0 1798 LINE"
);
},
{
closed = 1;
nodes = (
"226 2138 LINE",
"780 2138 LINE",
"780 1987 LINE",
"226 1987 LINE"
);
}
);
width = 1006;
}
);
unicode = 02DA;
},
{
glyphname = tilde;
lastChange = "2020-09-23 02:19:08 +0000";
layers = (
{
layerId = "1577B97C-DCC5-4AA4-842F-E9BB22E99E3C";
paths = (
{
closed = 1;
nodes = (
"258 1653 LINE",
"269 1653 LINE",
"386 1745 LINE",
"343 1809 LINE",
"269 1749 LINE",
"259 1749 LINE",
"156 1822 LINE",
"145 1822 LINE",
"19 1730 LINE",
"62 1664 LINE",
"145 1726 LINE",
"156 1726 LINE"
);
}
);
width = 417;
},
{
layerId = "5E27AD2D-EA42-4F80-9479-E0FC49C091FF";
paths = (
{
closed = 1;
nodes = (
"932 1718 LINE",
"976 1718 LINE",
"1426 2016 LINE",
"1262 2230 LINE",
"974 2030 LINE",
"935 2030 LINE",
"533 2266 LINE",
"488 2266 LINE",
"0 1967 LINE",
"164 1754 LINE",
"490 1954 LINE",
"529 1954 LINE"
);
}
);
width = 1426;
}
);
unicode = 02DC;
},
{
glyphname = macron;
lastChange = "2020-09-23 02:18:34 +0000";
layers = (
{
layerId = "1577B97C-DCC5-4AA4-842F-E9BB22E99E3C";
paths = (
{
closed = 1;
nodes = (
"379 1669 LINE",
"379 1765 LINE",
"80 1765 LINE",
"80 1669 LINE"
);
}
);
width = 417;
},
{
layerId = "5E27AD2D-EA42-4F80-9479-E0FC49C091FF";
paths = (
{
closed = 1;
nodes = (
"1030 1871 LINE",
"1030 2090 LINE",
"20 2090 LINE",
"20 1871 LINE"
);
}
);
width = 1050;
}
);
unicode = 00AF;
},
{
glyphname = cedilla;
lastChange = "2020-09-23 02:16:39 +0000";
layers = (
{
layerId = "1577B97C-DCC5-4AA4-842F-E9BB22E99E3C";
paths = (
{
closed = 1;
nodes = (
"277 -140 LINE",
"277 -161 LINE",
"244 -196 LINE",
"84 -196 LINE",
"84 -280 LINE",
"304 -280 LINE",
"391 -176 LINE",
"391 -63 LINE",
"222 -63 LINE",
"222 66 LINE",
"113 -63 LINE",
"113 -140 LINE"
);
}
);
width = 417;
},
{
layerId = "5E27AD2D-EA42-4F80-9479-E0FC49C091FF";
paths = (
{
closed = 1;
nodes = (
"413 -310 LINE",
"413 -332 LINE",
"343 -407 LINE",
"-66 -407 LINE",
"-66 -611 LINE",
"473 -611 LINE",
"659 -388 LINE",
"659 -106 LINE",
"296 -106 LINE",
"296 133 LINE",
"60 -145 LINE",
"60 -310 LINE"
);
}
);
width = 728;
}
);
unicode = 00B8;
},
{
glyphname = ogonek;
lastChange = "2020-09-23 03:15:09 +0000";
layers = (
{
layerId = "1577B97C-DCC5-4AA4-842F-E9BB22E99E3C";
paths = (
{
closed = 1;
nodes = (
"387 -224 LINE",
"387 -112 LINE",
"267 -112 LINE",
"267 70 LINE",
"173 -112 LINE",
"173 -224 LINE"
);
}
);
width = 500;
},
{
layerId = "5E27AD2D-EA42-4F80-9479-E0FC49C091FF";
paths = (
{
closed = 1;
nodes = (
"728 -530 LINE",
"728 -223 LINE",
"236 -223 LINE",
"236 48 LINE",
"0 -175 LINE",
"0 -530 LINE"
);
}
);
width = 728;
}
);
unicode = 02DB;
},
